<svg width="168" height="155" viewBox="0 0 168 155" fill="none" xmlns="http://www.w3.org/2000/svg">
<g filter="url(#filter0_d_233_44)">
<path d="M117.25 51.6666C108.5 51.6666 100.45 54.8958 94.5 60.0625C88.55 54.8958 80.5 51.6666 71.75 51.6666C53.55 51.6666 38.5 65.552 38.5 82.3437V119.479H59.5V79.1145C59.5 72.9791 65.1 67.8125 71.75 67.8125C78.4 67.8125 84 72.9791 84 79.1145V119.479H105V79.1145C105 72.9791 110.6 67.8125 117.25 67.8125C123.9 67.8125 129.5 72.9791 129.5 79.1145V119.479H150.5V82.3437C150.5 65.552 135.45 51.6666 117.25 51.6666Z" fill="#3FBF77"/>
<path d="M19.25 52.3125H22.75V103.333H19.25V52.3125Z" fill="black"/>
<path d="M77 41.9791C80.85 43.2708 86.1 48.4375 87.5 51.6666C81.2 57.1562 78.4 61.0312 77 71.0416C76.65 74.5937 73.85 76.5312 70 74.2708C59.15 68.1354 49 67.8125 42 67.8125C38.5 64.5833 40.25 55.8645 42 51.6666L63 54.8958L77 41.9791Z" fill="#424242"/>
<path d="M63 54.8958H14L52.5 32.2916H101.5L63 54.8958Z" fill="#616161"/>
<path d="M26.25 96.875C26.25 89.7709 23.8 83.9584 21 83.9584C18.2 83.9584 15.75 89.7709 15.75 96.875C15.75 103.979 18.2 109.792 21 109.792C23.8 109.792 26.25 103.979 26.25 96.875Z" fill="#424242"/>
</g>
<defs>
<filter id="filter0_d_233_44" x="-4" y="0" width="176" height="163" filterUnits="userSpaceOnUse" color-interpolation-filters="sRGB">
<feFlood flood-opacity="0" result="BackgroundImageFix"/>
<feColorMatrix in="SourceAlpha" type="matrix" values="0 0 0 0 0 0 0 0 0 0 0 0 0 0 0 0 0 0 127 0" result="hardAlpha"/>
<feOffset dy="4"/>
<feGaussianBlur stdDeviation="2"/>
<feComposite in2="hardAlpha" operator="out"/>
<feColorMatrix type="matrix" values="0 0 0 0 0 0 0 0 0 0 0 0 0 0 0 0 0 0 0.25 0"/>
<feBlend mode="normal" in2="BackgroundImageFix" result="effect1_dropShadow_233_44"/>
<feBlend mode="normal" in="SourceGraphic" in2="effect1_dropShadow_233_44" result="shape"/>
</filter>
</defs>
</svg>
