<svg width="258" height="210" viewBox="0 0 258 210" fill="none" xmlns="http://www.w3.org/2000/svg">
<g clip-path="url(#clip0_131_454)">
<path d="M156.396 63.7681C156.716 63.7838 157.032 63.6941 157.303 63.5112C157.573 63.3283 157.785 63.061 157.908 62.7456C158.031 62.4302 158.061 62.0818 157.993 61.7477C157.925 61.4136 157.762 61.11 157.527 60.8779C157.488 60.7108 157.46 60.5908 157.42 60.4236C157.435 60.3873 157.449 60.3509 157.463 60.3146C158.9 56.654 163.771 56.6793 165.196 60.3453C166.461 63.5991 168.071 66.8584 168.468 70.2987C168.642 71.8194 168.569 73.361 168.25 74.8548C171.22 67.9331 172.763 60.4101 172.773 52.7958C172.774 50.885 172.674 48.9758 172.475 47.0769C172.311 45.5202 172.083 43.9746 171.791 42.4401C170.199 34.114 166.78 26.3101 161.816 19.6692C159.414 18.2689 157.471 16.1156 156.249 13.4995C155.807 12.5591 155.494 11.5552 155.32 10.5191C155.591 10.557 156.342 6.14802 156.138 5.87751C156.516 5.26531 157.192 4.96098 157.604 4.36359C159.656 1.39253 162.482 1.91129 163.958 5.94873C167.11 7.64806 167.141 10.4663 165.206 13.1768C163.976 14.9012 163.807 17.2345 162.727 19.0807C162.838 19.2325 162.954 19.3797 163.065 19.5316C165.095 22.3205 166.865 25.3153 168.349 28.4729C167.929 24.9708 168.549 20.7516 169.605 18.0319C170.808 14.933 173.062 12.3231 175.047 9.64419C177.431 6.42636 182.32 7.83068 182.74 11.9098C182.744 11.9493 182.748 11.9888 182.752 12.0282C182.457 12.2059 182.169 12.3945 181.886 12.594C181.532 12.8471 181.257 13.2089 181.098 13.6318C180.939 14.0547 180.903 14.519 180.995 14.9639C181.088 15.4088 181.304 15.8136 181.615 16.1252C181.926 16.4368 182.318 16.6407 182.74 16.7101L182.783 16.7172C182.678 17.8522 182.493 18.9771 182.228 20.0821C184.774 30.6012 179.277 34.4325 171.427 34.6046C171.253 34.6995 171.085 34.7944 170.911 34.8846C172.402 39.3967 173.337 44.0965 173.693 48.8661C173.894 51.68 173.882 54.5067 173.657 57.3186L173.67 57.2189C174.239 54.0922 175.801 51.2709 178.091 49.2315C181.494 46.2463 186.3 45.1471 189.97 42.7476C191.737 41.5925 194.001 43.0851 193.693 45.2731C193.688 45.308 193.683 45.3429 193.678 45.3779C193.131 45.6159 192.598 45.8901 192.083 46.1989C191.788 46.3766 191.499 46.5652 191.217 46.7646C190.862 47.0178 190.587 47.3795 190.428 47.8024C190.269 48.2253 190.234 48.6896 190.326 49.1346C190.418 49.5795 190.634 49.9843 190.945 50.2959C191.257 50.6075 191.649 50.8113 192.071 50.8808L192.114 50.8879C192.145 50.8926 192.172 50.8974 192.203 50.9021C191.268 53.2864 189.956 55.481 188.324 57.3898C186.732 66.5726 179.893 67.4438 172.577 64.7697H172.573C171.77 68.4953 170.607 72.1217 169.103 75.5904H156.707C156.662 75.4433 156.622 75.2914 156.582 75.1443C157.73 75.2213 158.882 75.148 160.012 74.926C159.093 73.7205 158.173 72.5055 157.253 71.3001C157.233 71.2776 157.213 71.2538 157.195 71.2289C156.729 70.612 156.258 69.9997 155.791 69.3828L155.791 69.382C155.766 67.4908 155.969 65.6041 156.396 63.7683L156.396 63.7681Z" fill="#F2F2F2"/>
<path d="M196.197 29.8812C193.892 20.9048 212.482 13.2075 217.364 20.4361C218.043 19.4084 220.552 18.7842 221.703 19.0994C222.854 19.4147 223.822 20.2028 224.766 20.9658C226.065 22.0313 227.411 23.1347 228.208 24.6669C229.01 26.1927 229.134 28.2734 228.054 29.5975C227.198 30.6504 224.672 31.3314 223.385 31.6088C222.488 31.8042 221.732 31.9619 221.083 32.0754C220.493 31.1677 220.221 30.0672 220.316 28.9669C219.878 29.2818 219.512 29.6962 219.243 30.1802C218.973 30.6642 218.807 31.2059 218.757 31.7664C218.739 31.9997 226.012 60.5807 226.012 60.5807C225.138 61.1119 224.219 61.5531 223.267 61.8985C221.384 58.8241 219.941 55.4663 218.987 51.9364C218.768 54.2968 218.796 56.6759 219.07 59.0297C219.216 60.3496 219.425 61.6606 219.696 62.9577C211.054 64.9502 198.056 64.2945 192.401 55.8204C192.4 55.7853 192.399 55.7503 192.398 55.7151C192.394 55.3807 192.281 55.0582 192.078 54.803C191.876 54.5479 191.597 54.3758 191.288 54.3164C190.98 54.257 190.662 54.3138 190.389 54.4773C190.116 54.6407 189.904 54.9006 189.791 55.2123C189.653 55.5862 189.527 55.9098 189.414 56.1672C187.767 49.8746 189.898 42.5923 196.197 29.8812Z" fill="#2F2E41"/>
<path d="M181.491 180.372V180.666C181.48 180.569 181.48 180.47 181.491 180.372Z" fill="#2F2E41"/>
<path d="M189.954 129.572C190.174 129.509 190.397 129.462 190.623 129.433C190.364 129.479 190.141 129.525 189.954 129.572Z" fill="#2F2E41"/>
<path d="M189.758 129.626C189.817 129.608 189.884 129.59 189.954 129.572C189.888 129.591 189.825 129.604 189.758 129.626Z" fill="#2F2E41"/>
<path d="M252.282 209.786H220.606C220.154 209.401 219.84 208.862 219.717 208.258C219.593 207.655 219.668 207.025 219.928 206.473C220.793 204.353 219.097 202.416 219.097 202.416C218.522 201.696 218.122 200.835 217.932 199.909C217.743 198.984 217.77 198.023 218.012 197.112C218.851 193.981 215.562 185.144 215.562 185.144C215.562 185.144 213.789 196.555 211.617 209.786H181.491C180.987 208.868 180.72 207.823 180.72 206.758C180.72 205.693 180.987 204.648 181.491 203.73C183.247 200.55 181.491 199.94 181.491 199.94C181.491 199.94 179.736 196.382 181.491 193.799C183.247 191.215 181.491 180.666 181.491 180.666C181.557 181.133 182.058 180.285 182.828 178.507C184 175.802 185.791 170.937 187.601 165.289C188.896 161.259 190.2 156.824 191.29 152.488H191.293C191.579 151.348 191.85 150.22 192.105 149.101C192.606 146.908 193.034 144.777 193.36 142.775C194.066 138.465 194.299 134.762 193.757 132.353C193.307 130.349 192.322 129.244 190.624 129.434C191.534 129.272 192.868 129.12 194.511 128.976C194.807 128.95 195.114 128.925 195.432 128.896C207.689 127.907 233.988 127.339 233.988 127.339L242.044 142.747L252.245 162.265C252.245 162.265 251.967 188.448 252.282 209.786Z" fill="#2F2E41"/>
<path d="M218.472 60.7427L199.914 56.5377L196.229 64.4604L183.82 72.1342C183.82 72.1342 191.818 107.068 191.773 111.982C191.657 124.456 172.971 152.419 187.085 150.267C201.199 148.116 204.066 139.106 208.597 140.53C212.683 141.815 217.673 147.532 221.013 143.443C224.353 139.355 225.53 144.076 227.642 144.239C228.646 144.317 228.041 139.077 230.567 144.402C233.093 149.727 246.485 142.559 241.946 137.71C234.386 129.635 232.85 70.1096 232.85 70.1096L224.434 67.3437L218.472 60.7427Z" fill="#E6E6E6"/>
<path d="M183.469 187.608C184.214 186.658 184.584 185.435 184.498 184.199C184.412 182.963 183.878 181.811 183.01 180.989C182.831 180.825 182.64 180.677 182.438 180.547L185.541 164.28L178.367 159.694L176.372 182.468C175.931 183.404 175.792 184.47 175.977 185.499C176.162 186.528 176.661 187.463 177.396 188.157C177.818 188.548 178.307 188.847 178.837 189.035C179.367 189.224 179.926 189.299 180.483 189.257C181.04 189.215 181.583 189.056 182.083 188.79C182.582 188.523 183.028 188.154 183.393 187.704C183.419 187.672 183.444 187.64 183.469 187.608Z" fill="#A0616A"/>
<path d="M205.742 101.865C205.697 101.342 205.072 101.105 204.207 100.777C203.338 100.491 202.512 100.073 201.754 99.5361C199.838 98.0578 200.592 96.5117 201.635 94.3747C201.838 93.9592 202.05 93.5267 202.249 93.0773C202.839 91.7459 201.899 86.2538 199.452 76.7506C198.697 73.825 198.7 71.7587 198.179 70.3878C197.66 69.0169 196.62 68.3413 193.786 68.2C190.36 68.0153 187.006 69.2889 184.458 71.7418C184.389 71.8068 184.317 71.8775 184.249 71.9453C184.119 72.0753 183.992 72.2082 183.868 72.3439C181.511 74.8759 180.163 78.2831 180.105 81.8527L180.091 82.4604L179.506 111.496L177.863 136.975L175.598 172.073L177.276 172.161L183.971 172.517L184.783 172.56L186.71 163.927L189.028 153.539L189.88 149.723L192.524 137.885L193.757 132.353L194.511 128.976L194.818 127.596L196.316 120.891C196.35 120.75 199.796 106.23 203.768 103.802C205.25 102.897 205.784 102.371 205.742 101.865Z" fill="#E6E6E6"/>
<path d="M250.308 187.435C249.471 186.577 248.981 185.403 248.942 184.164C248.903 182.925 249.318 181.719 250.099 180.802C250.26 180.618 250.436 180.449 250.623 180.296L245.903 164.48L252.574 159.097L256.847 181.511C257.38 182.391 257.625 183.434 257.545 184.479C257.464 185.523 257.062 186.51 256.401 187.285C256.021 187.722 255.564 188.074 255.057 188.323C254.549 188.571 254.001 188.71 253.443 188.732C252.885 188.754 252.328 188.659 251.805 188.451C251.282 188.243 250.802 187.927 250.393 187.521C250.364 187.493 250.336 187.464 250.308 187.435Z" fill="#A0616A"/>
<path d="M253.572 153.115C253.572 153.115 248.369 133.562 249.955 131.445C251.542 129.329 246.856 128.915 248.875 124.973C250.895 121.031 248.108 120.372 248.108 120.372L246.595 111.308L243.891 89.0448L243.809 88.3827L243.023 81.9056C242.803 80.0556 242.236 78.272 241.356 76.6612C240.477 75.0505 239.302 73.6459 237.902 72.5312C237.831 72.4728 237.758 72.4166 237.685 72.3605C237.352 72.1045 237.012 71.8673 236.664 71.6489C234.069 70.0133 231.021 69.3949 228.045 69.9001C222.437 70.833 224.182 73.0668 223.272 79.0511C221.795 88.7815 221.411 94.3483 222.132 95.606C222.374 96.0296 222.63 96.4348 222.873 96.8238C224.125 98.8315 225.03 100.28 223.273 101.973C222.573 102.591 221.794 103.101 220.959 103.485C220.133 103.912 219.535 104.219 219.543 104.744C219.553 105.252 220.137 105.712 221.7 106.44C223.594 107.326 225.629 110.674 227.295 114.094C228.618 116.851 229.797 119.683 230.828 122.578L245.151 165.608L247.488 172.625L248.293 172.489L254.912 171.369L256.571 171.088L253.572 153.115Z" fill="#E6E6E6"/>
<path d="M210.642 56.2406C219.004 56.2406 225.783 48.9997 225.783 40.0677C225.783 31.1356 219.004 23.8948 210.642 23.8948C202.28 23.8948 195.501 31.1356 195.501 40.0677C195.501 48.9997 202.28 56.2406 210.642 56.2406Z" fill="#A0616A"/>
<path d="M187.933 31.1422C185.628 22.1658 204.218 14.4684 209.1 21.6971C209.779 20.6694 212.288 20.0452 213.439 20.3604C214.59 20.6757 215.558 21.4638 216.502 22.2268C217.801 23.2923 219.147 24.3957 219.944 25.9278C220.746 27.4537 220.87 29.5344 219.79 30.8584C218.934 31.9114 216.408 32.5923 215.121 32.8698C214.224 33.0652 213.468 33.2229 212.819 33.3363C212.229 32.4287 211.958 31.3282 212.052 30.2279C211.615 30.5428 211.248 30.9571 210.979 31.4412C210.709 31.9252 210.544 32.4669 210.493 33.0274C210.476 33.2607 217.748 61.8417 217.748 61.8417C216.874 62.3729 215.955 62.8141 215.003 63.1595C213.12 60.0851 211.677 56.7273 210.723 53.1974C210.504 55.5578 210.532 57.9369 210.806 60.2907C210.952 61.6105 211.161 62.9216 211.432 64.2187C202.79 66.2112 189.792 65.5554 184.137 57.0814C184.136 57.0463 184.135 57.0112 184.134 56.9761C184.13 56.6416 184.017 56.3192 183.814 56.064C183.612 55.8089 183.333 55.6368 183.024 55.5774C182.716 55.518 182.398 55.5749 182.125 55.7383C181.852 55.9017 181.64 56.1616 181.527 56.4733C181.389 56.8472 181.263 57.1708 181.15 57.4282C179.504 51.1356 181.634 43.8532 187.933 31.1422Z" fill="#2F2E41"/>
<path d="M112.843 87.0266C112.523 87.0423 112.206 86.9526 111.936 86.7697C111.666 86.5868 111.454 86.3196 111.331 86.0041C111.207 85.6887 111.178 85.3403 111.246 85.0062C111.314 84.6722 111.476 84.3685 111.711 84.1364C111.751 83.9693 111.779 83.8493 111.818 83.6822C111.804 83.6458 111.79 83.6094 111.776 83.5731C110.339 79.9125 105.468 79.9378 104.043 83.6038C102.778 86.8576 101.168 90.1169 100.771 93.5573C100.597 95.078 100.67 96.6195 100.989 98.1133C98.0183 91.1916 96.4757 83.6686 96.4658 76.0543C96.4652 74.1436 96.5646 72.2343 96.7635 70.3355C96.9279 68.7788 97.156 67.2332 97.4478 65.6987C99.0399 57.3726 102.458 49.5686 107.423 42.9277C109.825 41.5275 111.768 39.3742 112.99 36.7581C113.432 35.8176 113.745 34.8137 113.918 33.7776C113.647 33.8156 112.896 29.4066 113.101 29.1361C112.723 28.5239 112.047 28.2195 111.635 27.6221C109.583 24.6511 106.756 25.1698 105.281 29.2073C102.129 30.9066 102.098 33.7248 104.032 36.4353C105.263 38.1597 105.432 40.4931 106.512 42.3392C106.401 42.4911 106.285 42.6382 106.174 42.7901C104.143 45.579 102.374 48.5738 100.89 51.7315C101.31 48.2293 100.69 44.0101 99.6337 41.2904C98.4312 38.1915 96.1771 35.5817 94.1921 32.9027C91.8078 29.6849 86.9186 31.0892 86.4985 35.1683C86.4944 35.2078 86.4905 35.2473 86.4866 35.2868C86.7814 35.4644 87.07 35.653 87.3524 35.8525C87.7072 36.1057 87.982 36.4674 88.141 36.8903C88.3 37.3132 88.3357 37.7775 88.2434 38.2225C88.1512 38.6674 87.9352 39.0722 87.6239 39.3838C87.3125 39.6953 86.9203 39.8992 86.4987 39.9686L86.4555 39.9758C86.5605 41.1108 86.7462 42.2357 87.0109 43.3406C84.4644 53.8598 89.9621 57.6911 97.8121 57.8632C97.9853 57.9581 98.1542 58.053 98.3275 58.1432C96.8369 62.6552 95.902 67.3551 95.5461 72.1247C95.3446 74.9386 95.3565 77.7653 95.5816 80.5771L95.5683 80.4775C94.9996 77.3507 93.438 74.5295 91.1474 72.4901C87.7453 69.5049 82.9387 68.4056 79.2684 66.0061C77.5017 64.851 75.2377 66.3437 75.546 68.5316C75.5509 68.5666 75.5559 68.6015 75.561 68.6364C76.1081 68.8744 76.6409 69.1486 77.1561 69.4574C77.4509 69.6351 77.7395 69.8237 78.0219 70.0232C78.3766 70.2763 78.6515 70.6381 78.8105 71.061C78.9695 71.4839 79.0052 71.9482 78.9129 72.3931C78.8206 72.838 78.6047 73.2428 78.2933 73.5544C77.982 73.866 77.5898 74.0699 77.1682 74.1393L77.1249 74.1464C77.0939 74.1512 77.0672 74.1559 77.0361 74.1607C77.971 76.545 79.2831 78.7395 80.9149 80.6483C82.5072 89.8311 89.3459 90.7024 96.6613 88.0282H96.6658C97.4684 91.7538 98.6313 95.3802 100.136 98.8489H112.532C112.577 98.7018 112.616 98.5499 112.656 98.4028C111.509 98.4799 110.357 98.4066 109.226 98.1845C110.146 96.9791 111.066 95.7641 111.986 94.5586C112.006 94.5361 112.025 94.5123 112.043 94.4874C112.51 93.8705 112.981 93.2583 113.447 92.6413L113.448 92.6405C113.472 90.7494 113.269 88.8626 112.843 87.0269L112.843 87.0266Z" fill="#F2F2F2"/>
<path d="M55.0009 20.4364C54.7195 21.1367 46.0445 21.0617 45.6472 21.6853C42.5838 26.4998 53.6266 46.9845 50.5632 51.8053L50.1365 52.3486C51.1359 51.8566 52.0959 51.2781 53.0069 50.6188C53.0887 48.6456 53.1706 46.666 53.2583 44.6928C54.1758 45.9466 54.9164 47.3372 55.4564 48.8204C56.1696 48.2834 56.7547 47.2878 59.8117 45.3297C61.0494 43.8775 62.4761 42.623 64.0482 41.6047L55.0009 20.4364Z" fill="#2F2E41"/>
<path d="M61.3003 59.8942C60.343 59.2281 59.2508 58.8154 58.1143 58.6905C56.9778 58.5655 55.8297 58.7319 54.7655 59.1757C53.7012 59.6196 52.7514 60.3282 51.9948 61.2426C51.2382 62.1571 50.6967 63.2511 50.4152 64.4339L37.2322 101.124L14.5721 87.383C14.4726 85.8035 13.9074 84.2982 12.9575 83.0831C12.0076 81.8679 10.7218 81.0054 9.28452 80.619C7.84727 80.2327 6.3324 80.3425 4.95718 80.9327C3.58196 81.5228 2.41704 82.563 1.62951 83.9041C0.841968 85.2452 0.47227 86.8182 0.573436 88.3976C0.674602 89.9769 1.24144 91.4815 2.19264 92.6955C3.14384 93.9095 4.43053 94.7705 5.86819 95.1551C7.30585 95.5397 8.8206 95.4281 10.1952 94.8363C14.9672 100.277 35.6557 122.581 44.2205 113.866C51.4197 106.541 61.809 78.1502 64.3099 68.3463C64.7105 66.7786 64.635 65.1155 64.0941 63.5966C63.5533 62.0777 62.5751 60.7813 61.3003 59.8942Z" fill="#FFB6B6"/>
<path d="M36.5463 115.404L40.7064 135.489L71.1269 138.428L73.9226 120.939L36.5463 115.404Z" fill="#FFB6B6"/>
<path d="M83.014 166.909C83.0001 167.197 82.9835 167.482 82.964 167.77C82.6722 171.931 82.3387 176.731 81.9775 181.991C81.4078 190.338 80.7714 199.843 80.1295 209.786H16.3224L28.6971 170.057C28.6971 170.057 33.6937 167.118 31.1499 162.182C28.606 157.245 33.6114 161.179 33.658 154.129C33.7045 147.08 38.1898 139.58 38.1898 139.58L38.9263 128.905L39.3459 128.914L72.5514 129.505L73.1572 129.517L74.177 138.68C80.3694 146.551 83.5285 156.642 83.014 166.909Z" fill="#2F2E41"/>
<path d="M55.5327 50.1604L70.6744 49.3273L77.7073 61.1975C77.7073 61.1975 90.9399 63.5606 90.0227 80.2164C89.1055 96.8721 73.9226 111.488 73.9226 111.488L74.5716 109.111L73.4444 112.551L73.5889 114.483L75.1267 116.529L75.285 118.644L73.9226 121.992C74.0997 122.295 74.1937 122.645 74.194 123.003C74.1942 123.36 74.1006 123.711 73.9238 124.014C73.747 124.318 73.4941 124.563 73.1938 124.72C72.8935 124.878 72.5577 124.943 72.2247 124.907L50.3461 122.565C49.848 121.102 49.4483 119.35 47.4517 122.266L45.3907 122.052L36.8231 121.166L36.3188 119.204C36.0322 118.089 35.9876 116.919 36.1882 115.782C36.3888 114.646 36.8295 113.574 37.4765 112.647C36.7323 110.158 36.9273 107.457 38.0198 105.119L38.0608 105.031L38.9706 104.221C38.9706 104.221 29.0167 88.2477 40.4435 76.2166L45.0296 67.8887L50.1612 61.2013L55.5327 50.1604Z" fill="#3FBF77"/>
<path d="M59.3012 43.1535C67.2311 43.1535 73.6597 36.2868 73.6597 27.8164C73.6597 19.3459 67.2311 12.4792 59.3012 12.4792C51.3712 12.4792 44.9426 19.3459 44.9426 27.8164C44.9426 36.2868 51.3712 43.1535 59.3012 43.1535Z" fill="#FFB6B6"/>
<path d="M70.2066 49.9106C69.0374 48.867 68.2235 47.4401 67.8916 45.8517C67.626 47.7803 67.6954 49.7447 68.0962 51.6465C67.3186 52.271 66.5645 52.8642 65.8513 53.4013C65.3113 51.9181 64.5707 50.5274 63.6531 49.2736C63.5655 51.2469 63.4836 53.2264 63.4018 55.1997C62.4907 55.859 61.5307 56.4375 60.5313 56.9294L60.9581 56.3862C64.0214 51.5654 56.0942 42.6919 59.1575 37.8774C60.0169 36.5285 56.1351 25.8692 53.177 25.3883C50.5462 24.9637 50.6573 25.7755 48.1084 26.3687C47.8437 25.1896 47.4328 24.0534 46.8866 22.9904C47.032 24.1749 46.9984 25.3767 46.7872 26.5498C45.8811 26.5873 45.1681 25.9706 44.2032 25.813C38.0473 24.8076 38.6728 17.6951 40.3857 15.4408C42.1045 13.1928 47.8103 12.5184 50.441 11.7878C50.6807 11.538 51.2244 11.6941 51.4641 11.4568C56.5057 6.52832 63.2486 5.71212 69.3166 7.89654C75.7877 10.2261 79.8222 14.7347 81.8929 21.6854L82.4868 27.2476C83.0196 29.0361 82.3494 37.3576 81.8929 39.17C80.1186 46.2151 76.3399 42.6982 70.2066 49.9106Z" fill="#2F2E41"/>
<path d="M91.1425 122.574L90.5773 75.5482C90.5478 73.556 89.7862 71.656 88.4568 70.2583C87.1274 68.8605 85.3368 68.0771 83.4715 68.0771H83.4715C82.5065 68.0771 81.5516 68.2871 80.665 68.6941C79.7785 69.1012 78.9788 69.6968 78.3148 70.4448C77.6508 71.1927 77.1363 72.0772 76.8028 73.0445C76.4692 74.0117 76.3236 75.0414 76.3748 76.0707L78.3639 124.9L78.4017 154.624C77.2293 155.155 76.2384 156.059 75.5636 157.213C74.8888 158.366 74.5628 159.714 74.63 161.072C74.6971 162.43 75.154 163.734 75.9388 164.805C76.7235 165.876 77.798 166.663 79.0161 167.06C80.2343 167.456 81.5372 167.442 82.7477 167.02C83.9583 166.598 85.0178 165.788 85.7824 164.7C86.5469 163.612 86.9795 162.299 87.0212 160.94C87.0629 159.58 86.7118 158.24 86.0156 157.101L91.1425 122.574Z" fill="#FFB6B6"/>
<path d="M165.248 183.414C165.248 183.414 164.374 200.209 163.973 209.788H133.875C133.255 201.071 133.047 194.666 133.047 194.666L131.4 209.788H100.977L99.0908 181.783L108.205 157.649C108.205 157.649 157.6 153.99 162.182 158.632C166.76 163.271 165.248 183.414 165.248 183.414Z" fill="#2F2E41"/>
<path d="M138.633 42.1307C147.713 42.1307 155.073 34.2685 155.073 24.5699C155.073 14.8714 147.713 7.00916 138.633 7.00916C129.553 7.00916 122.193 14.8714 122.193 24.5699C122.193 34.2685 129.553 42.1307 138.633 42.1307Z" fill="#FFB6B6"/>
<path d="M157.796 18.8638C156.107 19.6863 155.013 25.643 153.686 24.2582C152.359 22.8733 152.447 21.0712 150.658 20.5602C149.213 20.1457 147.658 20.6194 146.34 21.3665C146.104 21.4983 145.876 21.6416 145.654 21.7841C145.507 21.6794 145.361 21.5808 145.204 21.4899C144.025 20.8159 142.649 20.6506 141.359 21.0279C142.378 21.3925 143.264 22.0901 143.892 23.022C143.451 23.3378 143.004 23.6544 142.547 23.9349C138.729 26.2885 133.296 21.1706 129.277 19.248C131.794 24.2941 130.554 26.3839 128.369 31.6027L128.293 31.8998C128.417 30.5919 124.628 29.6171 124.848 31.4583C125.004 32.7656 126.063 35.6713 126.656 36.8256C122.431 31.6066 119.543 25.22 120.152 18.6317C120.285 17.2477 120.245 15.7874 120.913 14.5862C121.582 13.3911 122.977 12.5525 124.211 13.0082C124.106 10.9071 124.537 8.81506 125.456 6.95441C126.376 5.09375 127.751 3.53407 129.434 2.44118C131.117 1.34828 133.046 0.763026 135.016 0.747626C136.986 0.732227 138.922 1.28726 140.621 2.35372C142.198 3.34265 143.516 4.74132 144.962 5.94778C146.408 7.15423 148.075 8.20585 149.909 8.30545C151.072 8.36538 152.338 8.06202 153.337 8.70558C154.495 9.45234 154.693 11.0158 154.867 12.5203C153.834 12.629 152.855 13.0641 152.056 13.77C153.124 13.6536 154.199 13.9 155.129 14.4742C155.147 14.4827 155.164 14.493 155.18 14.5048C155.792 16.9911 155.729 17.5423 157.796 18.8638Z" fill="#2F2E41"/>
<path d="M101.05 166.145C115.05 148.641 110.321 126.376 104.765 103.902L105.822 70.7C105.874 69.0713 106.292 67.4799 107.041 66.0601C107.789 64.6403 108.847 63.4338 110.124 62.5425L124.417 52.5689L129.98 43.9777L145.314 45.6156L153.817 55.221L163.229 62.8963C165.593 64.8234 167.391 67.4321 168.412 70.4148C169.433 73.3975 169.635 76.6299 168.993 79.7308L159.985 123.241C159.985 123.241 163.753 145.797 161.454 148.288C159.155 150.779 153.232 148.289 157.929 151.085C163.566 154.441 168.691 153.822 165.839 156.869C162.986 159.916 166.596 164.152 166.596 164.152L101.05 166.145Z" fill="#3FBF77"/>
<path d="M107.036 191.585L109.37 173.824L100.057 170.984L98.2144 189.856C97.4437 190.611 96.8854 191.581 96.6022 192.656C96.3191 193.731 96.3223 194.87 96.6116 195.943C96.9009 197.016 97.4647 197.982 98.2398 198.732C99.0148 199.482 99.9703 199.986 100.999 200.187C102.027 200.389 103.088 200.28 104.062 199.873C105.036 199.466 105.884 198.777 106.511 197.883C107.138 196.989 107.52 195.927 107.612 194.814C107.705 193.701 107.505 192.583 107.036 191.585Z" fill="#FFB6B6"/>
<path d="M124.766 55.7708C124.766 55.7708 98.2571 64.9866 97.625 71.7298C96.9929 78.4729 97.2025 82.6009 94.4047 109.584L94.5521 182.269C94.5521 182.269 112.325 186.334 110.502 181.988C108.679 177.643 109.315 175.598 109.315 175.598C109.315 175.598 113.126 173.992 112.172 168.889C111.218 163.787 116.002 138.5 116.002 138.5L119.021 93.1495L124.766 55.7708Z" fill="#3FBF77"/>
<path d="M157.453 190.645L156.211 172.758L165.678 170.574L166.361 189.535C167.084 190.342 167.582 191.349 167.798 192.442C168.015 193.534 167.942 194.67 167.588 195.721C167.233 196.772 166.612 197.696 165.792 198.39C164.973 199.084 163.989 199.521 162.95 199.65C161.912 199.779 160.86 199.597 159.913 199.122C158.966 198.648 158.162 197.901 157.591 196.966C157.02 196.03 156.704 194.943 156.68 193.826C156.655 192.71 156.923 191.608 157.453 190.645H157.453Z" fill="#FFB6B6"/>
<path d="M148.071 53.8826C148.071 53.8826 173.96 64.9296 174.178 71.7025C174.396 78.4753 173.934 82.5798 175.075 109.701L170.48 182.22C170.48 182.22 152.496 185.035 154.581 180.826C156.666 176.617 156.156 174.532 156.156 174.532C156.156 174.532 152.452 172.663 153.716 167.638C154.98 162.613 151.754 137.047 151.754 137.047L151.517 91.5825L148.071 53.8826Z" fill="#3FBF77"/>
<path d="M156.621 74.7877C156.107 74.7883 155.614 74.9634 155.251 75.2745C154.888 75.5856 154.684 76.0073 154.684 76.4467C154.685 76.8862 154.889 77.3075 155.253 77.618C155.617 77.9285 156.111 78.1029 156.625 78.1026C157.14 78.1024 157.633 77.9277 157.996 77.6169C158.36 77.306 158.564 76.8846 158.564 76.4451V76.442C158.563 76.0025 158.358 75.5814 157.994 75.2712C157.629 74.961 157.136 74.7871 156.621 74.7877ZM150.222 78.6162C149.881 78.6179 149.534 78.634 149.209 78.7041C148.995 78.7504 148.787 78.8267 148.653 78.9453C148.484 79.094 148.462 79.2955 148.545 79.4676C148.618 79.6193 148.816 79.7331 149.037 79.7981C149.512 79.9371 150.04 79.9666 150.539 80.0541C150.631 80.0734 150.733 80.0946 150.79 80.1483C150.849 80.2121 150.814 80.3002 150.717 80.3403C150.555 80.4107 150.348 80.4113 150.159 80.4089C149.986 80.4028 149.797 80.3904 149.66 80.3166C149.559 80.2635 149.541 80.1732 149.564 80.0956L148.451 80.0957C148.448 80.2405 148.481 80.3916 148.605 80.5159C148.708 80.622 148.876 80.6968 149.056 80.7419C149.344 80.8142 149.656 80.836 149.963 80.8426C150.38 80.8487 150.805 80.8381 151.205 80.7573C151.444 80.7077 151.678 80.6274 151.831 80.4971C152.102 80.2645 152.038 79.8961 151.678 79.7152C151.498 79.6259 151.283 79.5705 151.064 79.5348C150.743 79.478 150.417 79.4364 150.092 79.3906C149.978 79.3716 149.857 79.3549 149.761 79.3088C149.661 79.2627 149.653 79.1543 149.755 79.1069C149.887 79.0432 150.063 79.0437 150.222 79.0435C150.389 79.046 150.57 79.0549 150.707 79.1217C150.784 79.1585 150.815 79.2202 150.816 79.2795L151.874 79.2774C151.87 79.1628 151.845 79.0438 151.747 78.9449C151.633 78.8231 151.433 78.7464 151.228 78.7016C150.905 78.6318 150.56 78.6175 150.222 78.6162L150.222 78.6162ZM152.517 78.6846L152.516 80.8443L155.602 80.8444L155.601 80.3735H153.648V79.9543H155.39V79.494H153.648L153.648 79.1502L155.531 79.1498L155.53 78.6846L152.517 78.6846ZM157.6 78.6853C157.6 78.6853 156.647 78.6856 156.17 78.6856L156.17 80.8455L157.253 80.8455L157.252 79.3921L158.736 80.8444L160.223 80.8455L160.222 78.6856L159.138 78.6857L159.14 80.1288L157.6 78.6853ZM162.154 78.6889C162.154 78.6889 160.986 80.1298 160.4 80.8491L161.537 80.8491L161.809 80.4595H163.566L163.821 80.8493L165.084 80.8491L163.41 78.6893L162.154 78.6889ZM162.722 79.2045L163.261 79.9869L162.147 79.9882L162.722 79.2045ZM147.56 81.4552L147.57 82.631L152.712 82.6153C152.974 82.6636 153.127 82.8094 153.073 83.141L149.91 87.8714L150.94 88.6943L155.839 81.4552L147.56 81.4552ZM157.373 81.4653L162.19 88.6737L163.255 87.856L160.055 83.138C160.002 82.8054 160.154 82.6578 160.416 82.6095L165.56 82.6251L165.558 81.4689L157.373 81.4653ZM156.56 82.6581L152.042 89.2832L153.242 89.7829L156.257 85.4298C156.361 85.3572 156.466 85.3186 156.571 85.315C156.682 85.3113 156.794 85.3464 156.907 85.4214L159.914 89.7877L161.152 89.2361L156.56 82.6581Z" fill="white"/>
<g clip-path="url(#clip1_131_454)">
<path d="M227.104 80.8923C226.738 80.8928 226.387 81.0187 226.128 81.2425C225.869 81.4663 225.724 81.7697 225.725 82.0858C225.725 82.4019 225.871 82.705 226.13 82.9284C226.389 83.1518 226.74 83.2772 227.106 83.277C227.473 83.2769 227.824 83.1512 228.082 82.9276C228.341 82.704 228.487 82.4008 228.487 82.0846V82.0824C228.486 81.7662 228.34 81.4633 228.081 81.2401C227.821 81.017 227.47 80.8919 227.104 80.8923ZM222.548 83.6464C222.305 83.6477 222.059 83.6593 221.827 83.7097C221.675 83.743 221.527 83.7979 221.431 83.8832C221.311 83.9902 221.296 84.1352 221.354 84.259C221.407 84.3681 221.548 84.4499 221.705 84.4967C222.043 84.5967 222.419 84.6179 222.774 84.6809C222.84 84.6947 222.912 84.71 222.953 84.7486C222.995 84.7946 222.97 84.8579 222.901 84.8868C222.785 84.9374 222.638 84.9378 222.503 84.9361C222.381 84.9317 222.246 84.9228 222.148 84.8697C222.076 84.8315 222.064 84.7666 222.08 84.7108L221.287 84.7108C221.285 84.815 221.309 84.9237 221.397 85.0131C221.471 85.0894 221.59 85.1432 221.719 85.1757C221.924 85.2277 222.146 85.2434 222.364 85.2481C222.661 85.2525 222.963 85.2449 223.248 85.1867C223.418 85.1511 223.585 85.0933 223.694 84.9995C223.887 84.8322 223.841 84.5672 223.585 84.4371C223.457 84.3729 223.304 84.333 223.148 84.3073C222.919 84.2664 222.687 84.2365 222.456 84.2036C222.374 84.1899 222.289 84.1779 222.22 84.1447C222.149 84.1116 222.143 84.0336 222.216 83.9995C222.31 83.9537 222.435 83.954 222.548 83.9539C222.667 83.9556 222.796 83.9621 222.894 84.0102C222.949 84.0366 222.97 84.081 222.971 84.1236L223.724 84.1221C223.721 84.0397 223.704 83.954 223.634 83.8829C223.553 83.7954 223.411 83.7402 223.264 83.7079C223.034 83.6577 222.789 83.6474 222.548 83.6464L222.548 83.6464ZM224.182 83.6957L224.182 85.2493L226.378 85.2494L226.378 84.9107H224.987V84.6091H226.227V84.278H224.987L224.987 84.0306L226.327 84.0303L226.327 83.6957L224.182 83.6957ZM227.8 83.6962C227.8 83.6962 227.122 83.6964 226.782 83.6964L226.782 85.2502L227.553 85.2502L227.553 84.2046L228.609 85.2494L229.667 85.2502L229.667 83.6964L228.895 83.6965L228.896 84.7346L227.8 83.6962ZM231.042 83.6988C231.042 83.6988 230.211 84.7353 229.793 85.2528L230.603 85.2528L230.797 84.9725H232.047L232.228 85.2529L233.127 85.2528L231.936 83.699L231.042 83.6988ZM231.446 84.0697L231.83 84.6325L231.037 84.6335L231.446 84.0697ZM220.653 85.6888L220.66 86.5346L224.321 86.5234C224.508 86.5581 224.616 86.663 224.578 86.9015L222.326 90.3045L223.06 90.8965L226.547 85.6888L220.653 85.6888ZM227.639 85.696L231.068 90.8816L231.826 90.2934L229.548 86.8994C229.51 86.6601 229.618 86.554 229.805 86.5192L233.466 86.5304L233.465 85.6986L227.639 85.696ZM227.06 86.5542L223.844 91.3201L224.698 91.6796L226.844 88.5481C226.918 88.4959 226.993 88.468 227.068 88.4654C227.147 88.4628 227.227 88.488 227.307 88.542L229.448 91.6831L230.329 91.2862L227.06 86.5542Z" fill="black"/>
</g>
<rect x="-8.94019" y="-8.71228" width="274" height="294" stroke="black"/>
</g>
<defs>
<clipPath id="clip0_131_454">
<rect width="257" height="209" fill="white" transform="translate(0.559814 0.78772)"/>
</clipPath>
<clipPath id="clip1_131_454">
<rect width="13" height="11" fill="white" transform="translate(220.56 80.7877)"/>
</clipPath>
</defs>
</svg>
