<svg width="742" height="476" viewBox="0 0 742 476" fill="none" xmlns="http://www.w3.org/2000/svg">
<g clip-path="url(#clip0_273_3)">
<path d="M440.286 14.6029C493.702 -14.4735 561.498 0.769751 597.442 52.3262L596.219 53.2093C560.719 2.28927 493.752 -12.7621 440.993 15.949C436.51 18.3888 432.184 21.1135 428.038 24.1069C373.784 63.2548 360.951 140.008 399.432 195.203L398.208 196.086C359.249 140.205 372.241 62.4964 427.17 22.8622C431.368 19.8322 435.748 17.0737 440.286 14.6029Z" fill="#E6E6E6"/>
<path d="M723.264 138.886L547.573 124.981C544.845 124.762 542.315 123.452 540.536 121.337C538.758 119.222 537.876 116.476 538.085 113.701L545.702 26.8589C545.917 24.0844 547.205 21.51 549.284 19.7005C551.363 17.8911 554.062 16.9943 556.79 17.207L732.481 31.1121C735.209 31.3311 737.739 32.6417 739.518 34.7565C741.296 36.8712 742.178 39.6173 741.969 42.3924L734.352 129.234C734.137 132.009 732.849 134.583 730.77 136.393C728.691 138.202 725.992 139.099 723.264 138.886Z" fill="#E6E6E6"/>
<path d="M681.763 119.267C680.43 119.267 679.091 119.214 677.748 119.108L564.205 110.122C561.935 109.942 559.721 109.31 557.691 108.26C555.662 107.21 553.855 105.764 552.374 104.003C550.894 102.243 549.769 100.204 549.063 98.001C548.357 95.7984 548.085 93.476 548.262 91.1664L550.851 57.3073C551.213 52.6446 553.378 48.3182 556.871 45.2774C560.364 42.2366 564.9 40.7296 569.484 41.0871L716.309 52.7075C720.892 53.0757 725.145 55.2782 728.134 58.8318C731.122 62.3855 732.604 67.0001 732.253 71.6635C731.262 84.6032 725.516 96.6883 716.159 105.511C706.802 114.333 694.521 119.245 681.763 119.267V119.267Z" fill="white"/>
<path d="M712.796 79.6244L568.863 68.2329C568.563 68.2091 568.271 68.1256 568.003 67.9869C567.735 67.8482 567.496 67.6572 567.301 67.4247C567.105 67.1922 566.956 66.9228 566.863 66.6319C566.77 66.341 566.734 66.0342 566.757 65.7291C566.781 65.4241 566.863 65.1267 566.999 64.8539C567.135 64.5812 567.323 64.3384 567.552 64.1395C567.78 63.9405 568.045 63.7893 568.331 63.6945C568.617 63.5997 568.919 63.5631 569.218 63.5869L713.152 74.9784C713.451 75.0021 713.744 75.0857 714.012 75.2244C714.28 75.363 714.519 75.5541 714.714 75.7866C714.91 76.0191 715.058 76.2885 715.152 76.5794C715.245 76.8703 715.281 77.1771 715.257 77.4821C715.234 77.7872 715.152 78.0846 715.016 78.3573C714.879 78.6301 714.691 78.8729 714.463 79.0718C714.234 79.2707 713.97 79.4219 713.684 79.5167C713.398 79.6116 713.096 79.6481 712.796 79.6244Z" fill="#E6E6E6"/>
<path d="M653.031 84.1293L568.161 77.4123C567.556 77.364 566.994 77.0732 566.599 76.6037C566.205 76.1342 566.01 75.5245 566.057 74.9086C566.104 74.2927 566.389 73.721 566.851 73.3193C567.312 72.9175 567.911 72.7185 568.516 72.7661L653.387 79.4831C653.687 79.5067 653.979 79.5902 654.248 79.7288C654.516 79.8674 654.755 80.0584 654.95 80.2909C655.146 80.5235 655.295 80.7929 655.388 81.084C655.481 81.375 655.517 81.6819 655.494 81.9871C655.471 82.2923 655.388 82.5898 655.252 82.8627C655.116 83.1355 654.928 83.3784 654.699 83.5773C654.47 83.7762 654.205 83.9274 653.919 84.0221C653.633 84.1169 653.331 84.1533 653.031 84.1294V84.1293Z" fill="#E6E6E6"/>
<path d="M671.727 94.8439L567.459 86.5916C567.159 86.5681 566.867 86.4846 566.598 86.346C566.33 86.2074 566.091 86.0163 565.896 85.7838C565.7 85.5513 565.551 85.2818 565.458 84.9908C565.365 84.6997 565.329 84.3929 565.352 84.0877C565.375 83.7825 565.458 83.4849 565.594 83.2121C565.73 82.9392 565.918 82.6964 566.147 82.4974C566.376 82.2985 566.641 82.1473 566.927 82.0526C567.213 81.9579 567.515 81.9214 567.815 81.9454L672.082 90.1976C672.688 90.2459 673.25 90.5368 673.644 91.0063C674.039 91.4758 674.234 92.0855 674.187 92.7013C674.14 93.3172 673.854 93.8889 673.393 94.2907C672.932 94.6924 672.333 94.8914 671.727 94.8439Z" fill="#E6E6E6"/>
<path d="M711.507 256.773L535.816 242.868C533.089 242.649 530.558 241.338 528.78 239.224C527.001 237.109 526.12 234.363 526.329 231.588L533.945 144.746C534.16 141.971 535.449 139.397 537.527 137.587C539.606 135.778 542.305 134.881 545.033 135.094L720.725 148.999C723.452 149.218 725.982 150.529 727.761 152.643C729.54 154.758 730.421 157.504 730.212 160.279L722.596 247.121C722.38 249.896 721.092 252.47 719.013 254.28C716.935 256.089 714.235 256.986 711.507 256.773Z" fill="#E6E6E6"/>
<path d="M669.962 237.152C668.647 237.152 667.324 237.1 665.992 236.995L552.448 228.009C550.178 227.829 547.965 227.196 545.935 226.147C543.905 225.097 542.098 223.651 540.618 221.89C539.137 220.13 538.012 218.09 537.306 215.888C536.601 213.685 536.328 211.363 536.505 209.053L539.094 175.194C539.271 172.885 539.893 170.633 540.925 168.568C541.957 166.503 543.379 164.664 545.109 163.158C546.839 161.652 548.844 160.507 551.009 159.789C553.175 159.072 555.458 158.795 557.728 158.974L704.553 170.595C706.823 170.774 709.036 171.407 711.066 172.457C713.096 173.507 714.903 174.953 716.383 176.713C717.864 178.474 718.989 180.513 719.695 182.716C720.4 184.919 720.672 187.241 720.496 189.551C719.49 202.492 713.733 214.575 704.37 223.395C695.006 232.215 682.723 237.127 669.962 237.152Z" fill="white"/>
<path d="M701.04 197.511L557.106 186.12C556.807 186.096 556.514 186.013 556.246 185.874C555.978 185.735 555.739 185.544 555.544 185.312C555.348 185.079 555.2 184.81 555.107 184.519C555.013 184.228 554.977 183.921 555.001 183.616C555.024 183.311 555.106 183.014 555.242 182.741C555.379 182.468 555.567 182.225 555.795 182.026C556.024 181.827 556.288 181.676 556.574 181.581C556.86 181.487 557.162 181.45 557.462 181.474L701.395 192.865C701.695 192.889 701.987 192.973 702.255 193.111C702.523 193.25 702.762 193.441 702.957 193.674C703.153 193.906 703.302 194.175 703.395 194.466C703.488 194.757 703.524 195.064 703.501 195.369C703.477 195.674 703.395 195.972 703.259 196.244C703.123 196.517 702.935 196.76 702.706 196.959C702.478 197.158 702.213 197.309 701.927 197.404C701.641 197.499 701.339 197.535 701.04 197.511Z" fill="#E6E6E6"/>
<path d="M641.275 202.016L556.405 195.299C556.105 195.276 555.812 195.192 555.544 195.054C555.275 194.915 555.037 194.724 554.841 194.491C554.645 194.259 554.497 193.989 554.403 193.698C554.31 193.407 554.274 193.1 554.297 192.795C554.321 192.49 554.403 192.192 554.539 191.92C554.676 191.647 554.864 191.404 555.092 191.205C555.321 191.006 555.586 190.855 555.872 190.76C556.158 190.665 556.46 190.629 556.76 190.653L641.63 197.37C642.235 197.418 642.797 197.709 643.192 198.179C643.587 198.648 643.782 199.258 643.735 199.874C643.688 200.49 643.402 201.061 642.941 201.463C642.479 201.865 641.88 202.064 641.275 202.016Z" fill="#E6E6E6"/>
<path d="M659.971 212.731L555.703 204.479C555.097 204.431 554.535 204.14 554.14 203.67C553.745 203.201 553.55 202.591 553.597 201.975C553.644 201.359 553.93 200.787 554.391 200.385C554.853 199.983 555.452 199.784 556.058 199.832L660.326 208.085C660.931 208.133 661.494 208.423 661.888 208.893C662.283 209.362 662.479 209.972 662.432 210.588C662.385 211.205 662.099 211.776 661.637 212.178C661.176 212.58 660.576 212.779 659.971 212.731Z" fill="#E6E6E6"/>
<path d="M264.599 211.4C262.369 206.259 261.156 200.721 261.029 195.102C260.903 189.484 261.866 183.895 263.863 178.655C265.859 173.415 268.851 168.627 272.667 164.563C276.482 160.499 281.048 157.24 286.102 154.971C291.156 152.702 296.599 151.469 302.122 151.34C307.645 151.212 313.138 152.191 318.289 154.222C323.439 156.254 328.146 159.297 332.141 163.179C336.135 167.061 339.339 171.705 341.569 176.847L340.196 177.463C338.046 172.505 334.956 168.026 331.104 164.283C327.252 160.539 322.713 157.604 317.747 155.646C312.78 153.687 307.482 152.742 302.156 152.866C296.831 152.99 291.581 154.18 286.708 156.368C281.834 158.556 277.431 161.699 273.752 165.617C270.072 169.536 267.187 174.154 265.262 179.207C263.336 184.26 262.408 189.649 262.53 195.067C262.651 200.485 263.821 205.826 265.972 210.784L264.599 211.4Z" fill="#E6E6E6"/>
<path d="M700.626 450.059C717.801 441.779 730.594 425.121 728.599 406.813C713.19 419.507 692.211 426.595 670.554 426.425C662.119 426.359 652.672 425.486 646.543 430.302C642.729 433.298 641.008 438.055 640.791 442.797C640.574 447.539 641.703 452.338 642.827 457.074L642.485 458.196C662.652 459.502 683.45 458.339 700.626 450.059Z" fill="#F2F2F2"/>
<path d="M728.176 406.768C721.533 419.954 710.016 430.945 695.702 437.378C692.566 438.867 689.227 439.865 685.798 440.339C682.306 440.71 678.776 440.241 675.495 438.969C672.384 437.833 669.318 436.354 666.019 435.904C664.404 435.675 662.76 435.779 661.185 436.211C659.61 436.643 658.137 437.394 656.854 438.418C653.806 440.83 651.988 444.167 650.34 447.497C648.51 451.193 646.677 455.064 643.095 457.584C642.66 457.889 643.265 458.524 643.698 458.219C649.931 453.836 650.831 445.91 655.783 440.601C656.948 439.261 658.396 438.207 660.019 437.517C661.641 436.827 663.396 436.519 665.152 436.617C668.519 436.87 671.682 438.392 674.823 439.566C678.017 440.849 681.444 441.421 684.873 441.244C688.33 440.934 691.715 440.058 694.898 438.65C701.819 435.72 708.225 431.664 713.867 426.643C720.1 421.159 725.245 414.514 729.026 407.065C729.256 406.61 728.404 406.315 728.176 406.768H728.176Z" fill="white"/>
<path d="M700.497 435.52C702.305 437.69 704.733 439.233 707.443 439.933C710.153 440.634 713.011 440.458 715.618 439.43C716.118 439.216 715.71 438.471 715.209 438.685C712.783 439.647 710.122 439.81 707.6 439.153C705.078 438.496 702.822 437.051 701.149 435.022C700.798 434.588 700.148 435.088 700.497 435.52V435.52Z" fill="white"/>
<path d="M677.006 439.727C677.339 437.152 678.204 434.677 679.544 432.466C680.885 430.255 682.671 428.357 684.784 426.899C685.217 426.592 684.612 425.957 684.18 426.264C681.984 427.786 680.13 429.764 678.741 432.068C677.351 434.372 676.457 436.949 676.118 439.63C676.056 440.141 676.945 440.236 677.006 439.727L677.006 439.727Z" fill="white"/>
<path d="M719.08 420.599C718.254 419.953 717.604 419.103 717.192 418.13C716.779 417.157 716.618 416.093 716.723 415.039C716.791 414.529 715.903 414.435 715.834 414.941C715.723 416.106 715.903 417.281 716.356 418.357C716.81 419.433 717.522 420.375 718.428 421.097C718.51 421.178 718.616 421.23 718.73 421.242C718.844 421.255 718.959 421.228 719.056 421.165C719.098 421.132 719.132 421.091 719.157 421.043C719.181 420.995 719.195 420.942 719.198 420.888C719.2 420.834 719.191 420.78 719.17 420.73C719.15 420.68 719.119 420.635 719.08 420.599V420.599Z" fill="white"/>
<path d="M671.931 368.105C671.878 368.421 671.825 368.737 671.765 369.056C671.031 373.296 669.908 377.457 668.411 381.485C668.301 381.798 668.185 382.114 668.065 382.423C664.281 392.174 658.528 401.009 651.176 408.356C648.182 411.358 644.951 414.107 641.518 416.574C636.732 420.02 631.208 423.386 628.179 428.028C627.858 428.507 627.57 429.008 627.318 429.528L640.964 457.616C641.029 457.669 641.088 457.723 641.153 457.776L641.643 458.916C641.833 458.799 642.027 458.675 642.216 458.558C642.327 458.491 642.434 458.417 642.544 458.35C642.617 458.303 642.69 458.256 642.758 458.218C642.783 458.203 642.807 458.187 642.824 458.174C642.893 458.136 642.952 458.093 643.014 458.057C644.099 457.362 645.179 456.659 646.256 455.947C646.262 455.945 646.262 455.945 646.266 455.936C654.451 450.491 662.149 444.338 668.474 437.24C668.664 437.026 668.862 436.81 669.046 436.584C671.857 433.394 674.375 429.948 676.567 426.29C677.749 424.301 678.816 422.244 679.764 420.129C682.197 414.666 683.638 408.8 684.018 402.815C684.789 390.826 681.293 378.43 672.602 368.833C672.38 368.587 672.16 368.348 671.931 368.105Z" fill="#F2F2F2"/>
<path d="M671.582 368.296C675.383 383.125 674.073 398.764 667.638 412.071C666.299 415.026 664.455 417.716 662.192 420.015C659.768 422.275 656.787 423.826 653.567 424.504C650.482 425.247 647.203 425.674 644.433 427.102C643.075 427.794 641.896 428.804 640.994 430.048C640.092 431.292 639.493 432.736 639.244 434.261C638.567 437.979 639.426 441.807 640.408 445.535C641.498 449.673 642.701 453.962 641.695 458.064C641.573 458.561 642.448 458.768 642.57 458.272C644.32 451.135 639.72 443.919 639.895 436.7C639.977 433.331 641.184 430.049 644.259 428.182C646.947 426.55 650.329 426.106 653.462 425.379C656.627 424.754 659.593 423.35 662.102 421.29C664.492 419.12 666.454 416.508 667.882 413.591C671.157 407.166 673.261 400.191 674.094 393.003C675.094 384.663 674.524 376.206 672.417 368.082C672.286 367.57 671.452 367.788 671.582 368.296H671.582Z" fill="white"/>
<path d="M669.991 407.865C675.605 409.654 681.56 407.514 683.914 402.888C684.145 402.433 683.344 402.024 683.112 402.481C680.907 406.814 675.396 408.758 670.148 407.085C669.596 406.909 669.442 407.69 669.991 407.865V407.865Z" fill="white"/>
<path d="M655.203 424.319C653.766 422.113 652.784 419.632 652.318 417.029C651.852 414.425 651.91 411.752 652.49 409.172C652.61 408.674 651.735 408.467 651.615 408.964C651.017 411.651 650.962 414.433 651.454 417.142C651.945 419.851 652.972 422.43 654.473 424.723C654.767 425.19 655.495 424.783 655.203 424.319Z" fill="white"/>
<path d="M673.975 385.017C672.873 384.89 671.812 384.518 670.868 383.926C669.923 383.335 669.118 382.538 668.511 381.594C668.223 381.124 667.495 381.532 667.781 381.999C668.456 383.039 669.346 383.918 670.389 384.574C671.431 385.23 672.601 385.647 673.818 385.797C674.06 385.826 674.285 385.74 674.334 385.511C674.348 385.397 674.318 385.283 674.251 385.191C674.185 385.1 674.086 385.037 673.975 385.017Z" fill="white"/>
<path d="M700.899 250.627L690.46 194.089L669.966 166.648L654.779 176.749C656.925 188.591 673.158 210.697 673.158 210.697L687.547 254.421C687.489 254.649 687.436 254.878 687.397 255.114C687.169 256.497 687.296 257.917 687.764 259.236C688.233 260.555 689.028 261.729 690.073 262.644C691.118 263.559 692.378 264.184 693.73 264.459C695.082 264.735 696.481 264.65 697.791 264.215C699.102 263.779 700.28 263.007 701.211 261.973C702.143 260.939 702.796 259.678 703.109 258.312C703.421 256.945 703.382 255.52 702.995 254.174C702.608 252.828 701.886 251.606 700.899 250.627V250.627Z" fill="#FFB8B8"/>
<path d="M655.187 182.723L672.381 168.525L672.414 168.45C675.63 161.036 668.489 148.324 661.933 138.965C659.769 135.881 656.534 133.748 652.883 132.998C649.232 132.247 645.437 132.935 642.265 134.922C639.935 136.403 638.059 138.519 636.849 141.029C635.639 143.538 635.142 146.342 635.417 149.124L636.863 163.287L655.187 182.723Z" fill="#3F3D56"/>
<path d="M594.418 464.086L582.977 464.085L577.535 419.192L594.42 419.193L594.418 464.086Z" fill="#FFB8B8"/>
<path d="M597.336 460.285L594.116 460.285L581.544 455.084L574.806 460.284H574.805C570.997 460.285 567.345 461.824 564.652 464.563C561.96 467.302 560.447 471.017 560.447 474.891V475.366L597.336 475.367L597.336 460.285Z" fill="#2F2E41"/>
<path d="M645.181 464.086L633.74 464.085L628.298 419.192L645.183 419.193L645.181 464.086Z" fill="#FFB8B8"/>
<path d="M648.1 460.285L644.88 460.285L632.308 455.084L625.569 460.284H625.568C621.76 460.285 618.109 461.824 615.416 464.563C612.723 467.302 611.21 471.017 611.21 474.891V475.366L648.099 475.367L648.1 460.285Z" fill="#2F2E41"/>
<path d="M662.626 270.716C662.626 270.716 663.962 287.025 660.622 302.654C657.282 318.283 657.282 362.299 657.282 362.299L649.935 448.072L627.893 446.033L621.882 302.654L600.507 350.9L602.511 357.695L599.842 359.394C599.842 359.394 601.843 372.645 600.507 372.645C599.172 372.645 595.832 374.683 595.832 374.683L598.504 444.674L575.794 443.995L567.778 345.464L576.462 289.064L577.13 278.191L580.135 278.317L581.666 273.774L584.477 265.96L662.626 270.716Z" fill="#2F2E41"/>
<path d="M663.78 274.142L663.899 273.972C670.257 264.917 660.695 243.157 659.253 240.002L665.327 237.997L663.96 226.168L663.311 220.894L667.954 216.171L667.967 216.053L670.639 192.27L674.524 176.474C675.987 170.502 675.863 164.241 674.162 158.335C672.462 152.429 669.247 147.089 664.848 142.864L655.869 134.251L644.956 117.824H627.358L621.324 129.419C615.474 130.795 610.283 134.214 606.657 139.083C603.031 143.951 601.198 149.959 601.478 156.061L602.846 186.471L597.492 224.335L597.489 231.187L591.464 237.999L592.779 244.691L588.194 246.69L586.17 256.302C585.332 257.426 579.801 264.928 579.801 266.979C579.801 267.287 580.025 267.585 580.504 267.915C584.273 270.511 605.104 275.804 614.324 272.051C624.145 268.056 663.184 274.049 663.578 274.11L663.78 274.142Z" fill="#3F3D56"/>
<path d="M510.746 475.092C510.745 475.332 510.838 475.563 511.005 475.733C511.171 475.903 511.397 475.999 511.633 476H721.861C722.098 476 722.325 475.904 722.492 475.734C722.659 475.564 722.753 475.333 722.753 475.092C722.753 474.851 722.659 474.62 722.492 474.45C722.325 474.28 722.098 474.184 721.861 474.184H511.639C511.403 474.183 511.176 474.278 511.009 474.447C510.841 474.617 510.747 474.847 510.746 475.087V475.092Z" fill="#CCCCCC"/>
<path d="M633.884 112.521C646.755 112.521 657.19 101.906 657.19 88.8107C657.19 75.7158 646.755 65.1002 633.884 65.1002C621.012 65.1002 610.577 75.7158 610.577 88.8107C610.577 101.906 621.012 112.521 633.884 112.521Z" fill="#FFB8B8"/>
<path d="M631.651 112.905C635.26 112.867 638.86 112.516 642.411 111.855C645.926 111.032 653.681 104.931 655.795 101.326C657.365 98.6483 658.308 94.5061 658.822 91.503C659.517 87.5286 659.383 83.4501 658.43 79.5317C657.476 75.6132 655.724 71.9422 653.288 68.7563C652.348 67.4216 651.072 66.37 649.594 65.7127C649.463 65.6646 649.328 65.6224 649.193 65.5869C647.05 65.073 645.106 63.9192 643.612 62.2736C643.322 61.9404 643.009 61.6289 642.675 61.3416C640.999 59.9765 639.029 59.0343 636.927 58.5919C633.531 57.7621 628.672 58.802 622.487 61.6853C619.379 63.1339 615.93 62.7298 613.272 62.2158C613.123 62.1906 612.97 62.2055 612.828 62.2591C612.687 62.3126 612.561 62.403 612.465 62.5211C611.367 63.6248 609.9 64.2651 608.357 64.3131C607.413 64.3802 606.456 65.7372 605.302 67.5044C605.04 67.9055 604.734 68.3737 604.512 68.6594L604.468 68.1228L603.949 68.7363C603.133 69.7005 602.569 70.8591 602.312 72.1044C602.054 73.3496 602.111 74.6409 602.476 75.858C602.841 77.0751 603.502 78.1784 604.4 79.0652C605.297 79.952 606.4 80.5935 607.606 80.9299C608.563 81.1622 609.541 81.2945 610.524 81.3247C611.12 81.3635 611.737 81.4037 612.329 81.4923C614.232 81.8368 616.014 82.6773 617.502 83.9318C618.99 85.1862 620.132 86.8117 620.818 88.6495C620.98 89.0742 621.236 89.4554 621.566 89.7636C621.895 90.0718 622.29 90.2988 622.72 90.4271C623.15 90.5553 623.603 90.5814 624.044 90.5033C624.485 90.4252 624.903 90.2451 625.265 89.9767C625.866 89.474 626.579 89.1268 627.341 88.9648C628.104 88.8028 628.893 88.8308 629.642 89.0463C630.294 89.3929 630.809 89.9568 631.1 90.6436C631.453 91.408 632.021 92.0483 632.733 92.4828C635.159 93.6759 635.465 99.2359 634.723 103.897C634.008 108.39 632.451 111.667 630.938 111.867C629.773 112.021 629.641 112.109 629.562 112.321L629.491 112.511L629.627 112.684C630.278 112.905 630.968 112.98 631.651 112.905Z" fill="#2F2E41"/>
<path d="M375.514 235.119C401.109 235.119 421.857 214.011 421.857 187.973C421.857 161.935 401.109 140.827 375.514 140.827C349.92 140.827 329.171 161.935 329.171 187.973C329.171 214.011 349.92 235.119 375.514 235.119Z" fill="#3FBF77"/>
<path d="M626.283 180.957L610.996 171.011C601.262 177.861 588.106 201.992 588.106 201.992L554.811 233.285C553.424 233.527 552.124 234.136 551.043 235.052C549.961 235.968 549.135 237.157 548.649 238.501C548.162 239.844 548.032 241.294 548.272 242.705C548.512 244.116 549.112 245.438 550.014 246.537C550.915 247.637 552.085 248.475 553.407 248.969C554.728 249.462 556.153 249.592 557.54 249.347C558.926 249.101 560.225 248.488 561.304 247.57C562.384 246.652 563.207 245.46 563.69 244.116L610.092 211.23L626.283 180.957Z" fill="#FFB8B8"/>
<path d="M624.825 184.992L635.006 160.133L631.324 146.396C630.591 143.701 629.133 141.269 627.113 139.374C625.093 137.479 622.592 136.196 619.893 135.671C616.23 134.985 612.447 135.739 609.309 137.781C606.171 139.823 603.913 143.001 602.991 146.673C600.202 157.81 598.061 172.288 603.693 178.018L603.75 178.076L624.825 184.992Z" fill="#3F3D56"/>
<path d="M31.9192 461.616C11.9897 451.209 -2.46956 431.099 0.553448 409.608C18.2395 425.147 42.6927 434.294 68.2114 434.917C78.1507 435.16 89.3114 434.49 96.3556 440.396C100.739 444.07 102.591 449.74 102.673 455.334C102.755 460.928 101.248 466.538 99.7502 472.075L100.111 473.41C76.3069 474.183 51.8486 472.023 31.9192 461.616Z" fill="#F2F2F2"/>
<path d="M1.05332 409.57C8.39475 425.357 21.5589 438.742 38.1842 446.864C41.824 448.737 45.721 450.04 49.7434 450.728C53.8438 451.298 58.0185 450.879 61.9305 449.505C65.6367 448.286 69.3033 446.66 73.2063 446.256C75.1175 446.047 77.0505 446.232 78.8897 446.801C80.7288 447.37 82.4364 448.31 83.9102 449.565C87.4128 452.522 89.4324 456.523 91.2513 460.508C93.2709 464.932 95.2883 469.562 99.4161 472.665C99.9163 473.042 99.1809 473.766 98.6815 473.391C91.4998 467.991 90.7312 458.62 85.0916 452.178C82.4601 449.172 78.7473 446.934 74.201 447.128C70.2255 447.298 66.4432 448.971 62.7 450.235C58.8907 451.625 54.8329 452.169 50.7997 451.829C46.7384 451.333 42.7825 450.173 39.0847 448.393C31.0398 444.678 23.6417 439.657 17.18 433.528C10.0387 426.831 4.2212 418.807 0.0403693 409.888C-0.213226 409.343 0.801392 409.029 1.05334 409.57H1.05332Z" fill="white"/>
<path d="M32.6041 444.493C28.2352 449.562 20.5458 451.276 14.6479 448.525C14.0668 448.254 14.5751 447.391 15.1569 447.663C17.9792 448.887 21.1078 449.181 24.1029 448.503C27.0979 447.825 29.8087 446.209 31.854 443.882C32.2837 443.383 33.0314 443.997 32.6041 444.493Z" fill="white"/>
<path d="M60.1231 450.342C59.8257 447.295 58.8974 444.347 57.3993 441.691C55.9012 439.035 53.8673 436.733 51.4314 434.934C50.9329 434.556 51.6682 433.831 52.1661 434.209C54.6969 436.085 56.8082 438.486 58.3607 441.253C59.9131 444.02 60.8716 447.09 61.173 450.261C61.2266 450.865 60.1764 450.943 60.1231 450.342V450.342Z" fill="white"/>
<path d="M11.2606 426.21C12.2573 425.48 13.0543 424.504 13.5761 423.373C14.0979 422.243 14.327 420.995 14.2419 419.749C14.1798 419.146 15.2301 419.069 15.2918 419.668C15.3798 421.045 15.1252 422.422 14.5518 423.672C13.9783 424.922 13.1044 426.005 12.0107 426.821C11.9115 426.914 11.7841 426.97 11.6493 426.981C11.5146 426.991 11.3803 426.955 11.2683 426.878C11.22 426.837 11.1809 426.787 11.1539 426.729C11.1268 426.672 11.1124 426.609 11.1116 426.545C11.1109 426.482 11.1239 426.419 11.1496 426.361C11.1753 426.303 11.2132 426.251 11.2606 426.21H11.2606Z" fill="white"/>
<path d="M68.7307 366.161C68.7814 366.536 68.8322 366.911 68.8908 367.288C69.6009 372.311 70.7709 377.256 72.3856 382.057C72.5037 382.43 72.6297 382.807 72.7597 383.175C76.8589 394.807 83.3124 405.433 91.7028 414.367C95.1205 418.017 98.8249 421.378 102.779 424.415C108.291 428.656 114.674 432.832 118.072 438.415C118.433 438.991 118.753 439.593 119.031 440.215L101.925 472.785C101.846 472.844 101.775 472.906 101.696 472.966L101.077 474.29C100.858 474.146 100.634 473.991 100.415 473.847C100.287 473.763 100.164 473.673 100.036 473.59C99.9523 473.532 99.8686 473.473 99.7889 473.426C99.7609 473.407 99.7331 473.387 99.7131 473.371C99.6334 473.323 99.5656 473.271 99.4939 473.226C98.2415 472.367 96.9944 471.497 95.7524 470.617C95.7444 470.614 95.7444 470.614 95.7403 470.604C86.2979 463.879 77.4552 456.338 70.265 447.736C70.0488 447.477 69.8244 447.215 69.616 446.941C66.4213 443.076 63.5818 438.922 61.133 434.529C59.8142 432.141 58.6324 429.677 57.5934 427.15C54.9283 420.622 53.4457 413.657 53.2172 406.592C52.7493 392.439 57.3225 377.969 67.913 366.993C68.1841 366.713 68.4516 366.439 68.7307 366.161Z" fill="#F2F2F2"/>
<path d="M69.1348 366.4C64.1128 383.724 65.0815 402.197 72.1743 418.118C73.6426 421.65 75.716 424.889 78.2978 427.683C81.0708 430.438 84.5248 432.378 88.2937 433.298C91.9002 434.291 95.7482 434.919 98.9581 436.707C100.533 437.573 101.885 438.807 102.901 440.307C103.918 441.807 104.571 443.531 104.808 445.337C105.47 449.742 104.317 454.219 103.023 458.573C101.587 463.408 100.013 468.414 101.047 473.285C101.172 473.875 100.134 474.085 100.009 473.496C98.2092 465.023 103.893 456.697 103.952 448.186C103.979 444.214 102.678 440.301 99.1242 437.985C96.0167 435.96 92.0494 435.309 88.3858 434.334C84.6803 433.477 81.2373 431.71 78.3574 429.188C75.6216 426.542 73.4065 423.389 71.8306 419.899C68.2089 412.206 65.9858 403.909 65.2685 395.41C64.3974 385.547 65.3784 375.606 68.1593 366.116C68.3328 365.518 69.3071 365.806 69.1348 366.4L69.1348 366.4Z" fill="white"/>
<path d="M69.5566 413.074C62.8779 414.968 55.941 412.22 53.338 406.682C53.0816 406.136 54.0407 405.686 54.2975 406.232C56.7361 411.421 63.1569 413.92 69.4 412.149C70.057 411.963 70.2099 412.889 69.5566 413.074Z" fill="white"/>
<path d="M86.3733 433.018C88.1474 430.474 89.3948 427.59 90.0397 424.54C90.6846 421.49 90.7137 418.339 90.1251 415.278C90.0021 414.687 91.0405 414.476 91.1633 415.066C91.769 418.254 91.7316 421.534 91.0534 424.707C90.3753 427.879 89.0705 430.879 87.2182 433.523C86.8547 434.062 86.0118 433.554 86.3733 433.018H86.3733Z" fill="white"/>
<path d="M65.7014 386.007C67.0045 385.899 68.2683 385.501 69.4027 384.84C70.5371 384.179 71.5143 383.271 72.2646 382.182C72.6207 381.639 73.4632 382.147 73.1095 382.686C72.2756 383.886 71.1951 384.888 69.943 385.621C68.6908 386.354 67.297 386.801 65.858 386.931C65.5723 386.957 65.3099 386.846 65.2606 386.575C65.2489 386.441 65.2881 386.307 65.37 386.201C65.452 386.096 65.5705 386.026 65.7014 386.007Z" fill="white"/>
<path d="M129.022 202.924L130.523 217.09L129.64 235.665L170.082 230.777L173.882 202.924L169.04 202.972L129.022 202.924Z" fill="#FFB6B6"/>
<path d="M108.045 460.106H116.887L121.096 425.41H108.045V460.106Z" fill="#FFB6B6"/>
<path d="M105.16 453.944L119.286 453.087V459.244L132.716 468.68C133.379 469.146 133.879 469.815 134.142 470.591C134.405 471.366 134.417 472.206 134.177 472.989C133.937 473.772 133.458 474.457 132.808 474.943C132.159 475.429 131.374 475.691 130.568 475.691H113.75L110.851 469.601L109.719 475.691H103.378L105.16 453.944Z" fill="#2F2E41"/>
<path d="M157.712 460.106H166.554L170.762 425.41H157.712V460.106Z" fill="#FFB6B6"/>
<path d="M154.826 453.944L168.952 453.087V459.244L182.383 468.68C183.046 469.146 183.546 469.815 183.808 470.591C184.071 471.366 184.084 472.206 183.844 472.989C183.604 473.772 183.124 474.457 182.475 474.943C181.826 475.429 181.041 475.691 180.234 475.691H163.417L160.518 469.601L159.386 475.691H153.045L154.826 453.944Z" fill="#2F2E41"/>
<path d="M104.23 430.185H104.326L106.027 373.771C104.926 371.611 104.368 369.208 104.401 366.776C104.434 364.344 105.058 361.958 106.217 359.83L106.461 359.382L105.829 356.405C105.019 352.581 105.391 348.595 106.894 344.994L108.481 292.369C102.813 255.002 129.823 230.633 129.823 230.633H170.284L178.97 260.995C184.713 317.912 183.671 373.377 174.558 427.113L174.807 427.24C175.701 427.554 176.085 428.815 175.664 430.056C175.243 431.297 174.176 432.049 173.282 431.735L151.914 430.978C151.019 430.664 150.636 429.404 151.057 428.163C151.478 426.922 152.544 426.17 153.439 426.484L154.892 427.232L151.793 372.794L152.137 362.85L151.429 351.57L148.153 300.83L135.756 363.226L123.092 430.813C123.442 431.135 123.687 431.557 123.795 432.023C123.904 432.49 123.871 432.979 123.701 433.426C123.531 433.873 123.231 434.257 122.842 434.527C122.453 434.797 121.993 434.941 121.521 434.94H104.23C103.923 434.94 103.619 434.879 103.335 434.76C103.051 434.641 102.793 434.466 102.575 434.245C102.358 434.024 102.185 433.762 102.068 433.473C101.95 433.184 101.889 432.875 101.889 432.562C101.889 432.25 101.95 431.94 102.068 431.652C102.185 431.363 102.358 431.101 102.575 430.88C102.793 430.659 103.051 430.484 103.335 430.365C103.619 430.246 103.923 430.185 104.23 430.185Z" fill="#2F2E41"/>
<path d="M136.084 130.437C148.07 130.437 157.786 120.552 157.786 108.358C157.786 96.165 148.07 86.2802 136.084 86.2802C124.098 86.2802 114.382 96.165 114.382 108.358C114.382 120.552 124.098 130.437 136.084 130.437Z" fill="#FFB6B6"/>
<path d="M40.9865 210.359C44.0366 203.156 48.225 196.508 53.3857 190.681C49.0156 197.767 46.5182 205.88 46.1351 214.236C47.7172 215.241 49.3726 216.122 51.0869 216.87C56.2385 219.069 61.7313 220.324 67.3121 220.579C70.32 210.384 75.5118 200.993 82.5139 193.084C77.4676 201.271 74.93 210.8 75.2239 220.459C81.4487 219.911 87.5817 218.574 93.4803 216.478C102.337 213.379 110.934 208.749 117.058 201.549C123.687 193.757 126.954 183.473 128.009 173.221C129.064 162.978 128.072 152.638 127.072 142.387C126.6 137.501 130.599 131.879 130.127 126.994H129.812C127.71 124.062 125.569 121.059 124.537 117.583C123.514 114.115 123.782 110.022 126.135 107.291C127.454 105.864 129.118 104.815 130.961 104.248C131.134 104.024 131.323 103.807 131.52 103.591C135.085 99.7393 139.28 96.547 143.919 94.1566C140.574 96.7275 138.338 99.6347 137.299 102.638C140.196 101.989 143.093 101.343 145.99 100.7C146.958 99.6551 147.977 98.6607 149.044 97.7206C150.595 96.3511 151.107 96.2469 152.957 94.9575C151.463 96.2942 150.305 97.9747 149.58 99.859C153.303 98.9059 157.027 97.4724 158.964 94.2127C162.176 88.8226 158.358 81.5504 153.028 78.3308C149.151 76.1027 144.684 75.1707 140.258 75.6666C135.832 76.1624 131.671 78.061 128.363 81.0939C120.656 75.3194 109.682 75.4155 101.109 79.7324C95.4489 82.7098 90.5733 87.0245 86.891 92.3145C89.027 92.0356 91.1772 91.8832 93.3307 91.858C90.2993 92.3093 87.4128 93.4719 84.8992 95.2538C83.7872 97.0103 82.7676 98.8255 81.8447 100.692C81.2385 101.917 80.6665 103.159 80.1285 104.416C76.8299 112.057 74.6807 120.194 72.4528 128.235C69.8549 137.605 67.068 147.04 62.2028 155.425C54.7432 168.176 42.9758 177.728 29.0989 182.296C27.9417 192.892 33.0273 203.255 40.9865 210.359Z" fill="#2F2E41"/>
<path d="M157.938 145.201L153.726 143.592L148.415 134.855L129.496 136.428L124.897 145.796L113.819 154.403L118.664 180.359L126.191 211.889L176.575 205.482L176.521 181.747C176.521 181.747 185.626 162.995 170.919 155.968L157.938 145.201Z" fill="#3FBF77"/>
<path d="M235.6 227.531C234.622 227.931 233.57 228.107 232.518 228.048C231.465 227.989 230.438 227.696 229.509 227.19C228.581 226.683 227.772 225.976 227.141 225.117C226.51 224.258 226.071 223.269 225.857 222.22L169.679 187.637L179.947 175.585L231.939 213.368C233.697 213.118 235.483 213.532 236.96 214.532C238.437 215.533 239.502 217.049 239.954 218.795C240.405 220.541 240.211 222.395 239.409 224.005C238.606 225.615 237.251 226.87 235.6 227.531V227.531Z" fill="#FFB6B6"/>
<path d="M150.96 171.238C150.96 171.238 148.275 173.986 155.011 178.505C160.404 182.123 184.46 200 192.987 202.827C192.88 204.101 193.193 205.376 193.877 206.449C194.56 207.522 195.575 208.334 196.762 208.756L204.483 191.495C202.812 187.549 200.138 188.462 198.732 189.357L189.407 182.223L166.509 158.961L152.866 169.217L150.96 171.238Z" fill="#3FBF77"/>
<path d="M128.501 81.6947C125.892 85.6106 124.207 90.0861 123.577 94.7728C122.946 99.4595 123.387 104.231 124.865 108.716" fill="#FD6584"/>
<path d="M18.3987 475.092C18.3984 475.211 18.4212 475.33 18.466 475.44C18.5107 475.55 18.5764 475.65 18.6594 475.735C18.7423 475.819 18.8409 475.886 18.9493 475.932C19.0578 475.977 19.174 476 19.2913 476H229.514C229.75 476 229.977 475.904 230.145 475.734C230.312 475.564 230.406 475.333 230.406 475.092C230.406 474.851 230.312 474.62 230.145 474.45C229.977 474.28 229.75 474.184 229.514 474.184H19.2913C19.174 474.184 19.0578 474.207 18.9493 474.252C18.8409 474.298 18.7423 474.365 18.6594 474.449C18.5764 474.534 18.5107 474.634 18.466 474.744C18.4212 474.854 18.3984 474.973 18.3987 475.092Z" fill="#CCCCCC"/>
<path d="M98.4936 268.715C97.9698 268.903 97.5405 269.294 97.2999 269.803C97.0593 270.313 97.0271 270.898 97.2103 271.432L126.499 357.31C126.683 357.843 127.068 358.28 127.569 358.524C128.069 358.769 128.645 358.802 129.169 358.616L299.588 297.786C300.112 297.598 300.541 297.207 300.782 296.697C301.023 296.188 301.055 295.602 300.871 295.069L271.583 209.191C271.398 208.658 271.014 208.221 270.513 207.976C270.012 207.731 269.436 207.699 268.912 207.885L98.4936 268.715Z" fill="#E6E6E6"/>
<path d="M141.629 346.221C138.275 346.22 135.004 345.162 132.265 343.194C129.526 341.225 127.453 338.441 126.331 335.226L110.247 288.929C108.815 284.806 109.051 280.272 110.904 276.326C112.757 272.38 116.075 269.344 120.128 267.886L206.259 236.916C222.382 231.139 240.1 232.104 255.524 239.601C270.949 247.097 282.82 260.511 288.535 276.901C289.967 281.024 289.731 285.558 287.878 289.504C286.025 293.45 282.707 296.486 278.654 297.944L278.529 297.584L278.654 297.944L147.015 345.278C145.285 345.901 143.464 346.22 141.629 346.221Z" fill="white"/>
<path d="M255.849 254.959L178.726 282.488C177.639 282.876 176.293 281.839 175.718 280.173C175.143 278.507 175.558 276.841 176.645 276.454L253.768 248.925C254.855 248.537 256.201 249.574 256.776 251.24C257.351 252.906 256.936 254.573 255.849 254.959Z" fill="#E6E6E6"/>
<path d="M261.814 272.257L184.691 299.785C183.605 300.173 182.258 299.136 181.683 297.47C181.108 295.804 181.524 294.139 182.61 293.751L259.733 266.222C260.82 265.835 262.166 266.871 262.741 268.537C263.316 270.203 262.901 271.869 261.814 272.257Z" fill="#E6E6E6"/>
<path d="M168.291 291.898C169.119 294.273 169.521 296.779 169.478 299.297C169.462 300.45 169.35 301.599 169.144 302.732C168.486 306.394 166.89 309.815 164.517 312.648C162.143 315.48 159.076 317.626 155.627 318.866C152.177 320.107 148.466 320.398 144.87 319.712C141.274 319.025 137.919 317.385 135.146 314.957C134.866 314.713 134.593 314.462 134.328 314.202C132.063 311.994 130.319 309.293 129.227 306.301C128.135 303.309 127.723 300.105 128.022 296.928C128.321 293.751 129.323 290.684 130.953 287.958C132.584 285.231 134.8 282.916 137.435 281.185C140.071 279.454 143.058 278.353 146.171 277.964C149.285 277.575 152.445 277.909 155.413 278.94C158.382 279.97 161.083 281.672 163.313 283.916C165.543 286.161 167.245 288.89 168.291 291.898Z" fill="#E4E4E4"/>
<path d="M149.568 302.17C151.761 302.17 153.539 300.361 153.539 298.129C153.539 295.898 151.761 294.089 149.568 294.089C147.374 294.089 145.596 295.898 145.596 298.129C145.596 300.361 147.374 302.17 149.568 302.17Z" fill="#FD6584"/>
<path d="M134.328 314.202C135.348 311.795 136.553 308.122 139.344 309.459C140.723 310.068 143.193 311.916 144.196 309.766L152.048 293.044C152.197 292.732 152.406 292.454 152.662 292.225C152.918 291.996 153.217 291.822 153.54 291.712C153.863 291.603 154.205 291.56 154.544 291.586C154.884 291.613 155.215 291.708 155.518 291.867L169.478 299.298C169.462 300.45 169.35 301.599 169.144 302.733L135.146 314.957L134.328 314.202Z" fill="#3F3D56"/>
<path d="M138.381 264.818C137.398 264.429 136.512 263.826 135.783 263.051C135.055 262.277 134.502 261.349 134.164 260.333C133.827 259.317 133.712 258.239 133.828 257.173C133.944 256.107 134.289 255.081 134.837 254.165L117.065 189.858L132.658 188.201L145.224 251.933C146.675 252.973 147.701 254.517 148.107 256.275C148.513 258.032 148.271 259.88 147.428 261.468C146.584 263.056 145.197 264.274 143.53 264.892C141.863 265.509 140.03 265.483 138.381 264.818Z" fill="#FFB6B6"/>
<path d="M114.436 154.557C114.436 154.557 110.63 154.696 112.511 162.679C114.017 169.07 119.548 209.16 123.873 217.154C122.939 218.009 122.312 219.157 122.089 220.416C121.867 221.675 122.063 222.973 122.646 224.106L139.878 216.875C141.31 212.833 140.201 209.162 138.573 208.837L136.56 197.146L133.593 157.923L117.185 154.407L114.436 154.557Z" fill="#3FBF77"/>
<path d="M269.674 323.757L245.841 324.761C245.332 324.783 244.824 324.688 244.356 324.483C243.889 324.277 243.472 323.967 243.139 323.574C242.811 323.192 242.571 322.739 242.439 322.249C242.307 321.76 242.286 321.246 242.377 320.746C244.206 310.6 243.673 300.16 240.82 290.261C240.6 289.504 240.645 288.693 240.947 287.966C241.249 287.239 241.789 286.64 242.476 286.273C252.238 281.114 261.385 280.852 269.661 285.495C270.095 285.734 270.472 286.068 270.766 286.471C271.061 286.874 271.265 287.338 271.365 287.83C273.519 298.631 274.036 309.704 272.896 320.664C272.818 321.489 272.448 322.257 271.855 322.825C271.263 323.394 270.488 323.725 269.674 323.757Z" fill="#3FBF77"/>
<path d="M268.665 307.888L250.442 308.656C250.218 308.665 249.994 308.63 249.782 308.551C249.571 308.473 249.377 308.352 249.212 308.198C249.047 308.043 248.913 307.856 248.818 307.649C248.724 307.441 248.67 307.217 248.661 306.989C248.651 306.76 248.686 306.532 248.764 306.317C248.841 306.103 248.96 305.905 249.112 305.737C249.264 305.569 249.448 305.433 249.652 305.337C249.856 305.241 250.076 305.187 250.301 305.177L268.524 304.41C268.748 304.4 268.972 304.436 269.183 304.514C269.394 304.593 269.588 304.713 269.753 304.868C269.919 305.023 270.052 305.209 270.147 305.417C270.241 305.624 270.295 305.848 270.304 306.077C270.313 306.305 270.278 306.533 270.201 306.748C270.124 306.962 270.006 307.159 269.853 307.327C269.701 307.496 269.518 307.632 269.314 307.728C269.11 307.824 268.89 307.878 268.665 307.888Z" fill="white"/>
<path d="M268.417 301.789L250.194 302.556C249.741 302.576 249.298 302.411 248.965 302.098C248.631 301.785 248.433 301.351 248.414 300.889C248.395 300.428 248.557 299.978 248.865 299.639C249.172 299.299 249.599 299.097 250.053 299.078L268.275 298.311C268.729 298.291 269.171 298.456 269.505 298.769C269.839 299.082 270.037 299.516 270.056 299.978C270.074 300.439 269.912 300.889 269.605 301.228C269.298 301.568 268.87 301.77 268.417 301.789Z" fill="white"/>
<path d="M705.552 134.09L681.901 130.935C681.396 130.868 680.911 130.686 680.485 130.403C680.059 130.119 679.701 129.74 679.439 129.296C679.179 128.862 679.019 128.374 678.971 127.868C678.923 127.363 678.989 126.853 679.162 126.376C682.669 116.698 683.899 106.319 682.752 96.0697C682.662 95.2856 682.842 94.494 683.262 93.83C683.682 93.166 684.315 92.6706 685.054 92.4284C695.539 89.0425 704.595 90.3757 711.969 96.3896C712.356 96.7012 712.672 97.095 712.894 97.5435C713.116 97.992 713.239 98.4844 713.255 98.9863C713.563 110.003 712.211 121.003 709.246 131.604C709.03 132.403 708.537 133.095 707.857 133.552C707.178 134.009 706.359 134.2 705.552 134.09Z" fill="#3FBF77"/>
<path d="M707.225 118.279L689.141 115.867C688.918 115.837 688.704 115.763 688.509 115.649C688.314 115.534 688.144 115.382 688.007 115.201C687.87 115.02 687.77 114.813 687.711 114.592C687.653 114.371 687.638 114.141 687.667 113.914C687.697 113.688 687.769 113.469 687.882 113.271C687.994 113.073 688.143 112.9 688.322 112.76C688.5 112.621 688.703 112.519 688.92 112.46C689.137 112.401 689.363 112.385 689.586 112.415L707.67 114.828C708.12 114.888 708.528 115.127 708.804 115.494C709.081 115.86 709.203 116.322 709.144 116.78C709.085 117.238 708.849 117.653 708.489 117.934C708.13 118.215 707.675 118.34 707.225 118.279Z" fill="white"/>
<path d="M708.005 112.227L689.921 109.814C689.698 109.785 689.483 109.711 689.288 109.597C689.093 109.483 688.922 109.331 688.785 109.15C688.648 108.968 688.547 108.761 688.489 108.54C688.43 108.319 688.415 108.089 688.444 107.862C688.474 107.635 688.547 107.416 688.659 107.218C688.772 107.02 688.921 106.846 689.1 106.707C689.278 106.567 689.482 106.465 689.7 106.406C689.917 106.347 690.144 106.333 690.367 106.363L708.45 108.776C708.673 108.805 708.889 108.879 709.084 108.993C709.279 109.107 709.45 109.259 709.587 109.44C709.724 109.622 709.825 109.829 709.883 110.05C709.942 110.271 709.957 110.501 709.927 110.728C709.898 110.955 709.825 111.174 709.713 111.372C709.6 111.57 709.45 111.744 709.272 111.883C709.093 112.023 708.89 112.125 708.672 112.184C708.455 112.243 708.228 112.257 708.005 112.227Z" fill="white"/>
<path d="M390.515 180.724H382.639V172.713C382.639 170.79 381.889 168.946 380.553 167.587C379.216 166.228 377.404 165.464 375.514 165.464C373.625 165.464 371.812 166.228 370.476 167.587C369.14 168.946 368.389 170.79 368.389 172.713V180.724H360.514C358.624 180.724 356.812 181.488 355.476 182.847C354.14 184.207 353.389 186.051 353.389 187.973C353.389 189.895 354.14 191.739 355.476 193.099C356.812 194.458 358.624 195.222 360.514 195.222H368.389V203.233C368.389 205.156 369.14 207 370.476 208.359C371.812 209.718 373.625 210.482 375.514 210.482C377.404 210.482 379.216 209.718 380.553 208.359C381.889 207 382.639 205.156 382.639 203.233V195.222H390.515C392.404 195.222 394.217 194.458 395.553 193.099C396.889 191.739 397.64 189.895 397.64 187.973C397.64 186.051 396.889 184.207 395.553 182.847C394.217 181.488 392.404 180.724 390.515 180.724Z" fill="white"/>
<path d="M645.547 32.4549C649.694 32.4549 653.056 29.0348 653.056 24.816C653.056 20.5971 649.694 17.177 645.547 17.177C641.4 17.177 638.038 20.5971 638.038 24.816C638.038 29.0348 641.4 32.4549 645.547 32.4549Z" fill="#3F3D56"/>
<path d="M184.286 248.39C188.433 248.39 191.795 244.97 191.795 240.751C191.795 236.532 188.433 233.112 184.286 233.112C180.139 233.112 176.777 236.532 176.777 240.751C176.777 244.97 180.139 248.39 184.286 248.39Z" fill="#3F3D56"/>
</g>
<defs>
<clipPath id="clip0_273_3">
<rect width="742" height="476" fill="white"/>
</clipPath>
</defs>
</svg>
