<svg width="307" height="200" viewBox="0 0 307 200" fill="none" xmlns="http://www.w3.org/2000/svg">
<g clip-path="url(#clip0_134_218)">
<path d="M283.11 96.5704H34.9776C31.6516 96.5704 28.9458 93.8835 28.9458 90.5804V6.4679C28.9458 3.1652 31.6516 0.478271 34.9776 0.478271H283.11C286.436 0.478271 289.142 3.1652 289.142 6.4679V90.5804C289.142 93.8835 286.436 96.5704 283.11 96.5704ZM34.9776 1.19237C32.0483 1.19237 29.6649 3.55904 29.6649 6.4679V90.5804C29.6649 93.4895 32.0483 95.8563 34.9776 95.8563H283.11C286.039 95.8563 288.423 93.4895 288.423 90.5804V6.4679C288.423 3.55904 286.039 1.19237 283.11 1.19237H34.9776Z" fill="#3F3D56"/>
<path d="M306.78 197.054H0.779907V197.655H306.78V197.054Z" fill="#E6E6E6"/>
<path d="M306.78 166.348H0.779907V166.949H306.78V166.348Z" fill="#E6E6E6"/>
<path d="M140.233 99.6637C140.452 102.406 142.055 104.516 143.813 104.377C145.57 104.238 146.816 101.902 146.596 99.1591C146.523 98.0621 146.187 96.9985 145.615 96.0571L144.536 84.4503L139.062 85.0691L140.707 96.4456C140.292 97.4653 140.13 98.5688 140.233 99.6637Z" fill="#FFB6B6"/>
<path d="M133.693 45.514C133.693 45.514 138.81 42.824 141.405 46.8439C144 50.8637 145.791 94.3389 145.791 94.3389L138.599 95.1013L137.236 64.4656L133.693 45.514V45.514Z" fill="#E6E6E6"/>
<path d="M123.072 164.08L127.239 164.079L129.22 148.121L123.071 148.121L123.072 164.08Z" fill="#FFB6B6"/>
<path d="M137.347 163.986C137.476 164.203 137.545 164.903 137.545 165.155C137.545 165.931 136.912 166.559 136.131 166.559H123.228C122.695 166.559 122.263 166.131 122.263 165.601V165.068C122.263 165.068 121.625 163.465 122.939 161.489C122.939 161.489 124.572 163.036 127.013 160.613L127.733 159.318L132.942 163.101L135.83 163.454C136.462 163.531 137.022 163.442 137.347 163.986H137.347H137.347Z" fill="#2F2E41"/>
<path d="M147.182 163.395L151.219 162.37L149.162 146.421L143.204 147.933L147.182 163.395Z" fill="#FFB6B6"/>
<path d="M160.989 159.795C161.169 159.974 161.41 160.635 161.473 160.88C161.666 161.631 161.21 162.396 160.453 162.588L147.951 165.759C147.435 165.89 146.91 165.58 146.778 165.068L146.645 164.551C146.645 164.551 145.627 163.154 146.408 160.917C146.408 160.917 148.376 162.015 150.136 159.067L150.511 157.635L156.502 160.021L159.387 159.653C160.019 159.573 160.539 159.349 160.989 159.795H160.989Z" fill="#2F2E41"/>
<path d="M119.625 42.0834L119.428 40.6599L121.776 34.9657L128.227 34.2539L129.62 42.4059L119.625 42.0834Z" fill="#FFB6B6"/>
<path opacity="0.1" d="M119.625 42.0834L119.428 40.6599L121.776 34.9657L128.227 34.2539L129.62 42.4059L119.625 42.0834Z" fill="black"/>
<path d="M112.099 82.2987L109.232 90.1282L111.382 94.3989L122.134 156.323H129.282L127.868 101.517L144.354 156.323H151.429L145.74 119.311L141.487 85.1458L138.908 83.5634L126.435 76.6045L112.099 82.2987Z" fill="#2F2E41"/>
<path d="M130.377 87.637L126.076 88.3488L120.342 74.8251H133.244L130.377 87.637Z" fill="#E6E6E6"/>
<path d="M138.978 84.0782L130.377 87.6371L127.51 81.2311L126.076 88.3489L111.024 83.5372L113.174 74.8251L111.024 46.3541L118.614 41.3289L119.625 40.6599L128.943 41.3717L129.76 41.813L135.394 44.9306L136.828 68.4191L138.978 84.0782Z" fill="#2F2E41"/>
<path d="M129.761 41.813L125.718 58.8102L118.615 41.3289L119.625 40.6599L128.943 41.3717L129.761 41.813Z" fill="#E6E6E6"/>
<path d="M122.851 40.6599L121.417 43.1116L122.851 43.9288L122.134 58.8544L125.001 62.7249L127.868 57.0044L125.718 43.9288L126.435 40.6599H122.851Z" fill="#2F2E41"/>
<path d="M125.001 39.2363C128.762 39.2363 131.81 36.2089 131.81 32.4744C131.81 28.7399 128.762 25.7125 125.001 25.7125C121.24 25.7125 118.192 28.7399 118.192 32.4744C118.192 36.2089 121.24 39.2363 125.001 39.2363Z" fill="#FFB6B6"/>
<path d="M120.649 33.0676L122.121 33.7052L122.763 29.8794C122.763 29.8794 125.331 28.6042 127.258 29.2418C129.184 29.8794 132.395 29.2418 132.395 29.2418C132.395 29.2418 132.395 22.8655 127.9 22.8655C123.405 22.8655 118.91 23.5031 118.91 25.416C118.91 27.3289 116.984 29.2418 116.984 29.2418C116.984 29.2418 114.415 33.0676 116.984 35.6181C119.552 38.1686 120.836 38.1686 120.836 38.1686L120.649 33.0676Z" fill="#2F2E41"/>
<path d="M107.437 99.4636C107.362 102.213 108.73 104.481 110.492 104.527C112.255 104.574 113.743 102.383 113.818 99.6327C113.863 98.5342 113.642 97.4411 113.174 96.4448L113.342 84.7899L107.833 84.8281L108.252 96.3137C107.731 97.2839 107.451 98.364 107.437 99.4636V99.4636Z" fill="#FFB6B6"/>
<path d="M114.253 44.9172C114.253 44.9172 109.594 43.4937 107.443 47.7643C105.293 52.035 108.16 95.4533 108.16 95.4533H115.393L113.473 64.8469L114.253 44.9172V44.9172Z" fill="#E6E6E6"/>
<path d="M292.981 125.805L275.606 120.524C275.222 120.407 274.819 120.364 274.418 120.398L186.361 127.84C185.105 127.946 184.79 129.628 185.923 130.176L188.743 131.54H188.668V196.863H191.326V132.79L200.166 137.066C200.842 137.393 201.597 137.527 202.346 137.452L203.286 137.358V196.863H205.944V137.091L274.052 130.26V196.863H276.71V129.993L288.006 128.86V196.863H290.664V128.593L292.725 128.387C294.172 128.241 294.371 126.228 292.981 125.805H292.981Z" fill="#3F3D56"/>
<path d="M211.924 127.581C213.586 127.581 238.171 124.612 238.171 124.612L241.826 129.561L216.243 134.509L211.924 127.581Z" fill="white"/>
<path d="M238.907 194.326L234.636 194.318L232.632 177.954L238.936 177.966L238.907 194.326Z" fill="#A0616A"/>
<path d="M224.273 194.205C224.14 194.427 224.068 195.145 224.068 195.403C224.066 196.199 224.714 196.844 225.515 196.846L238.743 196.868C239.289 196.869 239.733 196.43 239.734 195.888L239.735 195.341C239.735 195.341 240.392 193.698 239.048 191.67C239.048 191.67 237.371 193.254 234.873 190.765L234.138 189.436L228.79 193.306L225.829 193.663C225.181 193.741 224.607 193.648 224.273 194.205H224.273L224.273 194.205Z" fill="#2F2E41"/>
<path d="M261.832 186.717L258.462 189.241L247.053 177.534L252.027 173.809L261.832 186.717Z" fill="#A0616A"/>
<path d="M250.229 195.289C250.257 195.544 250.632 196.151 250.787 196.355C251.264 196.983 252.162 197.108 252.794 196.634L263.23 188.817C263.661 188.494 263.747 187.885 263.422 187.457L263.094 187.026C263.094 187.026 262.625 185.342 260.348 184.54C260.348 184.54 259.978 186.781 256.514 186.3L255.137 185.689L253.248 191.905L251.129 193.941C250.666 194.386 250.158 194.653 250.229 195.289L250.229 195.289Z" fill="#2F2E41"/>
<path d="M252.905 102.144C252.905 106.056 249.712 109.226 245.773 109.226C241.834 109.226 238.641 106.056 238.641 102.144C238.641 98.2328 241.834 95.062 245.773 95.062C249.712 95.062 252.905 98.2328 252.905 102.144Z" fill="#A0616A"/>
<path d="M252.233 142.979C252.233 142.979 225.974 141.503 224.487 144.455C223.001 147.407 232.523 187.955 232.523 187.955L241.018 186.187L236.874 157.739C236.874 157.739 258.787 163.501 261.76 156.614C264.732 149.726 263.877 147.161 263.877 147.161L252.233 142.979Z" fill="#2F2E41"/>
<path d="M258.961 138.024C258.961 138.024 233.244 143.498 232.597 146.736C231.95 149.973 251.935 186.575 251.935 186.575L259.656 182.639L248.081 156.293C248.081 156.293 270.749 156.094 271.781 148.67C272.812 141.247 271.304 138.998 271.304 138.998L258.961 138.024Z" fill="#2F2E41"/>
<path d="M261.895 110.261H249.539L241.085 124.037C241.085 124.037 239.104 132.939 241.085 133.9C243.067 134.861 243.067 145.193 243.067 145.193L263.877 147.161C263.877 147.161 266.849 116.165 265.859 113.213C264.868 110.261 261.895 110.261 261.895 110.261Z" fill="#3FBF77"/>
<path d="M242.324 119.363L241.085 133.9L227.153 128.029L223.828 126.368C223.177 125.525 222.332 124.848 221.363 124.396C218.955 123.231 216.399 123.519 215.652 125.041C214.905 126.562 216.252 128.739 218.659 129.904C219.615 130.383 220.672 130.627 221.743 130.617L231.472 136.104L231.483 136.083L231.526 136.159L246.783 142.487L250.294 123.403L242.324 119.363H242.324Z" fill="#A0616A"/>
<path d="M240.838 103.127C240.838 103.127 233.406 104.111 236.379 97.7149C236.379 97.7149 235.925 94.2477 238.134 94.0133C240.342 93.7789 243.315 89.8429 243.315 89.8429C243.315 89.8429 250.131 86.3989 253.659 89.8429C257.188 93.2869 267.593 113.459 267.593 113.459L260.656 120.839C260.656 120.839 256.486 109.953 251.635 111.214C246.783 112.475 242.324 116.235 242.324 116.235C242.324 116.235 237.401 113.788 239.615 111.655C241.829 109.523 240.838 103.127 240.838 103.127Z" fill="#2F2E41"/>
<path d="M250.747 113.951C250.747 113.951 247.279 109.523 244.801 112.967C242.324 116.411 240.342 120.839 240.342 120.839L250.251 124.283L250.747 113.951H250.747Z" fill="#3FBF77"/>
<path d="M288.371 195.883L276.858 159.547L276.86 159.546H276.886L276.84 159.487L276.839 159.486L276.019 156.898L276.019 156.897C277.268 155.828 278.119 154.301 278.288 152.542L273.026 123.8C273.388 120.026 270.474 116.727 266.657 116.592L254.783 116.562C251.407 116.443 248.484 118.865 247.992 122.184L247.729 123.946L244.091 148.521C243.959 149.405 244.012 150.276 244.221 151.091L241.603 151.431L240.809 151.536L237.669 151.942L237.659 151.945L237.267 151.995H236.842V162.552H236.869V196.295C236.869 196.513 237.048 196.691 237.267 196.691C237.49 196.691 237.669 196.513 237.669 196.295V162.552H242.327L246.975 196.256C247.005 196.454 247.175 196.599 247.374 196.599C247.391 196.599 247.41 196.599 247.427 196.596C247.646 196.566 247.799 196.365 247.769 196.147L243.138 162.552H265.487C267.706 162.552 269.763 161.853 271.437 160.655L280.298 196.194C280.345 196.374 280.507 196.493 280.686 196.493C280.719 196.493 280.752 196.489 280.785 196.481C280.999 196.427 281.129 196.211 281.074 195.998L272.127 160.116C272.246 160.017 272.365 159.912 272.478 159.804L276.035 159.596L287.608 196.122C287.661 196.292 287.819 196.4 287.989 196.4C288.029 196.4 288.069 196.394 288.109 196.382C288.32 196.316 288.437 196.093 288.371 195.883ZM275.258 157.461C275.288 157.445 275.315 157.425 275.341 157.409L275.342 157.408L275.427 157.678L275.258 157.461Z" fill="#E6E6E6"/>
<path d="M62.4684 134.291L70.2166 129.398L73.3667 131.285L62.4684 143.72V134.291Z" fill="#FFB6B6"/>
<path d="M51.8728 115.353C51.8728 115.353 46.7264 116.555 49.1483 123.469C51.5701 130.383 59.4411 144.813 61.8629 143.911C64.2848 143.009 64.5875 133.991 64.5875 133.991C64.5875 133.991 64.2848 134.291 63.0739 133.089C61.8629 131.886 61.8629 132.435 61.8629 131.109C61.8629 129.782 60.8725 128.798 60.8725 128.798L59.7438 126.475C59.7438 126.475 59.7438 115.653 55.2029 115.052C50.6619 114.451 51.8728 115.352 51.8728 115.352L51.8728 115.353Z" fill="#E6E6E6"/>
<path d="M75.9171 130.962C77.9269 128.966 78.5498 126.349 77.3085 125.116C76.0671 123.883 73.4316 124.502 71.4218 126.498C69.412 128.494 68.789 131.111 70.0304 132.343C71.2717 133.576 73.9073 132.957 75.9171 130.962Z" fill="#FFB6B6"/>
<path d="M31.8274 155.184L37.1144 163.874L67.9251 162.063L59.7211 151.563L31.8274 155.184Z" fill="#E6E6E6"/>
<path d="M41.0337 195.827C40.8543 195.827 40.6979 195.695 40.6729 195.514L31.4662 128.743C31.4389 128.545 31.5784 128.362 31.7779 128.335C31.9773 128.307 32.1612 128.447 32.1887 128.645L41.3954 195.415C41.4227 195.614 41.2832 195.796 41.0837 195.823C41.0668 195.826 41.0502 195.827 41.0337 195.827Z" fill="#E6E6E6"/>
<path d="M31.8274 195.912C31.626 195.912 31.4628 195.749 31.4628 195.55V128.707C31.4628 128.507 31.626 128.345 31.8274 128.345C32.0288 128.345 32.192 128.507 32.192 128.707V195.55C32.192 195.749 32.0287 195.912 31.8274 195.912Z" fill="#E6E6E6"/>
<path d="M78.0433 195.646C77.8883 195.646 77.7446 195.547 77.6956 195.392L55.9094 126.63C55.8489 126.44 55.9557 126.236 56.1478 126.176C56.3398 126.116 56.5446 126.222 56.605 126.413L78.3912 195.175C78.4516 195.366 78.3449 195.569 78.1528 195.629C78.1164 195.64 78.0795 195.646 78.0433 195.646Z" fill="#E6E6E6"/>
<path d="M71.3888 195.731C71.226 195.731 71.0777 195.622 71.0356 195.458L55.9038 134.77C55.8542 134.577 55.9721 134.38 56.1673 134.33C56.363 134.281 56.5609 134.398 56.6106 134.592L71.7425 195.279C71.792 195.473 71.6741 195.67 71.479 195.719C71.4488 195.727 71.4185 195.731 71.3888 195.731H71.3888Z" fill="#E6E6E6"/>
<path d="M31.8274 129.772L57.0775 129.386L61.7265 155.727H32.192L31.8274 129.772Z" fill="#E6E6E6"/>
<path d="M70.6307 168.504L64.2672 179.629L71.6558 181.244L74.7361 173.332L70.6307 168.504Z" fill="#FFB6B6"/>
<path d="M66.5528 177.529C66.5528 177.529 66.3055 175.715 64.8518 176.29C63.3981 176.866 59.2026 179.006 59.2026 179.006C59.2026 179.006 70.1454 196.662 72.2222 195.84C74.2989 195.017 71.8129 190.026 71.8129 190.026L72.3616 181.204L66.5528 177.529H66.5528Z" fill="#2F2E41"/>
<path d="M42.4882 146.917C42.4882 146.917 40.2177 157.288 47.1805 160.895C54.1433 164.503 77.9076 155.635 77.9076 155.635L67.0093 171.85L74.5776 174.874C74.5776 174.874 91.8332 152.328 90.6223 148.721C89.4114 145.113 81.2376 144.813 81.2376 144.813L62.7711 145.714L57.9274 144.211L42.4882 146.917H42.4882Z" fill="#2F2E41"/>
<path d="M61.2165 173.442L51.2125 181.505L57.5026 185.679L63.2713 179.422L61.2165 173.442Z" fill="#FFB6B6"/>
<path d="M54.1111 180.374C54.1111 180.374 54.5456 178.595 52.9806 178.606C51.4155 178.617 46.7236 179.094 46.7236 179.094C46.7236 179.094 50.4462 199.494 52.6819 199.478C54.9177 199.463 54.431 193.915 54.431 193.915L58.1749 185.896L54.1111 180.374Z" fill="#2F2E41"/>
<path d="M42.9139 143.165C42.9139 143.165 36.9986 152.005 42.1621 157.881C47.3257 163.757 72.7105 164.084 72.7105 164.084L56.6173 175.25L62.5586 180.801C62.5586 180.801 86.8932 166.036 87.0872 162.238C87.2812 158.441 79.778 155.207 79.778 155.207L62.2469 149.374L58.2861 146.224L42.9139 143.165H42.9139Z" fill="#2F2E41"/>
<path d="M58.1098 122.69C58.1098 122.69 52.3579 120.586 49.6334 120.586C49.373 120.586 49.1157 120.616 48.8584 120.67C47.1146 121.037 45.5102 122.525 44.7412 123.337C44.4415 123.655 44.269 123.869 44.269 123.869C44.269 123.869 44.2872 123.661 44.3235 123.298C44.5021 121.386 45.162 115.112 46.3457 111.096C46.7695 109.662 47.2569 108.517 47.817 107.96C49.1217 106.662 49.7242 105.105 50.0027 103.944C50.2388 102.949 50.2388 102.249 50.2388 102.249L48.0319 101.305L47.6232 98.6534C47.5506 98.966 47.2145 99.5763 46.0854 100.746C45.9885 100.845 45.8825 100.929 45.7705 101.001C44.1418 102.017 40.8209 100.25 39.0317 99.1374C39.7765 96.5671 41.1266 94.2163 43.5788 93.8315C49.3306 92.9297 49.3306 89.6229 52.9634 93.2303C53.2631 93.5279 53.5658 93.8135 53.8685 94.0901C55.031 96.2966 55.4549 99.2546 55.6062 101.311C55.7152 102.751 55.688 103.752 55.688 103.752C55.688 103.752 57.2016 112.77 59.6235 114.574C62.0453 116.378 58.1098 122.69 58.1098 122.69Z" fill="#2F2E41"/>
<path d="M46.9088 108.261L42.8184 114.219L52.0552 116.678V108.261H46.9088Z" fill="#FFB6B6"/>
<path opacity="0.1" d="M46.9088 108.261L42.8184 114.219L52.0552 116.678V108.261H46.9088Z" fill="black"/>
<path d="M52.6296 114L43.8505 110.392C43.8505 110.392 32.044 115.503 32.9522 125.423C33.8604 135.343 42.3368 152.478 42.3368 152.478L59.2897 145.264L57.4733 126.024L52.6296 114Z" fill="#E6E6E6"/>
<path d="M48.8655 110.921C53.1431 110.921 56.6108 107.478 56.6108 103.23C56.6108 98.982 53.1431 95.5386 48.8655 95.5386C44.5878 95.5386 41.1201 98.982 41.1201 103.23C41.1201 107.478 44.5878 110.921 48.8655 110.921Z" fill="#FFB6B6"/>
<path d="M59.3207 100.445C57.8071 101.948 56.5961 103.451 56.5961 103.451L55.9907 101.046C55.9907 101.046 55.8514 101.148 55.6062 101.311C54.6465 101.96 52.0703 103.592 50.0027 103.944C49.0824 104.1 48.265 104.001 47.7322 103.451C46.603 102.282 46.267 101.672 46.1943 101.359L45.7856 104.01L43.5787 104.954C43.5787 104.954 43.5787 108.255 46.0006 110.666C46.1186 110.783 46.2337 110.927 46.3457 111.096C47.5021 112.827 48.3316 117.066 48.8583 120.67C49.3245 123.875 49.5486 126.574 49.5486 126.574C49.5486 126.574 47.2569 123.725 44.7412 123.337C44.602 123.316 44.4627 123.301 44.3235 123.298C44.278 123.292 44.2296 123.292 44.1842 123.292C41.4596 123.292 35.7078 125.396 35.7078 125.396C35.7078 125.396 31.7723 119.083 34.1941 117.279C36.6159 115.476 38.1296 106.457 38.1296 106.457C38.1296 106.457 38.0297 102.597 39.0317 99.1374C39.7764 96.5671 41.1266 94.2163 43.5787 93.8315C49.3306 92.9297 49.3306 89.6229 52.9634 93.2303C53.2631 93.5279 53.5658 93.8135 53.8685 94.0901C57.2531 97.1804 60.7102 99.0652 59.3207 100.445Z" fill="#2F2E41"/>
<path d="M25.3503 140.798H22.4738V197.212H25.3503V140.798Z" fill="#3F3D56"/>
<path d="M95.1054 140.798H92.2289V197.212H95.1054V140.798Z" fill="#3F3D56"/>
<path d="M76.7676 116.876H57.7108V135.8H76.7676V116.876Z" fill="#3FBF77"/>
<path d="M46.7264 136.997L54.4747 132.104L57.6247 133.99L46.7264 146.426V136.997Z" fill="#FFB6B6"/>
<path d="M36.1309 118.058C36.1309 118.058 30.9845 119.26 33.4063 126.175C35.8282 133.089 43.6992 147.518 46.121 146.616C48.5428 145.714 48.8456 136.696 48.8456 136.696C48.8456 136.696 48.5428 136.997 47.3319 135.794C46.121 134.592 46.121 135.141 46.121 133.814C46.121 132.487 45.1306 131.504 45.1306 131.504L44.0019 129.181C44.0019 129.181 44.0019 118.359 39.4609 117.757C34.92 117.156 36.1309 118.058 36.1309 118.058H36.1309Z" fill="#E6E6E6"/>
<path d="M60.1751 133.667C62.1849 131.671 62.8079 129.054 61.5666 127.822C60.3252 126.589 57.6896 127.208 55.6798 129.203C53.67 131.199 53.0471 133.816 54.2884 135.049C55.5298 136.282 58.1653 135.663 60.1751 133.667Z" fill="#FFB6B6"/>
<path d="M100.858 138.656H13.8442V145.083H100.858V138.656Z" fill="#3F3D56"/>
<path d="M189.264 87.2411H176.413C175.395 87.2411 174.569 88.0611 174.569 89.0727V94.3357C174.569 95.3473 175.395 96.1673 176.413 96.1673H189.264C190.283 96.1673 191.109 95.3473 191.109 94.3357V89.0727C191.109 88.0611 190.283 87.2411 189.264 87.2411Z" fill="#3F3D56"/>
<path d="M216.231 92.504H203.38C202.362 92.504 201.536 93.3241 201.536 94.3357V94.3357C201.536 95.3473 202.362 96.1673 203.38 96.1673H216.231C217.25 96.1673 218.076 95.3473 218.076 94.3357C218.076 93.3241 217.25 92.504 216.231 92.504Z" fill="#3FBF77"/>
</g>
<defs>
<clipPath id="clip0_134_218">
<rect width="306" height="199" fill="white" transform="translate(0.779907 0.478271)"/>
</clipPath>
</defs>
</svg>
