<svg width="168" height="155" viewBox="0 0 168 155" fill="none" xmlns="http://www.w3.org/2000/svg">
<path d="M117.25 51.6666C108.5 51.6666 100.45 54.8958 94.5 60.0625C88.55 54.8958 80.5 51.6666 71.75 51.6666C53.55 51.6666 38.5 65.552 38.5 82.3437V119.479H59.5V79.1145C59.5 72.9791 65.1 67.8125 71.75 67.8125C78.4 67.8125 84 72.9791 84 79.1145V119.479H105V79.1145C105 72.9791 110.6 67.8125 117.25 67.8125C123.9 67.8125 129.5 72.9791 129.5 79.1145V119.479H150.5V82.3437C150.5 65.552 135.45 51.6666 117.25 51.6666Z" fill="#3FBF77"/>
<path d="M19.25 52.3125H22.75V103.333H19.25V52.3125Z" fill="black"/>
<path d="M76.0207 44C79.8707 45.2917 85.1207 50.4583 86.5207 53.6875C80.2207 59.1771 77.4207 63.0521 76.0207 73.0625C75.6707 76.6146 72.8707 78.5521 69.0207 76.2917C58.1707 70.1562 48.0207 69.8333 41.0207 69.8333C37.5207 66.6042 39.2707 57.8854 41.0207 53.6875L62.0207 56.9167L76.0207 44Z" fill="#424242"/>
<path d="M63 54.8958H14L52.5 32.2916H101.5L63 54.8958Z" fill="#616161"/>
<path d="M26.25 96.875C26.25 89.7709 23.8 83.9584 21 83.9584C18.2 83.9584 15.75 89.7709 15.75 96.875C15.75 103.979 18.2 109.792 21 109.792C23.8 109.792 26.25 103.979 26.25 96.875Z" fill="#424242"/>
</svg>
