<svg width="237" height="217" viewBox="0 0 237 217" fill="none" xmlns="http://www.w3.org/2000/svg">
<g clip-path="url(#clip0_134_100)">
<path d="M167.569 198.194H59.923C57.3665 198.191 54.9156 197.179 53.1082 195.381C51.3008 193.582 50.2846 191.144 50.2826 188.601V147.441C50.0597 147.694 49.8265 147.944 49.5863 148.186V188.601C49.5888 191.327 50.6785 193.941 52.6164 195.87C54.5543 197.798 57.182 198.883 59.923 198.886H167.872C167.768 198.658 167.667 198.426 167.569 198.194ZM50.2826 46.058C50.2846 43.515 51.3008 41.0767 53.1082 39.2782C54.9156 37.4797 57.3665 36.468 59.923 36.4651H95.79C95.7239 36.2331 95.6612 36.0045 95.602 35.7725H59.923C57.182 35.7759 54.5543 36.8607 52.6164 38.789C50.6785 40.7173 49.5888 43.3315 49.5863 46.058V109.156C49.8265 109.399 50.0563 109.648 50.2826 109.901V46.058ZM194.823 54.1479L172.332 36.427C171.795 36.0036 171.13 35.7729 170.445 35.7725H150.43C150.374 36.0045 150.311 36.2365 150.245 36.4651H170.445C170.973 36.4664 171.485 36.6431 171.9 36.9672L194.391 54.6916C194.605 54.8591 194.777 55.0727 194.895 55.3163C195.014 55.5599 195.075 55.8271 195.074 56.0976V159.24C195.307 159.247 195.54 159.265 195.77 159.282V56.0976C195.771 55.7225 195.687 55.3519 195.523 55.0141C195.358 54.6763 195.119 54.3801 194.823 54.1479Z" fill="#3F3D56"/>
<path d="M194.526 55.0627H176.378C175.722 55.0627 175.072 54.9342 174.466 54.6845C173.86 54.4348 173.31 54.0688 172.846 53.6074C172.382 53.146 172.014 52.5982 171.763 51.9953C171.512 51.3925 171.383 50.7464 171.383 50.0938V36.761C171.383 36.7026 171.399 36.6454 171.43 36.596C171.461 36.5465 171.506 36.5068 171.559 36.4814C171.612 36.456 171.671 36.4459 171.729 36.4523C171.787 36.4587 171.843 36.4813 171.889 36.5176L194.72 54.5088C194.77 54.5488 194.807 54.6036 194.826 54.6655C194.844 54.7274 194.842 54.7934 194.821 54.8543C194.799 54.9152 194.759 54.968 194.707 55.0053C194.654 55.0427 194.591 55.0627 194.526 55.0627Z" fill="#E6E6E6"/>
<path d="M194.526 55.4091H176.378C174.961 55.4075 173.603 54.847 172.601 53.8505C171.6 52.854 171.036 51.503 171.034 50.0938V36.7611C171.034 36.6376 171.069 36.5166 171.135 36.412C171.201 36.3075 171.296 36.2235 171.407 36.1697C171.519 36.1159 171.644 36.0946 171.767 36.1081C171.89 36.1216 172.008 36.1694 172.105 36.246L194.936 54.2374C195.043 54.3221 195.122 54.4379 195.16 54.5689C195.198 54.6999 195.195 54.8394 195.149 54.9682C195.104 55.097 195.02 55.2087 194.908 55.2877C194.797 55.3667 194.663 55.4091 194.526 55.4091ZM171.731 36.835V50.0938C171.732 51.3194 172.222 52.4944 173.093 53.361C173.965 54.2276 175.146 54.7151 176.378 54.7165H194.422L171.731 36.835Z" fill="#3F3D56"/>
<path d="M158.502 78.044H105.114C104.452 78.044 103.816 77.7822 103.348 77.3163C102.879 76.8504 102.616 76.2185 102.616 75.5595C102.616 74.9006 102.879 74.2687 103.348 73.8028C103.816 73.3368 104.452 73.0751 105.114 73.0751H158.502C159.164 73.0751 159.799 73.3368 160.268 73.8028C160.736 74.2687 160.999 74.9006 160.999 75.5595C160.999 76.2185 160.736 76.8504 160.268 77.3163C159.799 77.7822 159.164 78.044 158.502 78.044Z" fill="#CCCCCC"/>
<path d="M168.805 86.429H105.114C104.452 86.429 103.816 86.1672 103.348 85.7013C102.879 85.2354 102.616 84.6035 102.616 83.9445C102.616 83.2856 102.879 82.6537 103.348 82.1878C103.816 81.7218 104.452 81.4601 105.114 81.4601H168.805C169.467 81.4601 170.102 81.7218 170.571 82.1878C171.039 82.6537 171.302 83.2856 171.302 83.9445C171.302 84.6035 171.039 85.2354 170.571 85.7013C170.102 86.1672 169.467 86.429 168.805 86.429H168.805Z" fill="#CCCCCC"/>
<path d="M158.502 115.621H105.114C104.452 115.621 103.816 115.36 103.348 114.894C102.879 114.428 102.616 113.796 102.616 113.137C102.616 112.478 102.879 111.846 103.348 111.38C103.816 110.914 104.452 110.652 105.114 110.652H158.502C159.164 110.652 159.799 110.914 160.268 111.38C160.736 111.846 160.999 112.478 160.999 113.137C160.999 113.796 160.736 114.428 160.268 114.894C159.799 115.36 159.164 115.621 158.502 115.621Z" fill="#CCCCCC"/>
<path d="M168.805 124.006H105.114C104.452 124.006 103.816 123.745 103.348 123.279C102.879 122.813 102.616 122.181 102.616 121.522C102.616 120.863 102.879 120.231 103.348 119.765C103.816 119.299 104.452 119.037 105.114 119.037H168.805C169.467 119.037 170.102 119.299 170.571 119.765C171.039 120.231 171.302 120.863 171.302 121.522C171.302 122.181 171.039 122.813 170.571 123.279C170.102 123.745 169.467 124.006 168.805 124.006H168.805Z" fill="#CCCCCC"/>
<path d="M158.502 153.199H105.114C104.786 153.199 104.461 153.134 104.158 153.01C103.855 152.885 103.58 152.702 103.348 152.471C103.116 152.24 102.932 151.967 102.806 151.665C102.681 151.364 102.616 151.041 102.616 150.714C102.616 150.388 102.681 150.065 102.806 149.764C102.932 149.462 103.116 149.188 103.348 148.958C103.58 148.727 103.855 148.544 104.158 148.419C104.461 148.294 104.786 148.23 105.114 148.23H158.502C159.164 148.23 159.799 148.492 160.268 148.958C160.736 149.423 160.999 150.055 160.999 150.714C160.999 151.373 160.736 152.005 160.268 152.471C159.799 152.937 159.164 153.199 158.502 153.199Z" fill="#CCCCCC"/>
<path d="M168.805 161.584H105.114C104.786 161.584 104.461 161.52 104.158 161.395C103.855 161.27 103.58 161.087 103.348 160.856C103.116 160.625 102.932 160.352 102.806 160.05C102.681 159.749 102.616 159.426 102.616 159.099C102.616 158.773 102.681 158.45 102.806 158.149C102.932 157.847 103.116 157.573 103.348 157.343C103.58 157.112 103.855 156.929 104.158 156.804C104.461 156.679 104.786 156.615 105.114 156.615H168.805C169.133 156.615 169.457 156.679 169.76 156.804C170.063 156.929 170.339 157.112 170.571 157.343C170.803 157.573 170.987 157.847 171.112 158.149C171.238 158.45 171.302 158.773 171.302 159.099C171.302 159.426 171.238 159.749 171.112 160.05C170.987 160.352 170.803 160.625 170.571 160.856C170.339 161.087 170.063 161.27 169.76 161.395C169.457 161.52 169.133 161.584 168.805 161.584H168.805Z" fill="#CCCCCC"/>
<path d="M82.882 88.5332C87.7575 88.5332 91.7098 84.6017 91.7098 79.752C91.7098 74.9023 87.7575 70.9708 82.882 70.9708C78.0065 70.9708 74.0541 74.9023 74.0541 79.752C74.0541 84.6017 78.0065 88.5332 82.882 88.5332Z" fill="#3FBF77"/>
<path d="M82.0073 83.1019C81.8087 83.1022 81.6153 83.0383 81.4564 82.9198L81.4466 82.9124L79.3719 81.3338C79.2756 81.2606 79.1948 81.1692 79.134 81.0649C79.0733 80.9606 79.0338 80.8454 79.0178 80.7259C79.0018 80.6064 79.0097 80.4849 79.041 80.3684C79.0723 80.252 79.1263 80.1428 79.2 80.0471C79.2738 79.9514 79.3658 79.8712 79.4707 79.8109C79.5757 79.7506 79.6915 79.7115 79.8117 79.6958C79.9319 79.6801 80.054 79.6881 80.171 79.7194C80.2881 79.7507 80.3977 79.8046 80.4938 79.8781L81.8376 80.9032L85.0131 76.7823C85.0867 76.6868 85.1786 76.6066 85.2833 76.5464C85.3881 76.4861 85.5038 76.447 85.6238 76.4312C85.7438 76.4155 85.8657 76.4234 85.9826 76.4545C86.0995 76.4856 86.2091 76.5393 86.3052 76.6126L86.3055 76.6128L86.2858 76.64L86.306 76.6128C86.4998 76.7609 86.6265 76.9794 86.6585 77.2204C86.6905 77.4614 86.625 77.7052 86.4765 77.8983L82.7414 82.7431C82.655 82.8548 82.5439 82.9451 82.4167 83.0071C82.2895 83.0691 82.1497 83.1012 82.0081 83.1008L82.0073 83.1019Z" fill="white"/>
<path d="M82.882 126.111C87.7575 126.111 91.7098 122.179 91.7098 117.329C91.7098 112.48 87.7575 108.548 82.882 108.548C78.0065 108.548 74.0541 112.48 74.0541 117.329C74.0541 122.179 78.0065 126.111 82.882 126.111Z" fill="#E6E6E6"/>
<path d="M82.0072 120.679C81.8086 120.679 81.6153 120.616 81.4564 120.497L81.4465 120.49L79.3719 118.911C79.1778 118.763 79.0508 118.544 79.0188 118.303C78.9868 118.062 79.0524 117.818 79.2011 117.625C79.3499 117.432 79.5697 117.306 79.8121 117.274C80.0545 117.242 80.2997 117.307 80.4938 117.455L81.8376 118.48L85.0131 114.36C85.0867 114.264 85.1785 114.184 85.2833 114.124C85.3881 114.063 85.5038 114.024 85.6238 114.009C85.7438 113.993 85.8657 114.001 85.9826 114.032C86.0995 114.063 86.2091 114.117 86.3052 114.19L86.3054 114.19L86.2857 114.217L86.306 114.19C86.4997 114.338 86.6265 114.557 86.6585 114.798C86.6904 115.039 86.625 115.282 86.4764 115.476L82.7414 120.32C82.655 120.432 82.5439 120.522 82.4167 120.584C82.2895 120.646 82.1497 120.678 82.008 120.678L82.0072 120.679Z" fill="white"/>
<path d="M82.882 163.688C87.7575 163.688 91.7098 159.756 91.7098 154.907C91.7098 150.057 87.7575 146.126 82.882 146.126C78.0065 146.126 74.0541 150.057 74.0541 154.907C74.0541 159.756 78.0065 163.688 82.882 163.688Z" fill="#E6E6E6"/>
<path d="M82.0073 158.257C81.8087 158.257 81.6153 158.193 81.4564 158.074L81.4466 158.067L79.3719 156.488C79.2756 156.415 79.1948 156.324 79.134 156.22C79.0733 156.115 79.0338 156 79.0178 155.881C79.0018 155.761 79.0097 155.64 79.041 155.523C79.0723 155.407 79.1263 155.297 79.2 155.202C79.2738 155.106 79.3658 155.026 79.4707 154.966C79.5757 154.905 79.6915 154.866 79.8117 154.85C79.9319 154.835 80.054 154.843 80.171 154.874C80.2881 154.905 80.3977 154.959 80.4938 155.033L81.8376 156.058L85.0131 151.937C85.0867 151.841 85.1786 151.761 85.2833 151.701C85.3881 151.641 85.5038 151.602 85.6238 151.586C85.7438 151.57 85.8657 151.578 85.9826 151.609C86.0995 151.64 86.2091 151.694 86.3052 151.767L86.3055 151.767L86.2858 151.795L86.306 151.767C86.4998 151.916 86.6265 152.134 86.6585 152.375C86.6905 152.616 86.625 152.86 86.4765 153.053L82.7414 157.898C82.655 158.009 82.5439 158.1 82.4167 158.162C82.2895 158.224 82.1497 158.256 82.0081 158.255L82.0073 158.257Z" fill="white"/>
<path d="M207 212.851C206.502 213.11 205.995 213.355 205.48 213.587C205.011 213.797 204.534 213.996 204.05 214.181C203.873 214.248 203.693 214.315 203.513 214.382C202.091 214.896 200.629 215.297 199.143 215.581C198.407 215.725 197.661 215.838 196.906 215.92C196.283 215.99 195.653 216.04 195.017 216.07C194.564 216.093 194.11 216.102 193.654 216.102C191.847 216.103 190.044 215.935 188.268 215.6C187.805 215.517 187.352 215.418 186.899 215.309C184.707 214.787 182.585 214.008 180.578 212.989C180.398 212.899 180.218 212.803 180.038 212.711C179.771 212.57 179.511 212.423 179.251 212.27C179.376 212.097 179.511 211.927 179.649 211.761C181.153 209.908 183.032 208.39 185.165 207.307C187.298 206.224 189.637 205.601 192.028 205.477C194.419 205.354 196.81 205.733 199.044 206.589C201.278 207.446 203.306 208.762 204.995 210.451C205.581 211.036 206.125 211.662 206.621 212.324C206.753 212.496 206.878 212.672 207 212.851Z" fill="#3FBF77"/>
<path d="M194.295 198.81C202.089 198.81 208.406 192.525 208.406 184.773C208.406 177.021 202.089 170.737 194.295 170.737C186.502 170.737 180.185 177.021 180.185 184.773C180.185 192.525 186.502 198.81 194.295 198.81Z" fill="#2F2E41"/>
<path d="M198.048 198.829C203.138 196.062 205.008 189.714 202.226 184.652C199.444 179.589 193.063 177.729 187.973 180.496C182.884 183.264 181.013 189.611 183.796 194.674C186.578 199.736 192.959 201.597 198.048 198.829Z" fill="#A0616A"/>
<path d="M204.046 183.092C201.647 184.737 198.798 185.613 195.883 185.601C196.923 186.318 198.107 186.803 199.353 187.021C195.477 187.848 191.472 187.87 187.588 187.087C186.724 186.949 185.891 186.664 185.125 186.245C184.743 186.033 184.41 185.743 184.148 185.395C183.886 185.047 183.701 184.647 183.605 184.223C183.346 182.756 184.495 181.423 185.689 180.525C187.518 179.171 189.626 178.238 191.861 177.794C194.096 177.35 196.403 177.405 198.614 177.956C200.057 178.328 201.504 178.955 202.441 180.108C203.379 181.261 203.657 183.039 202.763 184.227L204.046 183.092Z" fill="#2F2E41"/>
<path d="M195.77 158.638C195.54 158.62 195.307 158.607 195.074 158.596C194.604 158.572 194.13 158.562 193.653 158.562C188.91 158.562 184.241 159.722 180.055 161.94C175.869 164.158 172.296 167.367 169.65 171.282C167.005 175.197 165.367 179.7 164.883 184.393C164.399 189.086 165.082 193.825 166.873 198.194C166.967 198.426 167.065 198.658 167.169 198.886C169.562 204.278 173.55 208.815 178.602 211.894L178.787 212.001C178.944 212.095 179.097 212.185 179.25 212.268C179.511 212.424 179.772 212.569 180.037 212.711C180.218 212.805 180.399 212.898 180.576 212.988C182.584 214.008 184.707 214.787 186.899 215.309C187.352 215.419 187.804 215.516 188.267 215.599C190.043 215.934 191.846 216.102 193.653 216.102C194.109 216.102 194.562 216.091 195.018 216.07C195.652 216.043 196.282 215.991 196.905 215.921C197.661 215.838 198.407 215.725 199.144 215.582C200.629 215.297 202.09 214.896 203.513 214.384C203.694 214.315 203.875 214.249 204.049 214.18C204.537 213.996 205.01 213.799 205.48 213.587C205.995 213.355 206.503 213.109 207.002 212.85C212.004 210.243 216.138 206.249 218.905 201.352C218.918 201.326 218.931 201.301 218.947 201.276C221.302 197.053 222.551 192.308 222.578 187.479C222.604 182.649 221.408 177.891 219.098 173.643C216.789 169.394 213.442 165.793 209.365 163.171C205.288 160.548 200.612 158.989 195.77 158.638L195.77 158.638ZM221.436 192.611C220.877 195.516 219.858 198.314 218.418 200.902C218.393 200.947 218.369 200.992 218.345 201.033C215.635 205.859 211.558 209.785 206.622 212.323C206.128 212.58 205.627 212.82 205.121 213.044C204.7 213.231 204.269 213.411 203.833 213.577C203.652 213.646 203.464 213.719 203.28 213.781C202.05 214.228 200.79 214.587 199.509 214.855C198.56 215.057 197.6 215.207 196.633 215.305C196.038 215.371 195.436 215.416 194.826 215.437C194.437 215.454 194.047 215.464 193.653 215.464C191.904 215.465 190.16 215.303 188.441 214.98C187.396 214.789 186.362 214.537 185.346 214.225C183.799 213.75 182.295 213.144 180.851 212.413C180.684 212.327 180.517 212.24 180.354 212.15C180.117 212.025 179.88 211.897 179.65 211.762C179.476 211.665 179.302 211.561 179.132 211.461C179.031 211.402 178.933 211.343 178.832 211.281C174.023 208.324 170.207 204.009 167.872 198.886C167.768 198.658 167.667 198.426 167.569 198.194C165.77 193.918 165.061 189.267 165.505 184.654C165.948 180.04 167.531 175.607 170.112 171.748C172.693 167.89 176.193 164.726 180.3 162.537C184.407 160.348 188.994 159.203 193.653 159.202C194.13 159.202 194.604 159.213 195.074 159.24C195.307 159.247 195.54 159.265 195.77 159.282C199.743 159.581 203.607 160.712 207.11 162.599C210.614 164.487 213.677 167.088 216.1 170.235C218.522 173.381 220.25 177 221.17 180.856C222.089 184.712 222.18 188.718 221.436 192.611L221.436 192.611Z" fill="#3F3D56"/>
<path d="M187.15 170.931C186.998 169.343 185.042 168.365 183.512 168.845C181.983 169.324 180.979 170.856 180.675 172.423C180.529 173.082 180.515 173.764 180.635 174.429C180.754 175.094 181.004 175.729 181.371 176.298C182.144 177.404 183.565 178.095 184.89 177.814C186.403 177.493 187.451 176.024 187.75 174.515C188.05 173.006 187.753 171.45 187.455 169.94L187.15 170.931Z" fill="#2F2E41"/>
<path d="M208.675 173.199C208.523 171.611 206.568 170.634 205.038 171.113C203.509 171.593 202.504 173.125 202.201 174.691C202.055 175.351 202.041 176.033 202.16 176.698C202.28 177.363 202.53 177.998 202.897 178.566C203.67 179.673 205.09 180.364 206.416 180.083C207.928 179.762 208.976 178.293 209.276 176.784C209.576 175.274 209.278 173.718 208.981 172.209L208.675 173.199Z" fill="#2F2E41"/>
<path d="M138.443 52.827C133.966 55.6787 128.778 57.2337 123.463 57.3179C118.147 57.402 112.913 56.0119 108.347 53.3033C109.15 51.816 110.168 50.4537 111.368 49.2596C113.219 47.4092 115.473 46.0056 117.954 45.1566C120.436 44.3076 123.081 44.0358 125.685 44.3621C128.289 44.6884 130.783 45.604 132.976 47.0388C135.168 48.4735 137.001 50.3891 138.333 52.6384C138.369 52.6992 138.407 52.7631 138.443 52.827Z" fill="#3FBF77"/>
<path d="M122.138 37.5408C129.983 37.5408 136.343 31.2148 136.343 23.4113C136.343 15.6077 129.983 9.28174 122.138 9.28174C114.293 9.28174 107.934 15.6077 107.934 23.4113C107.934 31.2148 114.293 37.5408 122.138 37.5408Z" fill="#2F2E41"/>
<path d="M131.315 33.3774C134.116 28.2812 132.233 21.8915 127.11 19.1057C121.987 16.3198 115.563 18.1928 112.762 23.289C109.962 28.3852 111.844 34.7749 116.968 37.5607C122.091 40.3465 128.515 38.4736 131.315 33.3774Z" fill="#FFB8B8"/>
<path d="M112.323 21.7185C114.738 23.3748 117.606 24.2563 120.54 24.2447C119.493 24.9665 118.302 25.4541 117.048 25.6739C120.949 26.5063 124.98 26.5288 128.891 25.7401C129.76 25.6015 130.599 25.3149 131.37 24.8931C131.754 24.6795 132.089 24.3879 132.353 24.0372C132.617 23.6864 132.803 23.2844 132.9 22.8573C133.16 21.3807 132.003 20.0392 130.801 19.1352C128.961 17.7721 126.839 16.833 124.589 16.3857C122.339 15.9385 120.017 15.9943 117.792 16.5492C116.338 16.9229 114.882 17.5542 113.938 18.7151C112.994 19.8761 112.715 21.6658 113.614 22.8613L112.323 21.7185Z" fill="#2F2E41"/>
<path d="M123.009 0.102173C115.341 0.110654 107.989 3.1442 102.567 8.53737C97.1441 13.9305 94.0936 21.2429 94.0841 28.8705C94.0853 31.1973 94.3729 33.5152 94.9406 35.7725C94.9997 36.0045 95.0589 36.2366 95.1216 36.4651C96.79 42.5497 100.424 47.9194 105.464 51.7464C110.503 55.5733 116.669 57.6451 123.009 57.6422C129.35 57.6421 135.516 55.5695 140.558 51.7432C145.6 47.917 149.238 42.5491 150.914 36.4651C150.976 36.2331 151.035 36.0045 151.091 35.7725C152.14 31.5346 152.206 27.1149 151.285 22.8476C150.364 18.5804 148.48 14.5773 145.775 11.1411C143.07 7.70485 139.614 4.92544 135.67 3.01302C131.726 1.1006 127.397 0.105226 123.009 0.102173ZM150.43 35.7725C150.374 36.0045 150.311 36.2366 150.245 36.4651C149.07 40.6265 146.948 44.4629 144.042 47.6767C141.137 50.8906 137.526 53.3955 133.49 54.9974C129.454 56.5993 125.102 57.255 120.77 56.9137C116.438 56.5724 112.244 55.2432 108.512 53.0293C102.309 49.3166 97.7604 43.394 95.7901 36.4651C95.7239 36.2331 95.6612 36.0045 95.602 35.7725C95.0218 33.5172 94.7283 31.1984 94.7282 28.8705C94.7327 24.8856 95.5884 20.9471 97.2384 17.3159C98.8885 13.6848 101.295 10.4438 104.3 7.8076C107.304 5.17144 110.837 3.20028 114.665 2.02468C118.492 0.849086 122.528 0.495889 126.503 0.988482C130.478 1.48107 134.303 2.80821 137.724 4.882C141.145 6.95578 144.084 9.72888 146.346 13.0176C148.608 16.3064 150.142 20.0357 150.846 23.9585C151.55 27.8814 151.408 31.9083 150.43 35.7725H150.43Z" fill="#3F3D56"/>
<path d="M44.66 152.612C40.1832 155.464 34.9964 157.019 29.681 157.103C24.3655 157.188 19.1315 155.798 14.5654 153.09C14.614 152.996 14.6662 152.903 14.722 152.813C16.1866 150.187 18.3211 147.991 20.9104 146.446C23.4997 144.902 26.4525 144.063 29.4713 144.015C32.4901 143.967 35.4683 144.711 38.106 146.172C40.7438 147.633 42.9478 149.76 44.4963 152.338C44.5172 152.366 44.5345 152.397 44.552 152.425C44.5869 152.484 44.6251 152.55 44.66 152.612Z" fill="#3FBF77"/>
<path d="M42.5605 123.196C42.5605 125.99 41.7274 128.722 40.1665 131.046C38.6057 133.369 36.3872 135.18 33.7917 136.25C31.1961 137.319 28.34 137.599 25.5846 137.054C22.8291 136.509 20.2981 135.163 18.3116 133.187C16.325 131.211 14.9721 128.693 14.4241 125.952C13.876 123.212 14.1573 120.371 15.2324 117.789C16.3075 115.207 18.1282 113 20.4641 111.448C22.8001 109.895 25.5464 109.066 28.3558 109.066C30.2237 109.057 32.0748 109.417 33.8023 110.124C35.5297 110.831 37.0992 111.871 38.42 113.185C39.7408 114.499 40.7868 116.06 41.4974 117.778C42.2081 119.497 42.5694 121.338 42.5605 123.196Z" fill="#2F2E41"/>
<path d="M39.4863 131.975C39.3237 132.382 39.1365 132.779 38.9258 133.163C37.5807 135.61 35.3136 137.425 32.623 138.21C29.9324 138.995 27.0387 138.684 24.5783 137.346C23.3591 136.685 22.2829 135.79 21.4113 134.714C20.5397 133.639 19.8897 132.403 19.4985 131.077C19.1073 129.751 18.9826 128.362 19.1314 126.988C19.2803 125.615 19.6998 124.284 20.366 123.071C21.0323 121.859 21.9321 120.789 23.0142 119.923C24.0962 119.057 25.3393 118.411 26.6723 118.023C28.0053 117.635 29.4022 117.511 30.783 117.66C32.1639 117.81 33.5017 118.228 34.72 118.891C36.9801 120.121 38.7114 122.128 39.589 124.537C40.4666 126.946 40.43 129.591 39.4863 131.975Z" fill="#A0616A"/>
<path d="M50.2827 108.963C50.0598 108.72 49.8266 108.481 49.5864 108.249C45.7178 104.436 40.8447 101.787 35.5287 100.608C30.2126 99.4289 24.6699 99.768 19.5392 101.586C14.4084 103.404 9.89836 106.627 6.52869 110.883C3.15902 115.14 1.06683 120.256 0.493188 125.644C-0.080457 131.031 0.887777 136.471 3.28634 141.335C5.6849 146.199 9.41619 150.29 14.0503 153.137C18.6844 155.983 24.0327 157.47 29.4791 157.425C34.9254 157.38 40.2482 155.805 44.8341 152.882C46.5467 151.789 48.1395 150.52 49.5864 149.097C49.8232 148.865 50.0564 148.629 50.2827 148.387C55.3342 143.053 58.1475 136.002 58.1475 128.675C58.1475 121.347 55.3342 114.296 50.2827 108.963V108.963ZM49.5864 148.186C48.0574 149.762 46.3492 151.155 44.4963 152.338C44.4929 152.342 44.4893 152.342 44.4859 152.345C40.0591 155.164 34.9304 156.702 29.6747 156.785C24.419 156.868 19.2438 155.494 14.729 152.816C14.7256 152.816 14.7256 152.813 14.722 152.813C11.2594 150.759 8.27826 147.992 5.97866 144.698C3.67906 141.404 2.11414 137.659 1.38884 133.715C0.663548 129.77 0.794649 125.716 1.77336 121.826C2.75207 117.936 4.55575 114.298 7.06344 111.158C9.57113 108.018 12.7249 105.448 16.3131 103.62C19.9013 101.791 23.8411 100.747 27.8682 100.558C31.8952 100.368 35.9165 101.037 39.6623 102.52C43.4081 104.003 46.7918 106.266 49.5864 109.156C49.8266 109.399 50.0564 109.648 50.2827 109.901C54.9321 115.059 57.5034 121.743 57.5034 128.671C57.5034 135.599 54.9321 142.283 50.2827 147.441C50.0598 147.694 49.8266 147.944 49.5864 148.186Z" fill="#3F3D56"/>
<path d="M39.8684 111.462C39.1686 110.28 38.1542 109.314 36.9372 108.67C35.7201 108.026 34.3478 107.729 32.9717 107.812C31.5274 107.92 30.1532 108.449 28.8038 108.972L21.9435 111.634C20.1684 112.323 18.2242 113.167 17.4539 114.9C16.7389 116.51 17.2723 118.368 17.8123 120.043L20.379 128.006C20.7307 126.217 21.0879 124.411 21.8335 122.746C22.579 121.081 23.7582 119.546 25.3885 118.714C27.1704 117.804 29.2707 117.823 31.2712 117.919C34.1043 118.055 37.1848 118.413 39.1977 120.401C40.2663 121.53 40.9908 122.937 41.2868 124.459C41.5783 125.974 41.725 127.512 41.725 129.053C42.8868 127.067 43.8654 124.98 44.649 122.818C45.2935 121.208 45.6608 119.502 45.7354 117.771C45.7507 116.042 45.2586 114.258 44.0996 112.97C42.9406 111.681 41.0522 110.985 39.3914 111.496" fill="#2F2E41"/>
<path d="M18.2358 73.4663L17.5396 73.4582C17.5478 72.7656 17.5679 72.0626 17.5992 71.3691L18.2948 71.4003C18.2639 72.0861 18.244 72.7813 18.2358 73.4663Z" fill="#E6E6E6"/>
<path d="M18.6007 67.4452L17.9084 67.3701C18.0538 66.0462 18.2442 64.711 18.4744 63.4017L19.1603 63.5211C18.9327 64.8157 18.7444 66.136 18.6007 67.4452ZM19.9732 59.6408L19.2964 59.4778C19.6115 58.1843 19.9734 56.8847 20.372 55.6146L21.0367 55.8209C20.6426 57.0767 20.2847 58.3621 19.9732 59.6408ZM22.3485 52.0733L21.6986 51.8244C22.1795 50.5818 22.7079 49.3385 23.2689 48.1287L23.9012 48.4189C23.3464 49.6151 22.824 50.8446 22.3485 52.0733ZM25.688 44.8724L25.0759 44.5423C25.7134 43.3728 26.3981 42.2079 27.1111 41.0799L27.7006 41.4485C26.9955 42.564 26.3184 43.7159 25.688 44.8724L25.688 44.8724ZM29.9299 38.1607L29.3654 37.7552C30.1488 36.6762 30.9777 35.6083 31.829 34.5814L32.3662 35.0221C31.5243 36.0377 30.7047 37.0935 29.9299 38.1607V38.1607ZM34.9991 32.0452L34.4913 31.5714C35.4061 30.6015 36.365 29.6479 37.3412 28.737L37.8175 29.2423C36.8521 30.1431 35.9038 31.0861 34.9991 32.0452V32.0452ZM40.8098 26.6243L40.3669 26.0899C41.399 25.2434 42.472 24.4194 43.5561 23.6409L43.9638 24.2023C42.8917 24.9724 41.8306 25.7872 40.8098 26.6243V26.6243ZM47.2667 21.9868L46.8961 21.4003C48.0286 20.6921 49.1985 20.0119 50.3732 19.3782L50.7051 19.987C49.5435 20.6137 48.3866 21.2864 47.2667 21.9868V21.9868ZM54.265 18.2123L53.9733 17.5833C55.1867 17.0264 56.4343 16.5017 57.6815 16.0237L57.9318 16.67C56.6985 17.1426 55.4649 17.6616 54.265 18.2123V18.2123ZM61.6899 15.367L61.4821 14.7059C62.7584 14.309 64.0649 13.9485 65.3654 13.6345L65.5296 14.3075C64.2438 14.6181 62.9519 14.9746 61.6899 15.3671V15.367ZM69.4301 13.4973L69.31 12.8152C70.626 12.5857 71.9681 12.3958 73.2992 12.2507L73.375 12.9393C72.0587 13.0827 70.7315 13.2706 69.4301 13.4973V13.4973Z" fill="#E6E6E6"/>
<path d="M77.3749 12.6325L77.3436 11.9406C78.0411 11.9095 78.7476 11.8895 79.4437 11.8812L79.452 12.5739C78.7635 12.582 78.0647 12.6018 77.3749 12.6325Z" fill="#E6E6E6"/>
<path d="M20.8074 71.2399L20.3099 70.7547L17.9097 73.1966L15.6363 70.637L15.1144 71.0965L17.884 74.2133L20.8074 71.2399Z" fill="#E6E6E6"/>
<path d="M77.2139 15.1318L76.7262 14.6369L79.181 12.2494L76.6078 9.988L77.0698 9.46887L80.2032 12.2238L77.2139 15.1318Z" fill="#E6E6E6"/>
<path d="M181.386 19.4808C180.773 19.16 180.156 18.8447 179.534 18.5349L179.845 17.9156C180.472 18.2273 181.093 18.5447 181.71 18.8678L181.386 19.4808Z" fill="#E6E6E6"/>
<path d="M228.702 147.315L228.058 147.052C228.582 145.78 229.085 144.483 229.555 143.196L230.21 143.433C229.737 144.728 229.229 146.034 228.702 147.315ZM231.557 139.493L230.893 139.283C231.31 137.975 231.706 136.642 232.069 135.319L232.741 135.501C232.375 136.833 231.977 138.176 231.557 139.493ZM233.759 131.464L233.08 131.309C233.388 129.971 233.672 128.609 233.924 127.262L234.608 127.389C234.355 128.745 234.069 130.116 233.759 131.464V131.464ZM235.289 123.282L234.599 123.183C234.796 121.825 234.966 120.444 235.105 119.08L235.798 119.15C235.657 120.524 235.486 121.914 235.289 123.282V123.282ZM236.136 115.001L235.441 114.959C235.524 113.59 235.579 112.201 235.605 110.828L236.301 110.842C236.275 112.223 236.219 113.623 236.136 115.001ZM236.295 106.679L235.599 106.694C235.585 106.092 235.567 105.49 235.542 104.888C235.511 104.117 235.471 103.335 235.422 102.563L236.117 102.519C236.166 103.296 236.207 104.084 236.238 104.861C236.263 105.466 236.282 106.072 236.295 106.679L236.295 106.679ZM235.075 98.4449C234.932 97.0803 234.758 95.7005 234.559 94.3439L235.248 94.2437C235.449 95.6097 235.623 96.9989 235.768 98.373L235.075 98.4449ZM233.875 90.2665C233.621 88.9192 233.335 87.5578 233.025 86.2202L233.703 86.0645C234.015 87.4114 234.303 88.7821 234.56 90.1387L233.875 90.2665ZM232.009 82.2112C231.645 80.8869 231.248 79.5531 230.83 78.2463L231.494 78.0364C231.915 79.352 232.314 80.6951 232.681 82.0284L232.009 82.2112ZM229.49 74.3323C229.019 73.0424 228.515 71.7446 227.991 70.4751L228.635 70.2122C229.163 71.4905 229.67 72.7971 230.145 74.0957L229.49 74.3323ZM226.335 66.6815C225.76 65.4336 225.151 64.1808 224.525 62.9578L225.146 62.6437C225.776 63.875 226.389 65.1363 226.968 66.3926L226.335 66.6815ZM222.564 59.3104C221.889 58.1137 221.179 56.9144 220.454 55.7457L221.047 55.3823C221.776 56.5589 222.491 57.7665 223.171 58.9714L222.564 59.3104ZM218.2 52.2696C217.428 51.1311 216.621 49.9933 215.803 48.888L216.364 48.4774C217.188 49.5903 217.999 50.736 218.777 51.8824L218.2 52.2696ZM213.269 45.6066C212.405 44.5342 211.507 43.4661 210.601 42.4317L211.126 41.9766C212.038 43.0181 212.942 44.0936 213.812 45.1734L213.269 45.6066ZM207.803 39.3685C206.853 38.3703 205.869 37.3792 204.88 36.4223L205.365 35.9257C206.362 36.8891 207.352 37.8872 208.309 38.8921L207.803 39.3685ZM201.837 33.5982C200.807 32.6816 199.745 31.7742 198.678 30.9011L199.121 30.3663C200.195 31.2455 201.265 32.1593 202.301 33.0821L201.837 33.5982ZM195.41 28.3357C194.312 27.5096 193.179 26.6935 192.044 25.9101L192.441 25.3409C193.584 26.1297 194.724 26.9515 195.83 27.7832L195.41 28.3357ZM188.581 23.6241C187.419 22.8904 186.223 22.1692 185.027 21.4802L185.375 20.8807C186.58 21.5743 187.784 22.3006 188.954 23.0393L188.581 23.6241Z" fill="#E6E6E6"/>
<path d="M226.143 153.025L225.515 152.724C225.818 152.101 226.113 151.476 226.401 150.85L227.034 151.138C226.744 151.768 226.447 152.397 226.143 153.025Z" fill="#E6E6E6"/>
<path d="M180.406 21.8136L181.063 21.5833L179.918 18.3636L183.231 17.4632L183.046 16.7948L179.012 17.8919L180.406 21.8136Z" fill="#E6E6E6"/>
<path d="M224.193 149.598L224.854 149.381L225.925 152.626L229.101 151.326L229.365 151.968L225.498 153.55L224.193 149.598Z" fill="#E6E6E6"/>
</g>
<defs>
<clipPath id="clip0_134_100">
<rect width="236" height="216" fill="white" transform="translate(0.301392 0.102173)"/>
</clipPath>
</defs>
</svg>
