<svg width="112" height="94" viewBox="0 0 112 94" fill="none" xmlns="http://www.w3.org/2000/svg">
<g clip-path="url(#clip0_281_723)">
<path d="M65.0666 17.0364C67.1469 17.0364 68.8334 15.0937 68.8334 12.6972C68.8334 10.3007 67.1469 8.35792 65.0666 8.35792C62.9863 8.35792 61.2998 10.3007 61.2998 12.6972C61.2998 15.0937 62.9863 17.0364 65.0666 17.0364Z" fill="#F2F2F2"/>
<path d="M94.2862 81.4358C99.8851 76.5232 102.559 68.268 100.885 60.3931C100.844 60.1974 100.8 60.0022 100.753 59.8075C99.6436 55.133 96.8977 50.6903 92.8956 49.1967C89.5353 47.9426 85.8674 48.907 82.3617 48.4083C75.4799 47.4292 70.1446 41.0148 66.3905 34.2989C62.6365 27.5829 59.7513 20.0654 54.763 14.517C46.5405 5.37145 33.1276 3.4024 22.9329 9.35547C12.7382 15.3086 6.24427 28.5159 6.52122 41.6788C6.79818 54.8416 13.5815 67.4262 23.4325 74.1031C27.0513 76.5559 31.2369 78.2936 35.4024 77.6855C39.0167 77.1579 42.3008 74.9207 45.8981 74.2566C51.5539 73.2123 57.1737 76.1581 62.0656 79.5909C66.9574 83.0236 71.6826 87.0925 77.2416 88.6839C82.6393 90.2292 89.3265 85.7876 94.2862 81.4358Z" fill="#F2F2F2"/>
<path d="M86.2422 9.63188C86.1194 9.53762 85.9953 9.44824 85.8725 9.35723C82.3247 6.74331 78.5219 4.6198 74.5429 3.03055L73.6203 17.6926H67.7713V0.89024C67.4031 0.802483 67.0321 0.719601 66.6611 0.641594V17.6926H59.7103C55.8839 17.6926 52.2141 15.9415 49.5084 12.8246C46.8027 9.7077 45.2827 5.48025 45.2827 1.07228V1.07226C44.9102 1.16489 44.5406 1.26403 44.171 1.36966V17.6926H38.5097L37.6308 3.71149C33.5417 5.51804 29.6597 7.89375 26.0712 10.7857C26.0091 10.8345 25.947 10.8849 25.8864 10.9336C25.5746 11.1855 25.2671 11.4423 24.9609 11.7023V67.6381H41.6458L41.3509 62.9333L39.7286 37.1017H72.4L70.7776 62.9333L70.4828 67.6381H86.9828V10.1974C86.7373 10.0057 86.4905 9.81715 86.2422 9.63188ZM44.171 32.8356H39.4606L38.5901 18.9732H44.171V32.8356ZM66.6611 32.8356H58.7496V32.561C58.7496 32.429 58.727 32.2982 58.6831 32.1763C58.6392 32.0543 58.5749 31.9435 58.4938 31.8502C58.4127 31.757 58.3164 31.683 58.2105 31.6326C58.1045 31.5823 57.991 31.5564 57.8764 31.5567H54.437C54.3225 31.5566 54.2091 31.5826 54.1033 31.633C53.9975 31.6835 53.9014 31.7574 53.8204 31.8507C53.7394 31.944 53.6752 32.0547 53.6314 32.1766C53.5876 32.2985 53.5651 32.4291 53.5651 32.561V32.8356H45.2827V18.9732H66.6611V32.8356ZM67.7713 32.8356V18.9732H73.5399L72.6694 32.8356H67.7713Z" fill="#3F3D56"/>
<path d="M0.40918 71.22C1.63473 72.8929 2.9603 74.465 4.37619 75.9248L107.442 76.0873C108.858 74.6275 110.184 73.0554 111.409 71.3825L0.40918 71.22Z" fill="#3F3D56"/>
<path d="M70.3018 56.155V70.0832C70.3019 70.2607 70.3631 70.4308 70.4721 70.5563C70.581 70.6819 70.7288 70.7524 70.8828 70.7526H88.7999C88.954 70.7524 89.1017 70.6819 89.2107 70.5563C89.3196 70.4308 89.3809 70.2607 89.381 70.0832V56.155C89.3806 55.9777 89.3193 55.8078 89.2104 55.6824C89.1014 55.5571 88.9539 55.4866 88.7999 55.4864H70.8828C70.7289 55.4866 70.5813 55.5571 70.4724 55.6824C70.3635 55.8078 70.3021 55.9777 70.3018 56.155Z" fill="#3F3D56"/>
<path d="M70.7217 56.3283V69.9113C70.7218 70.0062 70.7546 70.0971 70.8128 70.1641C70.871 70.2312 70.9499 70.2689 71.0322 70.2691H88.6504C88.7327 70.2689 88.8116 70.2312 88.8698 70.1641C88.928 70.0971 88.9608 70.0062 88.9609 69.9113V56.3283C88.9609 56.2334 88.9282 56.1423 88.87 56.0751C88.8118 56.0079 88.7328 55.97 88.6504 55.9698H71.0322C70.9498 55.97 70.8708 56.0079 70.8126 56.0751C70.7544 56.1423 70.7217 56.2334 70.7217 56.3283Z" fill="#3FBF77"/>
<path d="M69.927 72.7995C69.9599 72.8469 70.0016 72.8851 70.0491 72.9113C70.0965 72.9375 70.1486 72.9509 70.2012 72.9506H89.3862C89.4386 72.9505 89.4904 72.937 89.5378 72.9109C89.5851 72.8849 89.6268 72.8471 89.6599 72.8001C89.6929 72.7532 89.7165 72.6983 89.7288 72.6396C89.7412 72.5808 89.742 72.5197 89.7312 72.4605L89.4334 70.8309C89.4211 70.7645 89.3945 70.7026 89.3561 70.651C89.3177 70.5994 89.2687 70.5597 89.2136 70.5355C89.1737 70.5175 89.1312 70.5083 89.0883 70.5083H70.4978C70.455 70.5083 70.4125 70.5175 70.3726 70.5355C70.3174 70.5597 70.2684 70.5994 70.2301 70.651C70.1917 70.7026 70.1651 70.7645 70.1528 70.8309L69.8549 72.4605C69.8443 72.5196 69.8453 72.5807 69.8578 72.6394C69.8703 72.698 69.8939 72.7527 69.927 72.7995Z" fill="#2F2E41"/>
<path d="M88.4301 71.2102H88.8833C88.9213 71.2102 88.9521 71.1747 88.9521 71.1309V70.8811C88.9521 70.8373 88.9213 70.8018 88.8833 70.8018H88.4301C88.3921 70.8018 88.3613 70.8373 88.3613 70.8811V71.1309C88.3613 71.1747 88.3921 71.2102 88.4301 71.2102Z" fill="#3F3D56"/>
<path d="M87.2485 71.2102H87.7016C87.7397 71.2102 87.7705 71.1747 87.7705 71.1309V70.8811C87.7705 70.8373 87.7397 70.8018 87.7016 70.8018H87.2485C87.2105 70.8018 87.1796 70.8373 87.1796 70.8811V71.1309C87.1796 71.1747 87.2105 71.2102 87.2485 71.2102Z" fill="#3F3D56"/>
<path d="M86.0659 71.2102H86.519C86.5571 71.2102 86.5879 71.1747 86.5879 71.1309V70.8811C86.5879 70.8373 86.5571 70.8018 86.519 70.8018H86.0659C86.0278 70.8018 85.997 70.8373 85.997 70.8811V71.1309C85.997 71.1747 86.0278 71.2102 86.0659 71.2102Z" fill="#3F3D56"/>
<path d="M84.8842 71.2102H85.3374C85.3754 71.2102 85.4062 71.1747 85.4062 71.1309V70.8811C85.4062 70.8373 85.3754 70.8018 85.3374 70.8018H84.8842C84.8462 70.8018 84.8154 70.8373 84.8154 70.8811V71.1309C84.8154 71.1747 84.8462 71.2102 84.8842 71.2102Z" fill="#3F3D56"/>
<path d="M83.7026 71.2102H84.1557C84.1938 71.2102 84.2246 71.1747 84.2246 71.1309V70.8811C84.2246 70.8373 84.1938 70.8018 84.1557 70.8018H83.7026C83.6646 70.8018 83.6337 70.8373 83.6337 70.8811V71.1309C83.6337 71.1747 83.6646 71.2102 83.7026 71.2102Z" fill="#3F3D56"/>
<path d="M82.5209 71.2102H82.9741C83.0121 71.2102 83.043 71.1747 83.043 71.1309V70.8811C83.043 70.8373 83.0121 70.8018 82.9741 70.8018H82.5209C82.4829 70.8018 82.4521 70.8373 82.4521 70.8811V71.1309C82.4521 71.1747 82.4829 71.2102 82.5209 71.2102Z" fill="#3F3D56"/>
<path d="M81.3393 71.2102H81.7925C81.8305 71.2102 81.8613 71.1747 81.8613 71.1309V70.8811C81.8613 70.8373 81.8305 70.8018 81.7925 70.8018H81.3393C81.3013 70.8018 81.2704 70.8373 81.2704 70.8811V71.1309C81.2704 71.1747 81.3013 71.2102 81.3393 71.2102Z" fill="#3F3D56"/>
<path d="M80.1577 71.2102H80.6108C80.6488 71.2102 80.6797 71.1747 80.6797 71.1309V70.8811C80.6797 70.8373 80.6488 70.8018 80.6108 70.8018H80.1577C80.1196 70.8018 80.0888 70.8373 80.0888 70.8811V71.1309C80.0888 71.1747 80.1196 71.2102 80.1577 71.2102Z" fill="#3F3D56"/>
<path d="M78.976 71.2102H79.4292C79.4672 71.2102 79.498 71.1747 79.498 71.1309V70.8811C79.498 70.8373 79.4672 70.8018 79.4292 70.8018H78.976C78.938 70.8018 78.9072 70.8373 78.9072 70.8811V71.1309C78.9072 71.1747 78.938 71.2102 78.976 71.2102Z" fill="#3F3D56"/>
<path d="M77.7944 71.2102H78.2475C78.2856 71.2102 78.3164 71.1747 78.3164 71.1309V70.8811C78.3164 70.8373 78.2856 70.8018 78.2475 70.8018H77.7944C77.7564 70.8018 77.7255 70.8373 77.7255 70.8811V71.1309C77.7255 71.1747 77.7564 71.2102 77.7944 71.2102Z" fill="#3F3D56"/>
<path d="M76.6118 71.2102H77.0649C77.103 71.2102 77.1338 71.1747 77.1338 71.1309V70.8811C77.1338 70.8373 77.103 70.8018 77.0649 70.8018H76.6118C76.5737 70.8018 76.5429 70.8373 76.5429 70.8811V71.1309C76.5429 71.1747 76.5737 71.2102 76.6118 71.2102Z" fill="#3F3D56"/>
<path d="M75.4301 71.2102H75.8833C75.9213 71.2102 75.9521 71.1747 75.9521 71.1309V70.8811C75.9521 70.8373 75.9213 70.8018 75.8833 70.8018H75.4301C75.3921 70.8018 75.3613 70.8373 75.3613 70.8811V71.1309C75.3613 71.1747 75.3921 71.2102 75.4301 71.2102Z" fill="#3F3D56"/>
<path d="M74.2485 71.2102H74.7016C74.7397 71.2102 74.7705 71.1747 74.7705 71.1309V70.8811C74.7705 70.8373 74.7397 70.8018 74.7016 70.8018H74.2485C74.2105 70.8018 74.1796 70.8373 74.1796 70.8811V71.1309C74.1796 71.1747 74.2105 71.2102 74.2485 71.2102Z" fill="#3F3D56"/>
<path d="M73.0668 71.2102H73.52C73.558 71.2102 73.5889 71.1747 73.5889 71.1309V70.8811C73.5889 70.8373 73.558 70.8018 73.52 70.8018H73.0668C73.0288 70.8018 72.998 70.8373 72.998 70.8811V71.1309C72.998 71.1747 73.0288 71.2102 73.0668 71.2102Z" fill="#3F3D56"/>
<path d="M71.8852 71.2102H72.3384C72.3764 71.2102 72.4072 71.1747 72.4072 71.1309V70.8811C72.4072 70.8373 72.3764 70.8018 72.3384 70.8018H71.8852C71.8472 70.8018 71.8163 70.8373 71.8163 70.8811V71.1309C71.8163 71.1747 71.8472 71.2102 71.8852 71.2102Z" fill="#3F3D56"/>
<path d="M70.7036 71.2102H71.1567C71.1948 71.2102 71.2256 71.1747 71.2256 71.1309V70.8811C71.2256 70.8373 71.1948 70.8018 71.1567 70.8018H70.7036C70.6655 70.8018 70.6347 70.8373 70.6347 70.8811V71.1309C70.6347 71.1747 70.6655 71.2102 70.7036 71.2102Z" fill="#3F3D56"/>
<path d="M88.4438 71.8909H88.8969C88.935 71.8909 88.9658 71.8554 88.9658 71.8116V71.5618C88.9658 71.518 88.935 71.4825 88.8969 71.4825H88.4438C88.4058 71.4825 88.3749 71.518 88.3749 71.5618V71.8116C88.3749 71.8554 88.4058 71.8909 88.4438 71.8909Z" fill="#3F3D56"/>
<path d="M87.2622 71.8909H87.7153C87.7533 71.8909 87.7842 71.8554 87.7842 71.8116V71.5618C87.7842 71.518 87.7533 71.4825 87.7153 71.4825H87.2622C87.2241 71.4825 87.1933 71.518 87.1933 71.5618V71.8116C87.1933 71.8554 87.2241 71.8909 87.2622 71.8909Z" fill="#3F3D56"/>
<path d="M86.0805 71.8909H86.5337C86.5717 71.8909 86.6025 71.8554 86.6025 71.8116V71.5618C86.6025 71.518 86.5717 71.4825 86.5337 71.4825H86.0805C86.0425 71.4825 86.0116 71.518 86.0116 71.5618V71.8116C86.0116 71.8554 86.0425 71.8909 86.0805 71.8909Z" fill="#3F3D56"/>
<path d="M84.8989 71.8909H85.352C85.3901 71.8909 85.4209 71.8554 85.4209 71.8116V71.5618C85.4209 71.518 85.3901 71.4825 85.352 71.4825H84.8989C84.8608 71.4825 84.83 71.518 84.83 71.5618V71.8116C84.83 71.8554 84.8608 71.8909 84.8989 71.8909Z" fill="#3F3D56"/>
<path d="M83.7163 71.8909H84.1694C84.2075 71.8909 84.2383 71.8554 84.2383 71.8116V71.5618C84.2383 71.518 84.2075 71.4825 84.1694 71.4825H83.7163C83.6782 71.4825 83.6474 71.518 83.6474 71.5618V71.8116C83.6474 71.8554 83.6782 71.8909 83.7163 71.8909Z" fill="#3F3D56"/>
<path d="M82.5346 71.8909H82.9878C83.0258 71.8909 83.0566 71.8554 83.0566 71.8116V71.5618C83.0566 71.518 83.0258 71.4825 82.9878 71.4825H82.5346C82.4966 71.4825 82.4658 71.518 82.4658 71.5618V71.8116C82.4658 71.8554 82.4966 71.8909 82.5346 71.8909Z" fill="#3F3D56"/>
<path d="M81.353 71.8909H81.8061C81.8442 71.8909 81.875 71.8554 81.875 71.8116V71.5618C81.875 71.518 81.8442 71.4825 81.8061 71.4825H81.353C81.3149 71.4825 81.2841 71.518 81.2841 71.5618V71.8116C81.2841 71.8554 81.3149 71.8909 81.353 71.8909Z" fill="#3F3D56"/>
<path d="M80.1713 71.8909H80.6245C80.6625 71.8909 80.6934 71.8554 80.6934 71.8116V71.5618C80.6934 71.518 80.6625 71.4825 80.6245 71.4825H80.1713C80.1333 71.4825 80.1025 71.518 80.1025 71.5618V71.8116C80.1025 71.8554 80.1333 71.8909 80.1713 71.8909Z" fill="#3F3D56"/>
<path d="M78.9897 71.8909H79.4429C79.4809 71.8909 79.5117 71.8554 79.5117 71.8116V71.5618C79.5117 71.518 79.4809 71.4825 79.4429 71.4825H78.9897C78.9517 71.4825 78.9208 71.518 78.9208 71.5618V71.8116C78.9208 71.8554 78.9517 71.8909 78.9897 71.8909Z" fill="#3F3D56"/>
<path d="M77.8081 71.8909H78.2612C78.2992 71.8909 78.3301 71.8554 78.3301 71.8116V71.5618C78.3301 71.518 78.2992 71.4825 78.2612 71.4825H77.8081C77.77 71.4825 77.7392 71.518 77.7392 71.5618V71.8116C77.7392 71.8554 77.77 71.8909 77.8081 71.8909Z" fill="#3F3D56"/>
<path d="M76.6264 71.8909H77.0796C77.1176 71.8909 77.1484 71.8554 77.1484 71.8116V71.5618C77.1484 71.518 77.1176 71.4825 77.0796 71.4825H76.6264C76.5884 71.4825 76.5576 71.518 76.5576 71.5618V71.8116C76.5576 71.8554 76.5884 71.8909 76.6264 71.8909Z" fill="#3F3D56"/>
<path d="M75.4448 71.8909H75.8979C75.936 71.8909 75.9668 71.8554 75.9668 71.8116V71.5618C75.9668 71.518 75.936 71.4825 75.8979 71.4825H75.4448C75.4067 71.4825 75.3759 71.518 75.3759 71.5618V71.8116C75.3759 71.8554 75.4067 71.8909 75.4448 71.8909Z" fill="#3F3D56"/>
<path d="M74.2622 71.8909H74.7153C74.7533 71.8909 74.7842 71.8554 74.7842 71.8116V71.5618C74.7842 71.518 74.7533 71.4825 74.7153 71.4825H74.2622C74.2241 71.4825 74.1933 71.518 74.1933 71.5618V71.8116C74.1933 71.8554 74.2241 71.8909 74.2622 71.8909Z" fill="#3F3D56"/>
<path d="M73.0805 71.8909H73.5337C73.5717 71.8909 73.6025 71.8554 73.6025 71.8116V71.5618C73.6025 71.518 73.5717 71.4825 73.5337 71.4825H73.0805C73.0425 71.4825 73.0117 71.518 73.0117 71.5618V71.8116C73.0117 71.8554 73.0425 71.8909 73.0805 71.8909Z" fill="#3F3D56"/>
<path d="M71.8989 71.8909H72.352C72.3901 71.8909 72.4209 71.8554 72.4209 71.8116V71.5618C72.4209 71.518 72.3901 71.4825 72.352 71.4825H71.8989C71.8608 71.4825 71.83 71.518 71.83 71.5618V71.8116C71.83 71.8554 71.8608 71.8909 71.8989 71.8909Z" fill="#3F3D56"/>
<path d="M70.7172 71.8909H71.1704C71.2084 71.8909 71.2393 71.8554 71.2393 71.8116V71.5618C71.2393 71.518 71.2084 71.4825 71.1704 71.4825H70.7172C70.6792 71.4825 70.6484 71.518 70.6484 71.5618V71.8116C70.6484 71.8554 70.6792 71.8909 70.7172 71.8909Z" fill="#3F3D56"/>
<path d="M78.6347 72.7077H83.2241C83.2621 72.7077 83.293 72.6722 83.293 72.6284V72.3786C83.293 72.3348 83.2621 72.2993 83.2241 72.2993H78.6347C78.5967 72.2993 78.5659 72.3348 78.5659 72.3786V72.6284C78.5659 72.6722 78.5967 72.7077 78.6347 72.7077Z" fill="#3F3D56"/>
<path d="M73.7728 58.9415H73.3716C73.25 58.9415 73.1514 59.0551 73.1514 59.1952C73.1514 59.3353 73.25 59.4489 73.3716 59.4489H73.7728C73.8944 59.4489 73.993 59.3353 73.993 59.1952C73.993 59.0551 73.8944 58.9415 73.7728 58.9415Z" fill="white"/>
<path d="M78.3607 58.9415H77.9595C77.8379 58.9415 77.7393 59.0551 77.7393 59.1952C77.7393 59.3353 77.8379 59.4489 77.9595 59.4489H78.3607C78.4823 59.4489 78.5809 59.3353 78.5809 59.1952C78.5809 59.0551 78.4823 58.9415 78.3607 58.9415Z" fill="white"/>
<path d="M79.6614 58.9415H79.2603C79.1386 58.9415 79.04 59.0551 79.04 59.1952C79.04 59.3353 79.1386 59.4489 79.2603 59.4489H79.6614C79.7831 59.4489 79.8817 59.3353 79.8817 59.1952C79.8817 59.0551 79.7831 58.9415 79.6614 58.9415Z" fill="white"/>
<path d="M77.113 58.8992H74.6196C74.498 58.8992 74.3994 59.0128 74.3994 59.1529C74.3994 59.293 74.498 59.4066 74.6196 59.4066H77.113C77.2346 59.4066 77.3332 59.293 77.3332 59.1529C77.3332 59.0128 77.2346 58.8992 77.113 58.8992Z" fill="white"/>
<path d="M83.2302 58.8992H80.7368C80.6152 58.8992 80.5166 59.0128 80.5166 59.1529C80.5166 59.293 80.6152 59.4066 80.7368 59.4066H83.2302C83.3518 59.4066 83.4504 59.293 83.4504 59.1529C83.4504 59.0128 83.3518 58.8992 83.2302 58.8992Z" fill="white"/>
<path d="M74.9964 60.0866H74.5952C74.4736 60.0866 74.375 60.2002 74.375 60.3403C74.375 60.4805 74.4736 60.594 74.5952 60.594H74.9964C75.118 60.594 75.2166 60.4805 75.2166 60.3403C75.2166 60.2002 75.118 60.0866 74.9964 60.0866Z" fill="white"/>
<path d="M79.5843 60.0866H79.1831C79.0615 60.0866 78.9629 60.2002 78.9629 60.3403C78.9629 60.4805 79.0615 60.594 79.1831 60.594H79.5843C79.7059 60.594 79.8045 60.4805 79.8045 60.3403C79.8045 60.2002 79.7059 60.0866 79.5843 60.0866Z" fill="white"/>
<path d="M80.8841 60.0866H80.4829C80.3613 60.0866 80.2627 60.2002 80.2627 60.3403C80.2627 60.4805 80.3613 60.594 80.4829 60.594H80.8841C81.0057 60.594 81.1043 60.4805 81.1043 60.3403C81.1043 60.2002 81.0057 60.0866 80.8841 60.0866Z" fill="white"/>
<path d="M78.3366 60.0443H75.8433C75.7216 60.0443 75.623 60.1579 75.623 60.298C75.623 60.4382 75.7216 60.5517 75.8433 60.5517H78.3366C78.4582 60.5517 78.5568 60.4382 78.5568 60.298C78.5568 60.1579 78.4582 60.0443 78.3366 60.0443Z" fill="white"/>
<path d="M84.4538 60.0443H81.9605C81.8388 60.0443 81.7402 60.1579 81.7402 60.298C81.7402 60.4382 81.8388 60.5517 81.9605 60.5517H84.4538C84.5754 60.5517 84.674 60.4382 84.674 60.298C84.674 60.1579 84.5754 60.0443 84.4538 60.0443Z" fill="white"/>
<path d="M76.22 61.2318H75.8189C75.6972 61.2318 75.5986 61.3454 75.5986 61.4855C75.5986 61.6256 75.6972 61.7392 75.8189 61.7392H76.22C76.3417 61.7392 76.4403 61.6256 76.4403 61.4855C76.4403 61.3454 76.3417 61.2318 76.22 61.2318Z" fill="white"/>
<path d="M80.8079 61.2318H80.4067C80.2851 61.2318 80.1865 61.3454 80.1865 61.4855C80.1865 61.6256 80.2851 61.7392 80.4067 61.7392H80.8079C80.9295 61.7392 81.0281 61.6256 81.0281 61.4855C81.0281 61.3454 80.9295 61.2318 80.8079 61.2318Z" fill="white"/>
<path d="M82.1077 61.2318H81.7066C81.5849 61.2318 81.4863 61.3454 81.4863 61.4855C81.4863 61.6256 81.5849 61.7392 81.7066 61.7392H82.1077C82.2294 61.7392 82.328 61.6256 82.328 61.4855C82.328 61.3454 82.2294 61.2318 82.1077 61.2318Z" fill="white"/>
<path d="M79.5602 61.1895H77.0669C76.9453 61.1895 76.8467 61.3031 76.8467 61.4432C76.8467 61.5833 76.9453 61.6969 77.0669 61.6969H79.5602C79.6819 61.6969 79.7805 61.5833 79.7805 61.4432C79.7805 61.3031 79.6819 61.1895 79.5602 61.1895Z" fill="white"/>
<path d="M85.6774 61.1895H83.1841C83.0625 61.1895 82.9639 61.3031 82.9639 61.4432C82.9639 61.5833 83.0625 61.6969 83.1841 61.6969H85.6774C85.7991 61.6969 85.8977 61.5833 85.8977 61.4432C85.8977 61.3031 85.7991 61.1895 85.6774 61.1895Z" fill="white"/>
<path d="M77.4437 62.377H77.0425C76.9209 62.377 76.8223 62.4906 76.8223 62.6307C76.8223 62.7708 76.9209 62.8844 77.0425 62.8844H77.4437C77.5653 62.8844 77.6639 62.7708 77.6639 62.6307C77.6639 62.4906 77.5653 62.377 77.4437 62.377Z" fill="white"/>
<path d="M82.0316 62.377H81.6304C81.5088 62.377 81.4102 62.4906 81.4102 62.6307C81.4102 62.7708 81.5088 62.8844 81.6304 62.8844H82.0316C82.1532 62.8844 82.2518 62.7708 82.2518 62.6307C82.2518 62.4906 82.1532 62.377 82.0316 62.377Z" fill="white"/>
<path d="M83.3314 62.377H82.9302C82.8086 62.377 82.71 62.4906 82.71 62.6307C82.71 62.7708 82.8086 62.8844 82.9302 62.8844H83.3314C83.453 62.8844 83.5516 62.7708 83.5516 62.6307C83.5516 62.4906 83.453 62.377 83.3314 62.377Z" fill="white"/>
<path d="M80.7839 62.3347H78.2905C78.1689 62.3347 78.0703 62.4483 78.0703 62.5884C78.0703 62.7285 78.1689 62.8421 78.2905 62.8421H80.7839C80.9055 62.8421 81.0041 62.7285 81.0041 62.5884C81.0041 62.4483 80.9055 62.3347 80.7839 62.3347Z" fill="white"/>
<path d="M78.3607 66.9307H77.9595C77.8379 66.9307 77.7393 67.0443 77.7393 67.1844C77.7393 67.3245 77.8379 67.4381 77.9595 67.4381H78.3607C78.4823 67.4381 78.5809 67.3245 78.5809 67.1844C78.5809 67.0443 78.4823 66.9307 78.3607 66.9307Z" fill="white"/>
<path d="M79.6614 66.9307H79.2603C79.1386 66.9307 79.04 67.0443 79.04 67.1844C79.04 67.3245 79.1386 67.4381 79.2603 67.4381H79.6614C79.7831 67.4381 79.8817 67.3245 79.8817 67.1844C79.8817 67.0443 79.7831 66.9307 79.6614 66.9307Z" fill="white"/>
<path d="M83.2302 66.973H80.7368C80.6152 66.973 80.5166 67.0866 80.5166 67.2267C80.5166 67.3668 80.6152 67.4804 80.7368 67.4804H83.2302C83.3518 67.4804 83.4504 67.3668 83.4504 67.2267C83.4504 67.0866 83.3518 66.973 83.2302 66.973Z" fill="white"/>
<path d="M73.7728 66.9307H73.3716C73.25 66.9307 73.1514 67.0443 73.1514 67.1844C73.1514 67.3245 73.25 67.4381 73.3716 67.4381H73.7728C73.8944 67.4381 73.993 67.3245 73.993 67.1844C73.993 67.0443 73.8944 66.9307 73.7728 66.9307Z" fill="white"/>
<path d="M77.113 66.973H74.6196C74.498 66.973 74.3994 67.0866 74.3994 67.2267C74.3994 67.3668 74.498 67.4804 74.6196 67.4804H77.113C77.2346 67.4804 77.3332 67.3668 77.3332 67.2267C77.3332 67.0866 77.2346 66.973 77.113 66.973Z" fill="white"/>
<path d="M74.9964 65.7856H74.5952C74.4736 65.7856 74.375 65.8991 74.375 66.0392C74.375 66.1794 74.4736 66.2929 74.5952 66.2929H74.9964C75.118 66.2929 75.2166 66.1794 75.2166 66.0392C75.2166 65.8991 75.118 65.7856 74.9964 65.7856Z" fill="white"/>
<path d="M79.5843 65.7856H79.1831C79.0615 65.7856 78.9629 65.8991 78.9629 66.0392C78.9629 66.1794 79.0615 66.2929 79.1831 66.2929H79.5843C79.7059 66.2929 79.8045 66.1794 79.8045 66.0392C79.8045 65.8991 79.7059 65.7856 79.5843 65.7856Z" fill="white"/>
<path d="M80.8841 65.7856H80.4829C80.3613 65.7856 80.2627 65.8991 80.2627 66.0392C80.2627 66.1794 80.3613 66.2929 80.4829 66.2929H80.8841C81.0057 66.2929 81.1043 66.1794 81.1043 66.0392C81.1043 65.8991 81.0057 65.7856 80.8841 65.7856Z" fill="white"/>
<path d="M78.3366 65.8279H75.8433C75.7216 65.8279 75.623 65.9414 75.623 66.0815C75.623 66.2217 75.7216 66.3352 75.8433 66.3352H78.3366C78.4582 66.3352 78.5568 66.2217 78.5568 66.0815C78.5568 65.9414 78.4582 65.8279 78.3366 65.8279Z" fill="white"/>
<path d="M76.22 64.6404H75.8189C75.6972 64.6404 75.5986 64.754 75.5986 64.8941C75.5986 65.0342 75.6972 65.1478 75.8189 65.1478H76.22C76.3417 65.1478 76.4403 65.0342 76.4403 64.8941C76.4403 64.754 76.3417 64.6404 76.22 64.6404Z" fill="white"/>
<path d="M80.8079 64.6404H80.4067C80.2851 64.6404 80.1865 64.754 80.1865 64.8941C80.1865 65.0342 80.2851 65.1478 80.4067 65.1478H80.8079C80.9295 65.1478 81.0281 65.0342 81.0281 64.8941C81.0281 64.754 80.9295 64.6404 80.8079 64.6404Z" fill="white"/>
<path d="M82.1077 64.6404H81.7066C81.5849 64.6404 81.4863 64.754 81.4863 64.8941C81.4863 65.0342 81.5849 65.1478 81.7066 65.1478H82.1077C82.2294 65.1478 82.328 65.0342 82.328 64.8941C82.328 64.754 82.2294 64.6404 82.1077 64.6404Z" fill="white"/>
<path d="M79.5602 64.6827H77.0669C76.9453 64.6827 76.8467 64.7963 76.8467 64.9364C76.8467 65.0765 76.9453 65.1901 77.0669 65.1901H79.5602C79.6819 65.1901 79.7805 65.0765 79.7805 64.9364C79.7805 64.7963 79.6819 64.6827 79.5602 64.6827Z" fill="white"/>
<path d="M77.4437 63.4952H77.0425C76.9209 63.4952 76.8223 63.6088 76.8223 63.7489C76.8223 63.889 76.9209 64.0026 77.0425 64.0026H77.4437C77.5653 64.0026 77.6639 63.889 77.6639 63.7489C77.6639 63.6088 77.5653 63.4952 77.4437 63.4952Z" fill="white"/>
<path d="M82.0316 63.4952H81.6304C81.5088 63.4952 81.4102 63.6088 81.4102 63.7489C81.4102 63.889 81.5088 64.0026 81.6304 64.0026H82.0316C82.1532 64.0026 82.2518 63.889 82.2518 63.7489C82.2518 63.6088 82.1532 63.4952 82.0316 63.4952Z" fill="white"/>
<path d="M83.3314 63.4952H82.9302C82.8086 63.4952 82.71 63.6088 82.71 63.7489C82.71 63.889 82.8086 64.0026 82.9302 64.0026H83.3314C83.453 64.0026 83.5516 63.889 83.5516 63.7489C83.5516 63.6088 83.453 63.4952 83.3314 63.4952Z" fill="white"/>
<path d="M80.7839 63.5375H78.2905C78.1689 63.5375 78.0703 63.6511 78.0703 63.7912C78.0703 63.9313 78.1689 64.0449 78.2905 64.0449H80.7839C80.9055 64.0449 81.0041 63.9313 81.0041 63.7912C81.0041 63.6511 80.9055 63.5375 80.7839 63.5375Z" fill="white"/>
<path d="M71.6401 80.3518L69.7568 76.9225L75.6681 71.4941L78.1081 68.3801C78.425 67.9756 78.8287 67.6739 79.2786 67.5054C79.7284 67.3368 80.2089 67.3072 80.6718 67.4195C81.1347 67.5318 81.564 67.7821 81.9166 68.1454C82.2693 68.5087 82.533 68.9723 82.6814 69.4898C82.9013 70.2566 82.854 71.0919 82.5495 71.8193C82.245 72.5468 81.707 73.1094 81.0492 73.3886L77.1909 75.026L71.6401 80.3518Z" fill="#FFB6B6"/>
<path d="M27.4521 55.487V72.1545H37.5883V55.487C37.5885 55.3671 37.5553 55.2504 37.4936 55.1538C37.4319 55.0573 37.3449 54.9861 37.2455 54.9507C37.1987 54.9329 37.1496 54.9241 37.1002 54.9247H27.9417C27.8775 54.9246 27.8139 54.939 27.7545 54.9672C27.6952 54.9954 27.6412 55.0368 27.5957 55.089C27.5503 55.1412 27.5142 55.2032 27.4896 55.2715C27.4649 55.3398 27.4522 55.4131 27.4521 55.487ZM31.4079 61.214C31.4105 60.8854 31.5257 60.5713 31.7283 60.3401C31.9309 60.1088 32.2047 59.979 32.4899 59.979C32.7752 59.979 33.0489 60.1088 33.2515 60.3401C33.4541 60.5713 33.5693 60.8854 33.5719 61.214V63.1479C33.5705 63.4774 33.4558 63.7928 33.2531 64.0252C33.0503 64.2576 32.7759 64.3881 32.4899 64.3881C32.2039 64.3881 31.9295 64.2576 31.7267 64.0252C31.524 63.7928 31.4093 63.4774 31.4079 63.1479V61.214Z" fill="#2F2E41"/>
<path d="M27.4209 71.6214V73.2287C27.4211 73.312 27.4498 73.3918 27.5008 73.4508C27.5518 73.5098 27.6209 73.5433 27.6932 73.544H37.3469C37.4192 73.5436 37.4885 73.5102 37.5395 73.4511C37.5905 73.392 37.6192 73.312 37.6192 73.2287V71.6214H27.4209Z" fill="#3F3D56"/>
<path d="M11.5059 30.3753V60.8077C11.5061 61.1955 11.64 61.5674 11.878 61.8416C12.1161 62.1159 12.4389 62.2701 12.7755 62.2704H51.9236C52.2603 62.2701 52.5831 62.1159 52.8211 61.8416C53.0592 61.5674 53.193 61.1955 53.1933 60.8077V30.3753C53.1925 29.9879 53.0584 29.6165 52.8204 29.3427C52.5825 29.0689 52.26 28.9148 51.9236 28.9143H12.7755C12.4392 28.9148 12.1167 29.0689 11.8787 29.3427C11.6407 29.6165 11.5067 29.9879 11.5059 30.3753Z" fill="#3F3D56"/>
<path d="M12.4248 30.754V60.4323C12.4251 60.6395 12.4967 60.8381 12.6239 60.9847C12.7511 61.1312 12.9235 61.2137 13.1034 61.214H51.5983C51.7782 61.2137 51.9506 61.1312 52.0778 60.9847C52.205 60.8381 52.2765 60.6395 52.2769 60.4323V30.754C52.2768 30.5465 52.2054 30.3475 52.0782 30.2007C51.951 30.0538 51.7784 29.9711 51.5983 29.9707H13.1034C12.9233 29.9711 12.7507 30.0538 12.6235 30.2007C12.4963 30.3475 12.4248 30.5465 12.4248 30.754Z" fill="white"/>
<path d="M19.5684 73.4351C19.6076 73.4917 19.6574 73.5373 19.7141 73.5686C19.7707 73.5998 19.8328 73.6158 19.8957 73.6155H42.7977C42.8603 73.6154 42.9221 73.5992 42.9787 73.5681C43.0352 73.5371 43.085 73.4919 43.1244 73.4358C43.1639 73.3798 43.192 73.3143 43.2067 73.2442C43.2215 73.1741 43.2225 73.101 43.2096 73.0304L42.8541 71.0851C42.8394 71.0058 42.8076 70.932 42.7618 70.8704C42.716 70.8088 42.6575 70.7614 42.5917 70.7325C42.5441 70.7109 42.4933 70.6999 42.4422 70.7H20.2498C20.1986 70.6999 20.1479 70.7109 20.1002 70.7325C20.0344 70.7614 19.976 70.8088 19.9301 70.8704C19.8843 70.932 19.8526 71.0058 19.8378 71.0851L19.4823 73.0304C19.4697 73.101 19.4708 73.1739 19.4857 73.2439C19.5006 73.3139 19.5288 73.3792 19.5684 73.4351Z" fill="#2F2E41"/>
<path d="M50.3491 34.059H14.3295C14.2921 34.058 14.2565 34.0402 14.2303 34.0094C14.2041 33.9785 14.1895 33.9371 14.1895 33.894C14.1895 33.8508 14.2041 33.8094 14.2303 33.7786C14.2565 33.7477 14.2921 33.7299 14.3295 33.729H50.3491C50.3865 33.7299 50.4221 33.7477 50.4483 33.7786C50.4745 33.8094 50.4892 33.8508 50.4892 33.894C50.4892 33.9371 50.4745 33.9785 50.4483 34.0094C50.4221 34.0402 50.3865 34.058 50.3491 34.059Z" fill="#3F3D56"/>
<path d="M16.7809 32.8865C17.2445 32.8865 17.6203 32.4439 17.6203 31.8979C17.6203 31.3519 17.2445 30.9093 16.7809 30.9093C16.3172 30.9093 15.9414 31.3519 15.9414 31.8979C15.9414 32.4439 16.3172 32.8865 16.7809 32.8865Z" fill="#3F3D56"/>
<path d="M19.6812 32.8865C20.1449 32.8865 20.5207 32.4439 20.5207 31.8979C20.5207 31.3519 20.1449 30.9093 19.6812 30.9093C19.2176 30.9093 18.8418 31.3519 18.8418 31.8979C18.8418 32.4439 19.2176 32.8865 19.6812 32.8865Z" fill="#3F3D56"/>
<path d="M22.5807 32.8865C23.0443 32.8865 23.4201 32.4439 23.4201 31.8979C23.4201 31.3519 23.0443 30.9093 22.5807 30.9093C22.117 30.9093 21.7412 31.3519 21.7412 31.8979C21.7412 32.4439 22.117 32.8865 22.5807 32.8865Z" fill="#3F3D56"/>
<path d="M48.6026 31.1538H46.5429C46.5022 31.1549 46.4635 31.1743 46.435 31.2078C46.4066 31.2414 46.3906 31.2864 46.3906 31.3334C46.3906 31.3803 46.4066 31.4253 46.435 31.4589C46.4635 31.4924 46.5022 31.5118 46.5429 31.5129H48.6026C48.6436 31.5123 48.6827 31.4931 48.7114 31.4594C48.7402 31.4258 48.7563 31.3805 48.7563 31.3334C48.7563 31.2862 48.7402 31.2409 48.7114 31.2073C48.6827 31.1737 48.6436 31.1544 48.6026 31.1538Z" fill="#3F3D56"/>
<path d="M48.6028 31.8282H46.5431C46.5024 31.8293 46.4636 31.8486 46.4351 31.8822C46.4066 31.9158 46.3906 31.9608 46.3906 32.0078C46.3906 32.0547 46.4066 32.0998 46.4351 32.1334C46.4636 32.167 46.5024 32.1863 46.5431 32.1874H48.6028C48.6438 32.1868 48.683 32.1676 48.7118 32.134C48.7406 32.1004 48.7568 32.0551 48.7568 32.0078C48.7568 31.9605 48.7406 31.9152 48.7118 31.8816C48.683 31.848 48.6438 31.8288 48.6028 31.8282Z" fill="#3F3D56"/>
<path d="M48.6026 32.5026H46.5429C46.5022 32.5037 46.4635 32.5231 46.435 32.5567C46.4066 32.5903 46.3906 32.6353 46.3906 32.6822C46.3906 32.7291 46.4066 32.7742 46.435 32.8077C46.4635 32.8413 46.5022 32.8607 46.5429 32.8618H48.6026C48.6436 32.8611 48.6827 32.8419 48.7114 32.8083C48.7402 32.7747 48.7563 32.7294 48.7563 32.6822C48.7563 32.635 48.7402 32.5897 48.7114 32.5561C48.6827 32.5225 48.6436 32.5033 48.6026 32.5026Z" fill="#3F3D56"/>
<path d="M98.2577 72.3268C98.3199 72.5353 98.4378 72.7157 98.5945 72.8422C98.7512 72.9686 98.9387 73.0346 99.13 73.0307L102.867 72.9199C103.06 72.9155 103.246 72.8395 103.398 72.7031C103.551 72.5667 103.66 72.3772 103.711 72.163L104.24 65.6483C104.428 65.7462 104.632 65.7946 104.838 65.7898C105.017 65.7846 105.193 65.7389 105.357 65.6553C105.52 65.5716 105.668 65.4516 105.791 65.3022C105.915 65.1528 106.011 64.9769 106.076 64.7845C106.14 64.5921 106.171 64.3869 106.166 64.1808C106.162 63.9747 106.122 63.7716 106.049 63.5831C105.977 63.3947 105.873 63.2246 105.743 63.0825C105.613 62.9404 105.46 62.8291 105.293 62.755C105.126 62.6809 104.948 62.6454 104.769 62.6506C104.687 62.6503 104.605 62.6601 104.524 62.6799C104.437 62.5708 104.331 62.484 104.212 62.4252C104.094 62.3663 103.966 62.3367 103.837 62.3382L98.088 62.5092C98.0403 62.5112 97.9929 62.518 97.9462 62.5295C97.8202 62.5565 97.7006 62.6144 97.5956 62.6992C97.4905 62.784 97.4025 62.8937 97.3373 63.0209C97.2722 63.1482 97.2315 63.29 97.2179 63.4369C97.2044 63.5839 97.2183 63.7324 97.2587 63.8726L98.2577 72.3268ZM104.348 65.206L104.725 63.6535C104.768 63.4742 104.769 63.285 104.728 63.1051C104.746 63.105 104.762 63.0951 104.78 63.095C105.038 63.0889 105.288 63.2008 105.474 63.4064C105.661 63.6119 105.769 63.8943 105.775 64.1915C105.781 64.4888 105.685 64.7766 105.507 64.992C105.329 65.2074 105.084 65.3327 104.826 65.3405C104.659 65.3465 104.494 65.3 104.348 65.206Z" fill="#2F2E41"/>
<path d="M97.9463 62.5295C98.0688 63.3362 99.4458 63.9033 101.102 63.8048C102.624 63.7239 103.869 63.1081 104.097 62.3781C104.013 62.3494 103.925 62.3359 103.837 62.3382L98.0881 62.5092C98.0404 62.5112 97.993 62.518 97.9463 62.5295Z" fill="#3F3D56"/>
<path d="M101.405 68.7469C101.413 68.7447 101.42 68.7411 101.426 68.7361L102.238 68.1241C102.248 68.1168 102.256 68.1067 102.262 68.0948C102.267 68.083 102.27 68.0697 102.27 68.0562C102.27 68.0427 102.267 68.0294 102.262 68.0176C102.256 68.0057 102.248 67.9956 102.238 67.9882L101.395 67.3517C101.387 67.3458 101.378 67.3417 101.369 67.3397C101.36 67.3377 101.351 67.3378 101.341 67.3399C101.332 67.3421 101.324 67.3463 101.316 67.3523C101.308 67.3583 101.302 67.366 101.297 67.3749C101.292 67.3839 101.288 67.3939 101.286 67.4044C101.285 67.4149 101.285 67.4257 101.287 67.4362C101.289 67.4466 101.292 67.4566 101.298 67.4654C101.303 67.4742 101.309 67.4817 101.317 67.4876L102.071 68.0561L101.349 68.6002C101.335 68.6107 101.325 68.6266 101.32 68.645C101.316 68.6634 101.317 68.6832 101.323 68.7008C101.33 68.7184 101.342 68.7327 101.357 68.7411C101.372 68.7496 101.389 68.7516 101.405 68.7469H101.405Z" fill="#3FBF77"/>
<path d="M100.123 68.815C100.136 68.811 100.149 68.8025 100.158 68.7904C100.167 68.7783 100.173 68.7633 100.175 68.7473C100.177 68.7313 100.175 68.7149 100.169 68.7004C100.163 68.6859 100.153 68.6738 100.141 68.6658L99.3924 68.1717L100.116 67.5529C100.123 67.5466 100.129 67.5386 100.134 67.5294C100.139 67.5203 100.142 67.5101 100.143 67.4996C100.145 67.4891 100.144 67.4783 100.142 67.468C100.14 67.4576 100.136 67.4479 100.13 67.4393C100.125 67.4308 100.118 67.4235 100.11 67.4181C100.102 67.4126 100.093 67.409 100.084 67.4074C100.075 67.4059 100.065 67.4064 100.056 67.409C100.047 67.4116 100.039 67.4162 100.031 67.4226L99.2219 68.1153C99.2125 68.1234 99.2049 68.134 99.2 68.1462C99.195 68.1584 99.1928 68.1719 99.1935 68.1853C99.1942 68.1988 99.1978 68.2118 99.2039 68.2233C99.2101 68.2348 99.2186 68.2443 99.2288 68.251L100.07 68.8067C100.086 68.8172 100.105 68.8202 100.123 68.815Z" fill="#3FBF77"/>
<path d="M101.324 69.2832C101.331 69.2812 101.338 69.2781 101.344 69.2738C101.352 69.2683 101.358 69.261 101.364 69.2524C101.369 69.2438 101.373 69.234 101.376 69.2236C101.378 69.2132 101.378 69.2025 101.377 69.1919C101.375 69.1814 101.372 69.1713 101.367 69.1621L100.217 66.9831C100.207 66.9647 100.191 66.9516 100.173 66.9465C100.155 66.9414 100.136 66.9449 100.12 66.9561C100.104 66.9673 100.092 66.9853 100.088 67.0063C100.084 67.0272 100.086 67.0493 100.096 67.0677L101.247 69.2467C101.255 69.2616 101.266 69.2731 101.28 69.2797C101.294 69.2862 101.31 69.2875 101.324 69.2832Z" fill="#3FBF77"/>
<path d="M36.6429 43.0297H30.4087C30.1544 43.0297 29.9482 43.2672 29.9482 43.5602V44.2618C29.9482 44.5548 30.1544 44.7923 30.4087 44.7923H36.6429C36.8972 44.7923 37.1034 44.5548 37.1034 44.2618V43.5602C37.1034 43.2672 36.8972 43.0297 36.6429 43.0297Z" fill="#3FBF77"/>
<path d="M40.2769 46.5549H26.7749C26.5206 46.5549 26.3145 46.7924 26.3145 47.0853V47.787C26.3145 48.0799 26.5206 48.3175 26.7749 48.3175H40.2769C40.5312 48.3175 40.7373 48.0799 40.7373 47.787V47.0853C40.7373 46.7924 40.5312 46.5549 40.2769 46.5549Z" fill="#E6E6E6"/>
<path d="M40.2769 50.08H26.7749C26.5206 50.08 26.3145 50.3175 26.3145 50.6105V51.3121C26.3145 51.6051 26.5206 51.8426 26.7749 51.8426H40.2769C40.5312 51.8426 40.7373 51.6051 40.7373 51.3121V50.6105C40.7373 50.3175 40.5312 50.08 40.2769 50.08Z" fill="#E6E6E6"/>
<path d="M41.4209 61.8844L41.4515 61.9956L41.4531 61.9993L42.3736 65.2233L43.4326 68.9385L45.4249 75.9204L45.4442 77.0049V77.0086L45.5923 85.7331L45.1819 86.9159L45.6438 88.8551C45.6438 88.8551 45.4313 85.9238 44.2919 87.6071C43.6466 88.5638 42.8918 89.5426 42.2722 90.4603C43.1751 90.8812 44.0924 91.2618 45.0242 91.6023C45.2254 91.6765 45.4281 91.7469 45.6309 91.8174C45.6744 91.8322 45.7178 91.847 45.7613 91.8619C48.85 92.9141 52.0433 93.5054 55.2627 93.6212C55.4301 93.6268 55.5943 93.6305 55.7536 93.6342C55.8099 93.6361 55.8646 93.6379 55.9193 93.6379C56.0996 93.6398 56.2782 93.6416 56.4585 93.6416C56.8222 93.6416 57.1843 93.6354 57.5448 93.6231C60.2129 93.5365 62.8655 93.1232 65.4578 92.3902C65.4401 91.1574 65.3918 89.7169 65.3226 88.1782C65.2904 87.4236 64.5679 86.606 64.5244 85.8163C64.4938 85.223 65.1424 84.665 65.1086 84.0625C64.8897 80.3528 64.6161 81.7768 64.4134 79.1499C64.3924 78.8922 64.3731 78.6456 64.3554 78.4102C64.2251 76.7231 64.135 75.6682 64.135 75.6682L65.0008 69.3816L66.3607 59.5114L66.256 59.313L66.1386 59.2463L58.9658 55.1566L58.5763 54.0072C58.4629 53.676 58.266 53.3916 58.011 53.1903C57.7561 52.9891 57.4547 52.8804 57.1456 52.8781L52.4207 52.8559C52.1754 52.8546 51.9335 52.9207 51.7149 53.0487C51.4963 53.1767 51.3074 53.3629 51.1638 53.5919L49.8844 55.633L41.4209 61.8844Z" fill="#3F3D56"/>
<path d="M46.515 74.3668L45.4448 77.0049L44.7141 78.8069L43.4573 86.3875L42.828 87.1569L42.2889 84.4332L36.6462 85.8765C36.4612 84.6919 36.5967 85.9166 36.4824 84.617C36.5146 84.5799 36.5484 84.5429 36.5822 84.5058C36.6723 84.4094 36.748 84.3185 36.7464 84.2314C36.682 79.7487 36.8751 72.1198 38.4876 67.498C38.7402 66.7434 39.0732 66.0279 39.479 65.3679C39.5112 65.3178 39.5418 65.2678 39.5723 65.2177C40.3158 64.0182 40.7858 62.8373 41.452 61.9975V61.9956C41.4562 61.9918 41.46 61.9874 41.4633 61.9827C41.4657 61.9813 41.4679 61.9794 41.4697 61.9771L46.0467 59.1814L46.243 65.5366L46.383 70.1046L46.515 74.3668Z" fill="#3F3D56"/>
<path d="M63.0186 75.1161L64.3554 78.411L64.822 79.5585L66.0785 87.1385L66.7057 87.9059L67.246 85.183L67.4999 85.123L72.079 84.0305L73.4136 88.9134C73.7145 88.3361 73.833 87.6567 73.7491 86.9903C73.6653 86.3239 73.3843 85.7112 72.9536 85.256C72.8624 85.161 72.7865 85.0685 72.7886 84.981C72.8646 79.7085 72.5846 70.0811 70.0564 66.1186C69.2534 64.8611 68.7717 63.6086 68.0707 62.7337C68.0685 62.7312 68.0685 62.7287 68.0664 62.7287L66.3606 59.5112L66.2564 59.3137L66.1393 59.2462L63.0186 75.1161Z" fill="#3F3D56"/>
<path d="M54.9198 51.3068C58.3915 51.3068 61.2058 48.0648 61.2058 44.0655C61.2058 40.0662 58.3915 36.8241 54.9198 36.8241C51.4481 36.8241 48.6338 40.0662 48.6338 44.0655C48.6338 48.0648 51.4481 51.3068 54.9198 51.3068Z" fill="#FFB6B6"/>
<path d="M63.4162 39.0074C63.3675 38.9475 63.3088 38.8994 63.2436 38.8662C63.1784 38.833 63.108 38.8152 63.0367 38.814L63.1312 38.5118C63.1621 38.4165 63.1704 38.3136 63.1554 38.2135C63.1403 38.1133 63.1024 38.0196 63.0456 37.9419C62.9887 37.8642 62.915 37.8052 62.8319 37.7712C62.7488 37.7371 62.6593 37.7291 62.5726 37.7479L62.2284 37.8243L62.2608 37.5594C62.2733 37.4608 62.2632 37.3601 62.2316 37.2673C62.2 37.1744 62.148 37.0927 62.0807 37.03C62.0134 36.9674 61.933 36.926 61.8476 36.91C61.7622 36.894 61.6746 36.9038 61.5935 36.9386C61.5198 36.9721 61.4404 36.9861 61.3613 36.9796C61.2822 36.9731 61.2054 36.9464 61.1365 36.9012C61.0672 36.8575 61.0071 36.7969 60.9604 36.7236C60.9136 36.6504 60.8812 36.5662 60.8656 36.4771L60.7457 35.8108L60.733 35.775C60.1489 34.6537 59.026 33.8378 57.6519 33.5388C56.4288 33.2707 55.1747 33.4072 53.9657 33.5356C53.486 33.5876 52.9443 33.6461 52.4928 33.9646C52.1091 34.2376 51.7847 34.7837 51.851 35.3346C50.6589 34.9137 49.3807 35.7539 48.7473 36.8135C47.9968 38.0746 47.8741 39.6542 47.8543 40.8893C47.8007 43.8113 48.3241 46.2019 49.4061 47.9961C49.4851 48.1261 49.5049 48.3975 49.6615 48.4885L49.629 48.4284C49.804 48.5291 49.9817 48.6916 49.9154 48.8655C49.725 49.3661 50.9904 50.4728 51.882 50.8384C53.5086 51.5064 55.6712 51.4495 57.192 51.209L57.2456 50.7946C57.7944 50.7084 58.181 50.5443 58.2896 50.2875C58.4814 50.099 58.6451 49.93 58.7876 49.774L58.789 49.7724C58.7918 49.7691 58.7974 49.7642 58.8003 49.761C59.4873 49.002 59.6467 48.5698 59.7187 47.9116C59.7878 47.2664 59.6651 46.6115 59.5395 46.0215C62.1832 46.4928 58.4984 42.7778 60.9615 42.0594C60.9898 42.0494 61.0185 42.0413 61.0476 42.0351C61.1195 42.0156 61.1915 41.9961 61.2606 41.9733C61.5938 41.8691 61.9129 41.7121 62.2086 41.5069C62.8971 41.0242 63.1242 40.3839 63.4797 39.6624C63.531 39.5596 63.5525 39.4407 63.5411 39.3229C63.5297 39.2051 63.4859 39.0946 63.4162 39.0074Z" fill="#2F2E41"/>
<path d="M77.1523 75.6316C77.1509 75.916 77.1481 76.3142 77.1368 76.8066C77.1354 76.8749 77.134 76.9447 77.1326 77.0162C77.1143 77.9214 77.0959 78.6804 77.0663 79.5238C77.0649 79.5823 77.0635 79.6392 77.0606 79.6977C77.0211 80.8743 76.9591 82.2443 76.8519 84.4139C76.6529 88.4215 76.3059 84.9648 75.9574 86.3706C75.9405 86.4404 75.9222 86.5233 75.9052 86.6208C75.8525 86.9746 75.7634 87.3199 75.64 87.6495C75.4552 87.7763 75.2648 87.8982 75.0771 88.0201C74.5425 88.363 73.9993 88.6929 73.452 89.0065C73.1444 89.1821 72.8355 89.3543 72.5251 89.5201C72.4757 89.5461 72.4278 89.5721 72.3798 89.5965C70.7905 90.4433 69.1525 91.1633 67.4775 91.7514C67.1502 91.8652 66.8243 91.9757 66.4942 92.0781C66.15 92.1886 65.8057 92.2926 65.4573 92.3901C62.8651 93.1232 60.2126 93.5367 57.5444 93.6236C57.1847 93.6366 56.8221 93.6414 56.4582 93.6414C56.2776 93.6414 56.0998 93.6398 55.9193 93.6382C55.8643 93.6382 55.8092 93.6366 55.7542 93.6349C55.5948 93.6301 55.4297 93.6268 55.2633 93.6219C52.0438 93.5063 48.8506 92.9147 45.7619 91.8619L45.6307 91.818C45.4276 91.7465 45.2258 91.6766 45.0241 91.6019C44.093 91.2622 43.1756 90.882 42.2717 90.461C41.5819 90.1409 40.9 89.7974 40.2262 89.4307C40.22 89.4288 40.2143 89.4255 40.2092 89.4209C40.0682 89.3462 39.9257 89.2682 39.7846 89.1886C39.7663 89.1772 39.7465 89.1658 39.7268 89.1544C39.2006 88.8586 38.68 88.5488 38.1651 88.2248C37.732 87.0791 37.1225 86.8597 36.7445 85.8521C36.6344 85.5528 36.5549 85.2398 36.5075 84.9193C36.5075 84.9161 36.506 84.9128 36.506 84.9079C36.5455 85.5125 36.3382 83.8353 36.5046 84.9014C36.5032 84.8819 36.5018 84.8608 36.5004 84.8364C36.4962 84.7779 36.4905 84.7064 36.4821 84.617C35.9982 79.1744 36.0292 72.9501 35.819 67.8212C35.8049 67.4897 35.7903 67.1722 35.7753 66.8689C35.7711 66.7681 35.7654 66.669 35.7598 66.5715C35.7696 66.5422 35.7809 66.5113 35.7936 66.4821C35.7963 66.4736 35.7996 66.4655 35.8035 66.4577C35.8077 66.4476 35.8124 66.4378 35.8176 66.4284C35.8204 66.4236 35.8247 66.4171 35.8275 66.4122C35.8295 66.4066 35.8319 66.4012 35.8345 66.3959C35.8472 66.3732 35.8613 66.3488 35.8769 66.3261C35.8839 66.3163 35.8896 66.3082 35.8966 66.3001C35.9015 66.2918 35.9072 66.2841 35.9135 66.2773C35.9179 66.2695 35.9231 66.2624 35.9291 66.2562C35.9347 66.2497 35.9403 66.2416 35.9474 66.2334C35.9504 66.2283 35.9542 66.2239 35.9587 66.2204C35.9698 66.2057 35.9821 66.1921 35.9954 66.1798C36.0457 66.1265 36.0995 66.0776 36.1562 66.0335C36.1759 66.0189 36.1971 66.0043 36.2168 65.988C36.359 65.8901 36.5087 65.8074 36.6641 65.741C36.7177 65.7183 36.7713 65.6971 36.8291 65.6744C36.8503 65.6679 36.87 65.6598 36.8912 65.6516C36.9222 65.6403 36.9533 65.6289 36.9857 65.6208C37.1465 65.5655 37.32 65.5184 37.5077 65.4745C37.5302 65.4696 37.5542 65.4647 37.5782 65.4582C37.6121 65.4501 37.6473 65.4436 37.6826 65.4371C37.7306 65.4274 37.7799 65.4176 37.8293 65.4079C38.2483 65.3315 38.7237 65.2746 39.2485 65.2372C39.2979 65.234 39.3473 65.2307 39.3967 65.2275C39.4545 65.2242 39.5123 65.221 39.5716 65.2177C39.621 65.2145 39.6718 65.2128 39.7225 65.2112C39.7719 65.208 39.8227 65.2063 39.8749 65.2047C40.0174 65.1998 40.1641 65.195 40.3136 65.1917C40.7397 65.182 41.1883 65.1852 41.6595 65.1966C41.8782 65.2031 42.1011 65.2096 42.3296 65.221C42.3451 65.221 42.3592 65.2226 42.3733 65.2226C42.5722 65.2307 42.7726 65.2405 42.9785 65.2535C43.1224 65.2616 43.2677 65.2697 43.413 65.2795C43.5499 65.2892 43.6881 65.299 43.8278 65.3104C43.9364 65.3169 44.045 65.3266 44.1551 65.3347C44.2482 65.3429 44.3413 65.351 44.4344 65.3575L44.5614 65.3672C44.6305 65.3737 44.6996 65.3786 44.7702 65.3867C44.9254 65.4014 45.0805 65.416 45.2385 65.4306C45.3951 65.4469 45.5545 65.4631 45.714 65.4794C45.8734 65.4956 46.0342 65.5135 46.195 65.5314C46.2119 65.533 46.2275 65.5346 46.243 65.5362C46.3897 65.5541 46.5364 65.5704 46.6845 65.5883C46.7184 65.5915 46.7537 65.5948 46.7875 65.5996C46.9288 65.616 47.0727 65.6351 47.2153 65.6526C47.259 65.658 47.3025 65.6633 47.3464 65.6688C47.458 65.6828 47.5681 65.6949 47.6805 65.7101C47.8286 65.7296 47.9796 65.7475 48.1263 65.7703C48.2406 65.7849 48.3549 65.7995 48.4691 65.8158C48.6483 65.8402 48.8303 65.8662 49.0123 65.8938C49.0814 65.9035 49.1505 65.9133 49.2196 65.9247C49.7388 65.9994 50.2636 66.0823 50.7968 66.1684C51.6052 66.3001 52.4263 66.4431 53.2529 66.5975C54.0811 66.7519 54.9139 66.9149 55.7514 67.0866C55.963 67.1305 56.1746 67.1744 56.3876 67.2199C56.4836 67.241 56.5795 67.2621 56.6754 67.2833C56.8391 67.3174 57.0027 67.3531 57.1663 67.3889C57.33 67.4247 57.4936 67.4604 57.6573 67.4978C57.852 67.5417 58.0481 67.5855 58.2427 67.6294C59.5251 67.9219 60.8004 68.234 62.0447 68.5606C62.2493 68.6143 62.4538 68.6695 62.657 68.7231C63.0633 68.832 63.4658 68.9425 63.8646 69.0547C63.9746 69.0839 64.0832 69.1148 64.1918 69.1457C64.4627 69.2237 64.7336 69.3017 65.0002 69.3813L65.0468 69.3959C65.2428 69.4512 65.4347 69.5081 65.6266 69.5666C66.0794 69.7031 66.5247 69.8412 66.9625 69.981C67.2531 70.0736 67.5405 70.1673 67.8245 70.2621C68.2491 70.4035 68.6653 70.5466 69.0702 70.6912C69.1703 70.7269 69.2705 70.7627 69.3693 70.7968C69.6655 70.9025 69.9575 71.0097 70.2411 71.117C70.4668 71.2015 70.6869 71.2876 70.9042 71.3738C71.1214 71.4599 71.3344 71.546 71.5432 71.6321C71.6772 71.6874 71.8098 71.7459 71.9425 71.8012C72.1329 71.8824 72.3205 71.9637 72.5039 72.0449C72.5604 72.0693 72.6154 72.0953 72.6704 72.1197C72.7057 72.1376 72.7395 72.1522 72.7734 72.1684C72.8397 72.1993 72.9074 72.2286 72.9723 72.2594C73.0386 72.2887 73.1035 72.3196 73.1684 72.3521C73.2319 72.3813 73.2968 72.4122 73.3588 72.4431C73.4223 72.4723 73.4844 72.5032 73.5465 72.5357C73.5987 72.5601 73.6495 72.5861 73.6988 72.6121C73.799 72.6625 73.8992 72.7129 73.9965 72.7649C74.0445 72.7909 74.0924 72.8152 74.1404 72.8412L74.2504 72.8998C74.266 72.9095 74.2815 72.9176 74.297 72.9258C74.3323 72.9453 74.3689 72.9664 74.4042 72.9859C74.486 73.0298 74.5664 73.0769 74.6454 73.1208C74.7512 73.1825 74.8542 73.2443 74.953 73.3044C75.0531 73.3662 75.1505 73.4279 75.2436 73.4881C75.2591 73.4978 75.2732 73.5076 75.2887 73.5173C75.3099 73.5303 75.3311 73.5449 75.3522 73.5579C75.4242 73.6051 75.4933 73.6538 75.5624 73.7009C75.6979 73.7968 75.8262 73.8911 75.9461 73.9853C75.9729 74.0065 75.9983 74.0276 76.0251 74.0471C76.114 74.1202 76.1987 74.1917 76.2777 74.2649C76.2777 74.2665 76.2777 74.2665 76.2791 74.2665C76.3059 74.2892 76.3313 74.3136 76.3567 74.3364C76.3778 74.3591 76.4004 74.3786 76.4216 74.4014C76.4949 74.4745 76.5626 74.5444 76.6247 74.6159C76.6455 74.638 76.6653 74.6613 76.684 74.6858C76.6922 74.6936 76.6997 74.7023 76.7065 74.7118C76.7347 74.7443 76.7601 74.7768 76.7841 74.8093C76.7878 74.8138 76.7912 74.8187 76.794 74.8239C76.8279 74.8694 76.8589 74.9149 76.8885 74.9604C76.9026 74.9832 76.9181 75.0059 76.9308 75.0287C76.9478 75.0563 76.9647 75.0856 76.9788 75.1132C76.9915 75.1359 77.0028 75.1603 77.0141 75.1831C77.044 75.2416 77.0695 75.3031 77.0903 75.3667C77.1061 75.4099 77.1189 75.4544 77.1283 75.5C77.139 75.5431 77.1471 75.5871 77.1523 75.6316Z" fill="#2F2E41"/>
<path opacity="0.2" d="M77.1528 75.6316C77.1514 75.916 77.1486 76.3142 77.1373 76.8066C77.1359 76.8749 77.133 76.9447 77.1316 77.0162C77.1175 77.7069 77.0964 78.5601 77.0667 79.5238C77.0653 79.5823 77.0639 79.6392 77.0611 79.6977C77.0216 80.8743 76.9595 82.2443 76.8523 84.4139C76.6534 88.4215 76.3063 84.9648 75.9579 86.3706C74.9901 85.6847 73.9292 84.9664 72.795 84.2286C72.5904 84.0954 72.384 83.9616 72.1757 83.8272C69.9072 82.3695 67.3735 80.8418 64.7284 79.3288C64.624 79.2687 64.5182 79.2086 64.4138 79.1501C58.3546 75.6999 51.7411 72.344 46.3831 70.1045C45.349 69.6722 44.3615 69.2822 43.4332 68.9393C41.4779 68.2193 39.7879 67.7156 38.4872 67.4978C37.1329 67.2703 36.1975 67.3515 35.8195 67.8212C35.8053 67.4897 35.7908 67.1722 35.7757 66.8689C35.7701 66.7681 35.7644 66.669 35.7588 66.5715C35.7675 66.5447 35.7788 66.5192 35.7898 66.4934C35.7913 66.4897 35.7924 66.4858 35.7941 66.4821C35.7968 66.4736 35.8001 66.4655 35.8039 66.4577C35.8081 66.4476 35.8128 66.4378 35.818 66.4284C35.8226 66.4169 35.8283 66.406 35.835 66.3959C35.8477 66.3732 35.8618 66.3488 35.8773 66.3261C35.8887 66.309 35.901 66.2927 35.914 66.2773C35.9183 66.2695 35.9235 66.2624 35.9295 66.2562C35.9351 66.2497 35.9408 66.2415 35.9478 66.2334C35.9508 66.2283 35.9547 66.2239 35.9591 66.2204C35.9703 66.2057 35.9825 66.1921 35.9958 66.1798C36.0461 66.1264 36.0999 66.0775 36.1566 66.0335C36.1764 66.0189 36.1975 66.0043 36.2173 65.988C36.3595 65.89 36.5092 65.8074 36.6645 65.741C36.7181 65.7183 36.7717 65.6971 36.8295 65.6744C36.8507 65.6679 36.8705 65.6598 36.8916 65.6516C36.9227 65.6403 36.9537 65.6289 36.9861 65.6207C37.147 65.5655 37.3205 65.5184 37.5081 65.4745C37.5645 65.4615 37.6238 65.4485 37.683 65.4371C37.731 65.4274 37.7804 65.4176 37.8298 65.4079C38.2488 65.3315 38.7242 65.2746 39.249 65.2372C39.2983 65.234 39.3477 65.2307 39.3971 65.2275C39.4549 65.2242 39.5128 65.221 39.572 65.2177C39.6214 65.2145 39.6722 65.2128 39.723 65.2112C39.7724 65.208 39.8231 65.2063 39.8753 65.2047C40.0178 65.1998 40.1645 65.195 40.3141 65.1917C40.7401 65.1836 41.1887 65.1868 41.6599 65.1982C41.8786 65.2031 42.1015 65.2112 42.33 65.2226C42.3441 65.2226 42.3597 65.2242 42.3738 65.2242C42.5727 65.2307 42.7744 65.2421 42.979 65.2535C43.1229 65.2616 43.2682 65.2697 43.4135 65.2795C43.5503 65.2892 43.6886 65.299 43.8282 65.3103C43.9369 65.3168 44.0455 65.3266 44.1555 65.3347C44.2486 65.3428 44.3417 65.351 44.4348 65.3575C44.5463 65.3672 44.6577 65.377 44.7706 65.3867C44.9258 65.4014 45.081 65.416 45.239 65.4306C45.3956 65.4469 45.555 65.4631 45.7144 65.4794C45.8738 65.4956 46.0346 65.5135 46.1955 65.5314C46.2124 65.533 46.2279 65.5346 46.2434 65.5362C46.3901 65.5541 46.5369 65.5704 46.685 65.5882C47.506 65.6841 48.3511 65.7963 49.2201 65.9247C49.7392 66.001 50.265 66.0828 50.7973 66.17C51.6056 66.3017 52.4267 66.4447 53.2534 66.5975C54.0815 66.7518 54.9143 66.9149 55.7518 67.0866C55.9634 67.1305 56.175 67.1744 56.3881 67.2199C56.6476 67.2751 56.9072 67.3315 57.1668 67.3889C57.3304 67.4246 57.4941 67.4604 57.6577 67.4978C57.8524 67.5417 58.0485 67.5855 58.2432 67.6294C59.5256 67.9219 60.8009 68.234 62.0451 68.5606C62.2497 68.6142 62.4543 68.6695 62.6574 68.7231C63.0637 68.832 63.4662 68.9425 63.865 69.0547C63.975 69.0855 64.0837 69.1164 64.1923 69.1473C64.4646 69.2253 64.734 69.3033 65.0006 69.3813V69.3829C65.0162 69.3862 65.0317 69.3911 65.0472 69.396C65.2419 69.4528 65.4351 69.5097 65.627 69.5682C66.0799 69.7047 66.5252 69.8423 66.963 69.981C67.2536 70.0752 67.5414 70.1679 67.8249 70.2622C68.2496 70.4052 68.6658 70.5482 69.0706 70.6912C69.1708 70.7269 69.271 70.7627 69.3697 70.7968C69.666 70.9041 69.9566 71.0108 70.2416 71.117C70.4673 71.2015 70.6873 71.2876 70.9046 71.3737C71.1219 71.4599 71.3349 71.546 71.5437 71.6321C71.6791 71.6874 71.8117 71.7443 71.9429 71.7995C72.1348 71.8808 72.321 71.962 72.5044 72.0449C72.5608 72.0693 72.6158 72.0953 72.6708 72.1197C72.7738 72.1652 72.874 72.2123 72.9727 72.2594C73.039 72.2887 73.1039 72.3196 73.1688 72.3521C73.2323 72.3813 73.2972 72.4122 73.3593 72.4431C73.4228 72.4723 73.4848 72.5032 73.5469 72.5357C73.5991 72.5601 73.6499 72.5861 73.6993 72.6121C73.7994 72.6625 73.8996 72.7129 73.9969 72.7649C74.0449 72.7909 74.0929 72.8153 74.1408 72.8413L74.2509 72.8998C74.2664 72.9095 74.2819 72.9176 74.2974 72.9258C74.4173 72.9908 74.533 73.0558 74.6459 73.1208C74.7517 73.1825 74.8547 73.2443 74.9534 73.3044C75.0705 73.3759 75.182 73.4458 75.2892 73.5173C75.3103 73.5303 75.3315 73.5449 75.3527 73.5579C75.4246 73.6051 75.4937 73.6538 75.5629 73.7009C75.6983 73.7968 75.8267 73.8911 75.9466 73.9853C76.0651 74.0796 76.1751 74.1722 76.2781 74.2649C76.2781 74.2665 76.2781 74.2665 76.2795 74.2665C76.3289 74.312 76.3769 74.3575 76.422 74.4014C76.4954 74.4745 76.5631 74.5444 76.6252 74.6159C76.646 74.638 76.6657 74.6613 76.6844 74.6858C76.6926 74.6936 76.7002 74.7023 76.707 74.7118C76.7366 74.7492 76.7662 74.7865 76.7945 74.8239C76.8283 74.8694 76.8593 74.9149 76.889 74.9604C76.9031 74.9832 76.9186 75.0059 76.9313 75.0287C76.9482 75.0563 76.9652 75.0856 76.9793 75.1132C76.992 75.1359 77.0032 75.1603 77.0145 75.1831C77.0445 75.2416 77.07 75.3031 77.0907 75.3667C77.1061 75.41 77.1189 75.4546 77.1288 75.5C77.1395 75.5431 77.1475 75.5871 77.1528 75.6316Z" fill="black"/>
</g>
<defs>
<clipPath id="clip0_281_723">
<rect width="111" height="93" fill="white" transform="translate(0.40918 0.641602)"/>
</clipPath>
</defs>
</svg>
